G04 #@! TF.GenerationSoftware,KiCad,Pcbnew,(2017-01-24 revision 0b6147e)-makepkg*
G04 #@! TF.CreationDate,2017-01-30T11:51:46-08:00*
G04 #@! TF.ProjectId,derbyFX,646572627946582E6B696361645F7063,rev?*
G04 #@! TF.FileFunction,Soldermask,Top*
G04 #@! TF.FilePolarity,Negative*
%FSLAX46Y46*%
G04 Gerber Fmt 4.6, Leading zero omitted, Abs format (unit mm)*
G04 Created by KiCad (PCBNEW (2017-01-24 revision 0b6147e)-makepkg) date 01/30/17 11:51:46*
%MOMM*%
%LPD*%
G01*
G04 APERTURE LIST*
%ADD10C,0.100000*%
%ADD11R,1.250000X0.650000*%
%ADD12R,0.650000X1.250000*%
%ADD13R,2.432000X2.432000*%
%ADD14O,2.432000X2.432000*%
%ADD15C,2.127200*%
%ADD16O,2.127200X2.127200*%
%ADD17R,1.400000X1.650000*%
%ADD18R,1.303020X0.901700*%
%ADD19R,1.150000X1.200000*%
%ADD20R,1.650000X1.400000*%
%ADD21R,2.000000X1.400000*%
%ADD22R,1.200000X1.150000*%
%ADD23R,1.100000X1.700000*%
%ADD24R,0.800000X1.100000*%
%ADD25R,1.197560X1.197560*%
%ADD26R,1.600000X2.100000*%
%ADD27O,1.600000X2.100000*%
%ADD28R,0.900000X1.300000*%
%ADD29R,1.300000X0.900000*%
%ADD30R,2.150000X1.100000*%
%ADD31R,1.900000X1.700000*%
%ADD32R,1.900000X1.200000*%
%ADD33R,1.800000X1.200000*%
%ADD34R,1.950000X1.400000*%
%ADD35R,1.400000X1.800000*%
%ADD36R,1.460000X1.050000*%
%ADD37R,4.057600X2.432000*%
%ADD38R,1.416000X2.432000*%
%ADD39R,1.850000X0.850000*%
%ADD40R,1.600000X1.600000*%
%ADD41R,2.000000X1.900000*%
%ADD42R,1.602740X0.652780*%
%ADD43R,2.299920X2.299920*%
%ADD44C,1.650006*%
%ADD45C,1.504000*%
%ADD46O,2.432000X2.127200*%
%ADD47C,1.500000*%
%ADD48R,1.800000X1.600000*%
%ADD49C,1.300000*%
G04 APERTURE END LIST*
D10*
D11*
X101805000Y-57920000D03*
X101805000Y-58420000D03*
X101805000Y-58920000D03*
D12*
X101330000Y-59895000D03*
X100830000Y-59895000D03*
X100330000Y-59895000D03*
X99830000Y-59895000D03*
X99330000Y-59895000D03*
D11*
X98855000Y-58920000D03*
X98855000Y-58420000D03*
X98855000Y-57920000D03*
D12*
X99330000Y-56945000D03*
X99830000Y-56945000D03*
X100330000Y-56945000D03*
X100830000Y-56945000D03*
X101330000Y-56945000D03*
D13*
X111125000Y-83185000D03*
D14*
X111125000Y-80645000D03*
D15*
X108585000Y-50800000D03*
D16*
X111125000Y-50800000D03*
X108585000Y-48260000D03*
X111125000Y-48260000D03*
X108585000Y-45720000D03*
X111125000Y-45720000D03*
D17*
X105775000Y-57785000D03*
X103775000Y-57785000D03*
D18*
X92877640Y-58224420D03*
X88732360Y-58224420D03*
X92877640Y-56075580D03*
X88732360Y-56075580D03*
D19*
X102235000Y-64655000D03*
X102235000Y-66155000D03*
D20*
X94742000Y-38084000D03*
X94742000Y-36084000D03*
D21*
X103632000Y-38838000D03*
X103632000Y-35838000D03*
D22*
X101842000Y-44196000D03*
X100342000Y-44196000D03*
X98540000Y-44196000D03*
X97040000Y-44196000D03*
D21*
X105410000Y-49760000D03*
X105410000Y-46760000D03*
D22*
X103644000Y-59690000D03*
X105144000Y-59690000D03*
X95135000Y-75311000D03*
X96635000Y-75311000D03*
X99810000Y-75311000D03*
X98310000Y-75311000D03*
D19*
X101473000Y-81800000D03*
X101473000Y-83300000D03*
X107315000Y-79260000D03*
X107315000Y-80760000D03*
X107315000Y-83935000D03*
X107315000Y-82435000D03*
D23*
X105090000Y-83185000D03*
X103190000Y-83185000D03*
X105090000Y-80645000D03*
X103190000Y-80645000D03*
D24*
X94270600Y-40614600D03*
X94970600Y-40614600D03*
X94970600Y-41914600D03*
X94270600Y-41914600D03*
D25*
X104140000Y-42405300D03*
X104140000Y-40906700D03*
D26*
X110236000Y-41402000D03*
D27*
X108236000Y-41402000D03*
D28*
X93865000Y-53975000D03*
X95365000Y-53975000D03*
D29*
X100203000Y-39509000D03*
X100203000Y-41009000D03*
D28*
X95492000Y-44196000D03*
X93992000Y-44196000D03*
D29*
X97917000Y-40997000D03*
X97917000Y-39497000D03*
D28*
X104890000Y-44196000D03*
X103390000Y-44196000D03*
X94500000Y-79375000D03*
X96000000Y-79375000D03*
D29*
X108585000Y-53225000D03*
X108585000Y-54725000D03*
D28*
X96635000Y-77343000D03*
X95135000Y-77343000D03*
X98310000Y-77343000D03*
X99810000Y-77343000D03*
D29*
X111125000Y-53225000D03*
X111125000Y-54725000D03*
D30*
X89161620Y-62745620D03*
X89161620Y-63845620D03*
X89161620Y-64945620D03*
X89161620Y-66045620D03*
X89161620Y-67145620D03*
X89161620Y-68245620D03*
X89161620Y-69345620D03*
X89161620Y-70445620D03*
D31*
X89286620Y-72795620D03*
X89286620Y-61545620D03*
D32*
X96886620Y-61295620D03*
D33*
X97536620Y-73045620D03*
D34*
X99961620Y-72695620D03*
D35*
X98386620Y-61595620D03*
D36*
X100160000Y-37780000D03*
X100160000Y-36830000D03*
X100160000Y-35880000D03*
X97960000Y-35880000D03*
X97960000Y-37780000D03*
D37*
X100330000Y-53467000D03*
D38*
X100330000Y-46863000D03*
X98044000Y-46863000D03*
X102616000Y-46863000D03*
D39*
X94955000Y-81575000D03*
X94955000Y-82225000D03*
X94955000Y-82875000D03*
X94955000Y-83525000D03*
X99355000Y-83525000D03*
X99355000Y-82875000D03*
X99355000Y-82225000D03*
X99355000Y-81575000D03*
D40*
X104493060Y-72722740D03*
X102493060Y-72722740D03*
D41*
X103493060Y-75962740D03*
D42*
X91948000Y-38580060D03*
X91948000Y-39230300D03*
X91948000Y-39878000D03*
X91948000Y-40525700D03*
X91948000Y-41175940D03*
D43*
X89273380Y-38679120D03*
X89273380Y-41076880D03*
D44*
X89278000Y-36448000D03*
X89278000Y-43308000D03*
D45*
X91948000Y-42375940D03*
X91948000Y-37375940D03*
D46*
X91440000Y-83185000D03*
X91440000Y-80645000D03*
X91440000Y-78105000D03*
X91440000Y-75565000D03*
D47*
X111760000Y-57284000D03*
X111760000Y-58584000D03*
X111760000Y-59884000D03*
X111760000Y-61184000D03*
X111760000Y-62484000D03*
X111760000Y-77343000D03*
X111760000Y-76043000D03*
X111760000Y-74743000D03*
X111760000Y-73443000D03*
X111760000Y-72143000D03*
X109982000Y-72106000D03*
X109982000Y-73406000D03*
X109982000Y-57277000D03*
X109982000Y-58577000D03*
X109982000Y-76043000D03*
X109982000Y-77343000D03*
X109982000Y-62484000D03*
X109982000Y-61184000D03*
D48*
X88978740Y-47531020D03*
X88978740Y-52531020D03*
X93378740Y-50031020D03*
D49*
X91178740Y-46631020D03*
X91178740Y-53431020D03*
M02*
