G04 #@! TF.GenerationSoftware,KiCad,Pcbnew,(2017-01-24 revision 0b6147e)-makepkg*
G04 #@! TF.CreationDate,2017-01-30T11:51:45-08:00*
G04 #@! TF.ProjectId,derbyFX,646572627946582E6B696361645F7063,rev?*
G04 #@! TF.FileFunction,Copper,L2,Inr,Plane*
G04 #@! TF.FilePolarity,Positive*
%FSLAX46Y46*%
G04 Gerber Fmt 4.6, Leading zero omitted, Abs format (unit mm)*
G04 Created by KiCad (PCBNEW (2017-01-24 revision 0b6147e)-makepkg) date 01/30/17 11:51:45*
%MOMM*%
%LPD*%
G01*
G04 APERTURE LIST*
%ADD10C,0.100000*%
%ADD11R,2.032000X2.032000*%
%ADD12O,2.032000X2.032000*%
%ADD13C,1.727200*%
%ADD14O,1.727200X1.727200*%
%ADD15R,1.200000X1.700000*%
%ADD16O,1.200000X1.700000*%
%ADD17C,1.650000*%
%ADD18C,1.250000*%
%ADD19O,2.032000X1.727200*%
%ADD20C,1.100000*%
%ADD21C,0.800000*%
%ADD22C,0.254000*%
G04 APERTURE END LIST*
D10*
D11*
X111125000Y-83185000D03*
D12*
X111125000Y-80645000D03*
D13*
X108585000Y-50800000D03*
D14*
X111125000Y-50800000D03*
X108585000Y-48260000D03*
X111125000Y-48260000D03*
X108585000Y-45720000D03*
X111125000Y-45720000D03*
D15*
X110236000Y-41402000D03*
D16*
X108236000Y-41402000D03*
D17*
X89278000Y-36448000D03*
X89278000Y-43308000D03*
D18*
X91948000Y-42375940D03*
X91948000Y-37375940D03*
D19*
X91440000Y-83185000D03*
X91440000Y-80645000D03*
X91440000Y-78105000D03*
X91440000Y-75565000D03*
D20*
X111760000Y-57284000D03*
X111760000Y-58584000D03*
X111760000Y-59884000D03*
X111760000Y-61184000D03*
X111760000Y-62484000D03*
X111760000Y-77343000D03*
X111760000Y-76043000D03*
X111760000Y-74743000D03*
X111760000Y-73443000D03*
X111760000Y-72143000D03*
X109982000Y-72106000D03*
X109982000Y-73406000D03*
X109982000Y-57277000D03*
X109982000Y-58577000D03*
X109982000Y-76043000D03*
X109982000Y-77343000D03*
X109982000Y-62484000D03*
X109982000Y-61184000D03*
D21*
X106174540Y-82163920D03*
X93337380Y-68267580D03*
X106786680Y-55463438D03*
X102831900Y-62806580D03*
X104914424Y-60924269D03*
X99598302Y-61002403D03*
X101455220Y-61033660D03*
X100667821Y-58696860D03*
X91744800Y-57170320D03*
X97061020Y-59448700D03*
X92090240Y-59425840D03*
X97564914Y-52763597D03*
X98064972Y-82001856D03*
X93345000Y-40513000D03*
X93345000Y-42545000D03*
X89560400Y-60020200D03*
X91795600Y-64312800D03*
X98983800Y-71297800D03*
X91516200Y-70002400D03*
X89052400Y-74371200D03*
X102565200Y-81915000D03*
X108585000Y-79248000D03*
X103860600Y-64668400D03*
X105410000Y-47980600D03*
X101624000Y-36830000D03*
X93776800Y-35179000D03*
X95707200Y-35153600D03*
X93370400Y-41579800D03*
X103555800Y-48107600D03*
X105714800Y-45466000D03*
X105181400Y-38811200D03*
X102438200Y-40106600D03*
X101854000Y-43002200D03*
X96520000Y-41275000D03*
X97078800Y-45186600D03*
X93726000Y-45593000D03*
X102952412Y-61169059D03*
X95663115Y-55328512D03*
X92557600Y-67480180D03*
X103524295Y-62079570D03*
X102673543Y-59702757D03*
X95072200Y-52628798D03*
X105410000Y-51181000D03*
X96031236Y-80562636D03*
X102239998Y-83693000D03*
X97903915Y-83629115D03*
X91215841Y-63461199D03*
X90728800Y-67716400D03*
X96838737Y-64779026D03*
X101142800Y-66167000D03*
X107467400Y-56362600D03*
X96062800Y-73914000D03*
X97332800Y-76327000D03*
X105816400Y-43815000D03*
X100330000Y-48895000D03*
X101751000Y-49760000D03*
X100330000Y-51181000D03*
X95250000Y-48056800D03*
X94742000Y-50038000D03*
X103378000Y-70993000D03*
X98298000Y-66294000D03*
X92252800Y-69138712D03*
X98679000Y-64236600D03*
X95351600Y-63423800D03*
X96354103Y-63903854D03*
X101092000Y-67564000D03*
X104135663Y-54636960D03*
X105234740Y-54785260D03*
X92665234Y-64806522D03*
X96393000Y-60295618D03*
X97901188Y-53705364D03*
X99852299Y-58114757D03*
X96398080Y-52578000D03*
X100520515Y-61389117D03*
X98297891Y-60295619D03*
X102870000Y-53502560D03*
X104355900Y-53086000D03*
X94445663Y-61842789D03*
X102362000Y-71247000D03*
X105791000Y-61468000D03*
X109347000Y-64770000D03*
X107823000Y-65278000D03*
X105029000Y-63627000D03*
X107823000Y-73533000D03*
X106553000Y-66294000D03*
X103722452Y-69258151D03*
D22*
G36*
X112320000Y-44848984D02*
X112013490Y-44513179D01*
X111484027Y-44265032D01*
X111252000Y-44385531D01*
X111252000Y-45593000D01*
X111272000Y-45593000D01*
X111272000Y-45847000D01*
X111252000Y-45847000D01*
X111252000Y-45867000D01*
X110998000Y-45867000D01*
X110998000Y-45847000D01*
X108712000Y-45847000D01*
X108712000Y-45867000D01*
X108458000Y-45867000D01*
X108458000Y-45847000D01*
X107251183Y-45847000D01*
X107130042Y-46079026D01*
X107302312Y-46494947D01*
X107696510Y-46926821D01*
X107819228Y-46984336D01*
X107495971Y-47200330D01*
X107171115Y-47686511D01*
X107057041Y-48260000D01*
X107171115Y-48833489D01*
X107495971Y-49319670D01*
X107781553Y-49510490D01*
X107737220Y-49528808D01*
X107315290Y-49950003D01*
X107086661Y-50500602D01*
X107086141Y-51096782D01*
X107313808Y-51647780D01*
X107735003Y-52069710D01*
X108285602Y-52298339D01*
X108881782Y-52298859D01*
X109432780Y-52071192D01*
X109854710Y-51649997D01*
X109870486Y-51612004D01*
X110035971Y-51859670D01*
X110522152Y-52184526D01*
X111095641Y-52298600D01*
X111154359Y-52298600D01*
X111727848Y-52184526D01*
X112214029Y-51859670D01*
X112320000Y-51701073D01*
X112320000Y-56233433D01*
X111996745Y-56099206D01*
X111525323Y-56098794D01*
X111089628Y-56278820D01*
X110874411Y-56493662D01*
X110654125Y-56272991D01*
X110218745Y-56092206D01*
X109747323Y-56091794D01*
X109311628Y-56271820D01*
X108977991Y-56604875D01*
X108797206Y-57040255D01*
X108796794Y-57511677D01*
X108976820Y-57947372D01*
X108991811Y-57962390D01*
X108935299Y-57973508D01*
X108784028Y-58420001D01*
X108815137Y-58890396D01*
X108935299Y-59180492D01*
X109155567Y-59223828D01*
X109802395Y-58577000D01*
X109788253Y-58562858D01*
X109889190Y-58461920D01*
X110074972Y-58462082D01*
X110175748Y-58562858D01*
X110161605Y-58577000D01*
X110175748Y-58591143D01*
X109996143Y-58770748D01*
X109982000Y-58756605D01*
X109335172Y-59403433D01*
X109378508Y-59623701D01*
X109825001Y-59774972D01*
X110295396Y-59743863D01*
X110584881Y-59623954D01*
X110575206Y-59647255D01*
X110574794Y-60118677D01*
X110588946Y-60152926D01*
X110218745Y-59999206D01*
X109747323Y-59998794D01*
X109311628Y-60178820D01*
X108977991Y-60511875D01*
X108797206Y-60947255D01*
X108796794Y-61418677D01*
X108976820Y-61854372D01*
X108991811Y-61869390D01*
X108935299Y-61880508D01*
X108784028Y-62327001D01*
X108815137Y-62797396D01*
X108935299Y-63087492D01*
X109155567Y-63130828D01*
X109802395Y-62484000D01*
X109788253Y-62469858D01*
X109889190Y-62368920D01*
X110074972Y-62369082D01*
X110175748Y-62469858D01*
X110161605Y-62484000D01*
X110700491Y-63022886D01*
X110754820Y-63154372D01*
X111087875Y-63488009D01*
X111523255Y-63668794D01*
X111994677Y-63669206D01*
X112320000Y-63534785D01*
X112320000Y-71092433D01*
X111996745Y-70958206D01*
X111525323Y-70957794D01*
X111089628Y-71137820D01*
X110889411Y-71337688D01*
X110654125Y-71101991D01*
X110218745Y-70921206D01*
X109747323Y-70920794D01*
X109311628Y-71100820D01*
X108977991Y-71433875D01*
X108797206Y-71869255D01*
X108796794Y-72340677D01*
X108976820Y-72776372D01*
X108991811Y-72791390D01*
X108935299Y-72802508D01*
X108802724Y-73193817D01*
X108700942Y-72947485D01*
X108410046Y-72656081D01*
X108029777Y-72498180D01*
X107618029Y-72497821D01*
X107237485Y-72655058D01*
X106946081Y-72945954D01*
X106788180Y-73326223D01*
X106787821Y-73737971D01*
X106945058Y-74118515D01*
X107235954Y-74409919D01*
X107616223Y-74567820D01*
X108027971Y-74568179D01*
X108408515Y-74410942D01*
X108699919Y-74120046D01*
X108840678Y-73781058D01*
X108935299Y-74009492D01*
X109155567Y-74052828D01*
X109802395Y-73406000D01*
X109788253Y-73391858D01*
X109889190Y-73290920D01*
X110074972Y-73291082D01*
X110175748Y-73391858D01*
X110161605Y-73406000D01*
X110175748Y-73420143D01*
X109996143Y-73599748D01*
X109982000Y-73585605D01*
X109335172Y-74232433D01*
X109378508Y-74452701D01*
X109825001Y-74603972D01*
X110295396Y-74572863D01*
X110585492Y-74452701D01*
X110628828Y-74232436D01*
X110671279Y-74274887D01*
X110575206Y-74506255D01*
X110574794Y-74977677D01*
X110588946Y-75011926D01*
X110218745Y-74858206D01*
X109747323Y-74857794D01*
X109311628Y-75037820D01*
X108977991Y-75370875D01*
X108797206Y-75806255D01*
X108796794Y-76277677D01*
X108976820Y-76713372D01*
X108991811Y-76728390D01*
X108935299Y-76739508D01*
X108784028Y-77186001D01*
X108815137Y-77656396D01*
X108935299Y-77946492D01*
X109155567Y-77989828D01*
X109802395Y-77343000D01*
X109788253Y-77328858D01*
X109889190Y-77227920D01*
X110074972Y-77228082D01*
X110175748Y-77328858D01*
X110161605Y-77343000D01*
X110700491Y-77881886D01*
X110754820Y-78013372D01*
X111087875Y-78347009D01*
X111523255Y-78527794D01*
X111994677Y-78528206D01*
X112320000Y-78393785D01*
X112320000Y-79474374D01*
X111789155Y-79119675D01*
X111157345Y-78994000D01*
X111092655Y-78994000D01*
X110460845Y-79119675D01*
X109925222Y-79477567D01*
X109567330Y-80013190D01*
X109441655Y-80645000D01*
X109567330Y-81276810D01*
X109793872Y-81615854D01*
X109651191Y-81711191D01*
X109510843Y-81921235D01*
X109461560Y-82169000D01*
X109461560Y-84201000D01*
X109497165Y-84380000D01*
X103016788Y-84380000D01*
X103116917Y-84280046D01*
X103274818Y-83899777D01*
X103275177Y-83488029D01*
X103117940Y-83107485D01*
X102827044Y-82816081D01*
X102446775Y-82658180D01*
X102035027Y-82657821D01*
X101654483Y-82815058D01*
X101363079Y-83105954D01*
X101205178Y-83486223D01*
X101204819Y-83897971D01*
X101362056Y-84278515D01*
X101463364Y-84380000D01*
X98616709Y-84380000D01*
X98780834Y-84216161D01*
X98938735Y-83835892D01*
X98939094Y-83424144D01*
X98781857Y-83043600D01*
X98490961Y-82752196D01*
X98110692Y-82594295D01*
X97698944Y-82593936D01*
X97318400Y-82751173D01*
X97026996Y-83042069D01*
X96869095Y-83422338D01*
X96868736Y-83834086D01*
X97025973Y-84214630D01*
X97191055Y-84380000D01*
X92462835Y-84380000D01*
X92790732Y-84087036D01*
X93044709Y-83559791D01*
X93047358Y-83544026D01*
X92926217Y-83312000D01*
X91567000Y-83312000D01*
X91567000Y-83332000D01*
X91313000Y-83332000D01*
X91313000Y-83312000D01*
X89953783Y-83312000D01*
X89832642Y-83544026D01*
X89835291Y-83559791D01*
X90089268Y-84087036D01*
X90417165Y-84380000D01*
X88340000Y-84380000D01*
X88340000Y-75565000D01*
X89756655Y-75565000D01*
X89870729Y-76138489D01*
X90195585Y-76624670D01*
X90510366Y-76835000D01*
X90195585Y-77045330D01*
X89870729Y-77531511D01*
X89756655Y-78105000D01*
X89870729Y-78678489D01*
X90195585Y-79164670D01*
X90510366Y-79375000D01*
X90195585Y-79585330D01*
X89870729Y-80071511D01*
X89756655Y-80645000D01*
X89870729Y-81218489D01*
X90195585Y-81704670D01*
X90505069Y-81911461D01*
X90089268Y-82282964D01*
X89835291Y-82810209D01*
X89832642Y-82825974D01*
X89953783Y-83058000D01*
X91313000Y-83058000D01*
X91313000Y-83038000D01*
X91567000Y-83038000D01*
X91567000Y-83058000D01*
X92926217Y-83058000D01*
X93047358Y-82825974D01*
X93044709Y-82810209D01*
X92790732Y-82282964D01*
X92374931Y-81911461D01*
X92684415Y-81704670D01*
X93009271Y-81218489D01*
X93098956Y-80767607D01*
X94996057Y-80767607D01*
X95153294Y-81148151D01*
X95444190Y-81439555D01*
X95824459Y-81597456D01*
X96236207Y-81597815D01*
X96616751Y-81440578D01*
X96908155Y-81149682D01*
X97066056Y-80769413D01*
X97066415Y-80357665D01*
X96909178Y-79977121D01*
X96618282Y-79685717D01*
X96238013Y-79527816D01*
X95826265Y-79527457D01*
X95445721Y-79684694D01*
X95154317Y-79975590D01*
X94996416Y-80355859D01*
X94996057Y-80767607D01*
X93098956Y-80767607D01*
X93123345Y-80645000D01*
X93009271Y-80071511D01*
X92684415Y-79585330D01*
X92369634Y-79375000D01*
X92684415Y-79164670D01*
X93009271Y-78678489D01*
X93110528Y-78169433D01*
X109335172Y-78169433D01*
X109378508Y-78389701D01*
X109825001Y-78540972D01*
X110295396Y-78509863D01*
X110585492Y-78389701D01*
X110628828Y-78169433D01*
X109982000Y-77522605D01*
X109335172Y-78169433D01*
X93110528Y-78169433D01*
X93123345Y-78105000D01*
X93009271Y-77531511D01*
X92684415Y-77045330D01*
X92369634Y-76835000D01*
X92684415Y-76624670D01*
X92746354Y-76531971D01*
X96297621Y-76531971D01*
X96454858Y-76912515D01*
X96745754Y-77203919D01*
X97126023Y-77361820D01*
X97537771Y-77362179D01*
X97918315Y-77204942D01*
X98209719Y-76914046D01*
X98367620Y-76533777D01*
X98367979Y-76122029D01*
X98210742Y-75741485D01*
X97919846Y-75450081D01*
X97539577Y-75292180D01*
X97127829Y-75291821D01*
X96747285Y-75449058D01*
X96455881Y-75739954D01*
X96297980Y-76120223D01*
X96297621Y-76531971D01*
X92746354Y-76531971D01*
X93009271Y-76138489D01*
X93123345Y-75565000D01*
X93009271Y-74991511D01*
X92684415Y-74505330D01*
X92198234Y-74180474D01*
X91889038Y-74118971D01*
X95027621Y-74118971D01*
X95184858Y-74499515D01*
X95475754Y-74790919D01*
X95856023Y-74948820D01*
X96267771Y-74949179D01*
X96648315Y-74791942D01*
X96939719Y-74501046D01*
X97097620Y-74120777D01*
X97097979Y-73709029D01*
X96940742Y-73328485D01*
X96649846Y-73037081D01*
X96269577Y-72879180D01*
X95857829Y-72878821D01*
X95477285Y-73036058D01*
X95185881Y-73326954D01*
X95027980Y-73707223D01*
X95027621Y-74118971D01*
X91889038Y-74118971D01*
X91624745Y-74066400D01*
X91255255Y-74066400D01*
X90681766Y-74180474D01*
X90195585Y-74505330D01*
X89870729Y-74991511D01*
X89756655Y-75565000D01*
X88340000Y-75565000D01*
X88340000Y-71451971D01*
X101326821Y-71451971D01*
X101484058Y-71832515D01*
X101774954Y-72123919D01*
X102155223Y-72281820D01*
X102566971Y-72282179D01*
X102947515Y-72124942D01*
X103081943Y-71990748D01*
X103171223Y-72027820D01*
X103582971Y-72028179D01*
X103963515Y-71870942D01*
X104254919Y-71580046D01*
X104412820Y-71199777D01*
X104413179Y-70788029D01*
X104255942Y-70407485D01*
X104079329Y-70230564D01*
X104307967Y-70136093D01*
X104599371Y-69845197D01*
X104757272Y-69464928D01*
X104757631Y-69053180D01*
X104600394Y-68672636D01*
X104309498Y-68381232D01*
X103929229Y-68223331D01*
X103517481Y-68222972D01*
X103136937Y-68380209D01*
X102845533Y-68671105D01*
X102687632Y-69051374D01*
X102687273Y-69463122D01*
X102844510Y-69843666D01*
X103021123Y-70020587D01*
X102792485Y-70115058D01*
X102658057Y-70249252D01*
X102568777Y-70212180D01*
X102157029Y-70211821D01*
X101776485Y-70369058D01*
X101485081Y-70659954D01*
X101327180Y-71040223D01*
X101326821Y-71451971D01*
X88340000Y-71451971D01*
X88340000Y-67921371D01*
X89693621Y-67921371D01*
X89850858Y-68301915D01*
X90141754Y-68593319D01*
X90522023Y-68751220D01*
X90933771Y-68751579D01*
X91314315Y-68594342D01*
X91605719Y-68303446D01*
X91697161Y-68083229D01*
X91813913Y-68200185D01*
X91667285Y-68260770D01*
X91375881Y-68551666D01*
X91217980Y-68931935D01*
X91217621Y-69343683D01*
X91374858Y-69724227D01*
X91665754Y-70015631D01*
X92046023Y-70173532D01*
X92457771Y-70173891D01*
X92838315Y-70016654D01*
X93129719Y-69725758D01*
X93287620Y-69345489D01*
X93287979Y-68933741D01*
X93130742Y-68553197D01*
X92996487Y-68418707D01*
X93143115Y-68358122D01*
X93434519Y-68067226D01*
X93558364Y-67768971D01*
X100056821Y-67768971D01*
X100214058Y-68149515D01*
X100504954Y-68440919D01*
X100885223Y-68598820D01*
X101296971Y-68599179D01*
X101677515Y-68441942D01*
X101968919Y-68151046D01*
X102126820Y-67770777D01*
X102127179Y-67359029D01*
X101969942Y-66978485D01*
X101882568Y-66890958D01*
X102019719Y-66754046D01*
X102125635Y-66498971D01*
X105517821Y-66498971D01*
X105675058Y-66879515D01*
X105965954Y-67170919D01*
X106346223Y-67328820D01*
X106757971Y-67329179D01*
X107138515Y-67171942D01*
X107429919Y-66881046D01*
X107587820Y-66500777D01*
X107587994Y-66301098D01*
X107616223Y-66312820D01*
X108027971Y-66313179D01*
X108408515Y-66155942D01*
X108699919Y-65865046D01*
X108786002Y-65657735D01*
X109140223Y-65804820D01*
X109551971Y-65805179D01*
X109932515Y-65647942D01*
X110223919Y-65357046D01*
X110381820Y-64976777D01*
X110382179Y-64565029D01*
X110224942Y-64184485D01*
X109934046Y-63893081D01*
X109553777Y-63735180D01*
X109142029Y-63734821D01*
X108761485Y-63892058D01*
X108470081Y-64182954D01*
X108383998Y-64390265D01*
X108029777Y-64243180D01*
X107618029Y-64242821D01*
X107237485Y-64400058D01*
X106946081Y-64690954D01*
X106788180Y-65071223D01*
X106788006Y-65270902D01*
X106759777Y-65259180D01*
X106348029Y-65258821D01*
X105967485Y-65416058D01*
X105676081Y-65706954D01*
X105518180Y-66087223D01*
X105517821Y-66498971D01*
X102125635Y-66498971D01*
X102177620Y-66373777D01*
X102177979Y-65962029D01*
X102020742Y-65581485D01*
X101729846Y-65290081D01*
X101349577Y-65132180D01*
X100937829Y-65131821D01*
X100557285Y-65289058D01*
X100265881Y-65579954D01*
X100107980Y-65960223D01*
X100107621Y-66371971D01*
X100264858Y-66752515D01*
X100352232Y-66840042D01*
X100215081Y-66976954D01*
X100057180Y-67357223D01*
X100056821Y-67768971D01*
X93558364Y-67768971D01*
X93592420Y-67686957D01*
X93592779Y-67275209D01*
X93435542Y-66894665D01*
X93144646Y-66603261D01*
X92764377Y-66445360D01*
X92352629Y-66445001D01*
X91972085Y-66602238D01*
X91680681Y-66893134D01*
X91589239Y-67113351D01*
X91315846Y-66839481D01*
X90935577Y-66681580D01*
X90523829Y-66681221D01*
X90143285Y-66838458D01*
X89851881Y-67129354D01*
X89693980Y-67509623D01*
X89693621Y-67921371D01*
X88340000Y-67921371D01*
X88340000Y-63666170D01*
X90180662Y-63666170D01*
X90337899Y-64046714D01*
X90628795Y-64338118D01*
X91009064Y-64496019D01*
X91420812Y-64496378D01*
X91725634Y-64370428D01*
X91630414Y-64599745D01*
X91630055Y-65011493D01*
X91787292Y-65392037D01*
X92078188Y-65683441D01*
X92458457Y-65841342D01*
X92870205Y-65841701D01*
X93250749Y-65684464D01*
X93542153Y-65393568D01*
X93700054Y-65013299D01*
X93700413Y-64601551D01*
X93543176Y-64221007D01*
X93252280Y-63929603D01*
X92872011Y-63771702D01*
X92460263Y-63771343D01*
X92155441Y-63897293D01*
X92250661Y-63667976D01*
X92251020Y-63256228D01*
X92093783Y-62875684D01*
X91802887Y-62584280D01*
X91422618Y-62426379D01*
X91010870Y-62426020D01*
X90630326Y-62583257D01*
X90338922Y-62874153D01*
X90181021Y-63254422D01*
X90180662Y-63666170D01*
X88340000Y-63666170D01*
X88340000Y-62047760D01*
X93410484Y-62047760D01*
X93567721Y-62428304D01*
X93858617Y-62719708D01*
X94238886Y-62877609D01*
X94457637Y-62877800D01*
X94316780Y-63217023D01*
X94316421Y-63628771D01*
X94473658Y-64009315D01*
X94764554Y-64300719D01*
X95144823Y-64458620D01*
X95463571Y-64458898D01*
X95476161Y-64489369D01*
X95767057Y-64780773D01*
X95803722Y-64795998D01*
X95803558Y-64983997D01*
X95960795Y-65364541D01*
X96251691Y-65655945D01*
X96631960Y-65813846D01*
X97043708Y-65814205D01*
X97424252Y-65656968D01*
X97715656Y-65366072D01*
X97873557Y-64985803D01*
X97873636Y-64894820D01*
X98091954Y-65113519D01*
X98442615Y-65259126D01*
X98093029Y-65258821D01*
X97712485Y-65416058D01*
X97421081Y-65706954D01*
X97263180Y-66087223D01*
X97262821Y-66498971D01*
X97420058Y-66879515D01*
X97710954Y-67170919D01*
X98091223Y-67328820D01*
X98502971Y-67329179D01*
X98883515Y-67171942D01*
X99174919Y-66881046D01*
X99332820Y-66500777D01*
X99333179Y-66089029D01*
X99175942Y-65708485D01*
X98885046Y-65417081D01*
X98534385Y-65271474D01*
X98883971Y-65271779D01*
X99264515Y-65114542D01*
X99555919Y-64823646D01*
X99713820Y-64443377D01*
X99714179Y-64031629D01*
X99631683Y-63831971D01*
X103993821Y-63831971D01*
X104151058Y-64212515D01*
X104441954Y-64503919D01*
X104822223Y-64661820D01*
X105233971Y-64662179D01*
X105614515Y-64504942D01*
X105905919Y-64214046D01*
X106063820Y-63833777D01*
X106064179Y-63422029D01*
X106018069Y-63310433D01*
X109335172Y-63310433D01*
X109378508Y-63530701D01*
X109825001Y-63681972D01*
X110295396Y-63650863D01*
X110585492Y-63530701D01*
X110628828Y-63310433D01*
X109982000Y-62663605D01*
X109335172Y-63310433D01*
X106018069Y-63310433D01*
X105906942Y-63041485D01*
X105616046Y-62750081D01*
X105235777Y-62592180D01*
X104824029Y-62591821D01*
X104443485Y-62749058D01*
X104152081Y-63039954D01*
X103994180Y-63420223D01*
X103993821Y-63831971D01*
X99631683Y-63831971D01*
X99556942Y-63651085D01*
X99266046Y-63359681D01*
X98885777Y-63201780D01*
X98474029Y-63201421D01*
X98093485Y-63358658D01*
X97802081Y-63649554D01*
X97644180Y-64029823D01*
X97644101Y-64120806D01*
X97425783Y-63902107D01*
X97389118Y-63886882D01*
X97389282Y-63698883D01*
X97232045Y-63318339D01*
X96941149Y-63026935D01*
X96560880Y-62869034D01*
X96242132Y-62868756D01*
X96229542Y-62838285D01*
X95938646Y-62546881D01*
X95558377Y-62388980D01*
X95339626Y-62388789D01*
X95480483Y-62049566D01*
X95480842Y-61637818D01*
X95462774Y-61594088D01*
X99485336Y-61594088D01*
X99642573Y-61974632D01*
X99933469Y-62266036D01*
X100313738Y-62423937D01*
X100725486Y-62424296D01*
X101106030Y-62267059D01*
X101397434Y-61976163D01*
X101555335Y-61595894D01*
X101555694Y-61184146D01*
X101398457Y-60803602D01*
X101107561Y-60512198D01*
X100727292Y-60354297D01*
X100315544Y-60353938D01*
X99935000Y-60511175D01*
X99643596Y-60802071D01*
X99485695Y-61182340D01*
X99485336Y-61594088D01*
X95462774Y-61594088D01*
X95323605Y-61257274D01*
X95032709Y-60965870D01*
X94652440Y-60807969D01*
X94240692Y-60807610D01*
X93860148Y-60964847D01*
X93568744Y-61255743D01*
X93410843Y-61636012D01*
X93410484Y-62047760D01*
X88340000Y-62047760D01*
X88340000Y-60500589D01*
X95357821Y-60500589D01*
X95515058Y-60881133D01*
X95805954Y-61172537D01*
X96186223Y-61330438D01*
X96597971Y-61330797D01*
X96978515Y-61173560D01*
X97269919Y-60882664D01*
X97345436Y-60700798D01*
X97419949Y-60881134D01*
X97710845Y-61172538D01*
X98091114Y-61330439D01*
X98502862Y-61330798D01*
X98883406Y-61173561D01*
X99174810Y-60882665D01*
X99332711Y-60502396D01*
X99333070Y-60090648D01*
X99257490Y-59907728D01*
X101638364Y-59907728D01*
X101795601Y-60288272D01*
X102082173Y-60575345D01*
X102075493Y-60582013D01*
X101917592Y-60962282D01*
X101917233Y-61374030D01*
X102074470Y-61754574D01*
X102365366Y-62045978D01*
X102489279Y-62097431D01*
X102489116Y-62284541D01*
X102646353Y-62665085D01*
X102937249Y-62956489D01*
X103317518Y-63114390D01*
X103729266Y-63114749D01*
X104109810Y-62957512D01*
X104401214Y-62666616D01*
X104559115Y-62286347D01*
X104559474Y-61874599D01*
X104476164Y-61672971D01*
X104755821Y-61672971D01*
X104913058Y-62053515D01*
X105203954Y-62344919D01*
X105584223Y-62502820D01*
X105995971Y-62503179D01*
X106376515Y-62345942D01*
X106667919Y-62055046D01*
X106825820Y-61674777D01*
X106826179Y-61263029D01*
X106668942Y-60882485D01*
X106378046Y-60591081D01*
X105997777Y-60433180D01*
X105586029Y-60432821D01*
X105205485Y-60590058D01*
X104914081Y-60880954D01*
X104756180Y-61261223D01*
X104755821Y-61672971D01*
X104476164Y-61672971D01*
X104402237Y-61494055D01*
X104111341Y-61202651D01*
X103987428Y-61151198D01*
X103987591Y-60964088D01*
X103830354Y-60583544D01*
X103543782Y-60296471D01*
X103550462Y-60289803D01*
X103708363Y-59909534D01*
X103708722Y-59497786D01*
X103551485Y-59117242D01*
X103260589Y-58825838D01*
X102880320Y-58667937D01*
X102468572Y-58667578D01*
X102088028Y-58824815D01*
X101796624Y-59115711D01*
X101638723Y-59495980D01*
X101638364Y-59907728D01*
X99257490Y-59907728D01*
X99175833Y-59710104D01*
X98884937Y-59418700D01*
X98504668Y-59260799D01*
X98092920Y-59260440D01*
X97712376Y-59417677D01*
X97420972Y-59708573D01*
X97345455Y-59890439D01*
X97270942Y-59710103D01*
X96980046Y-59418699D01*
X96599777Y-59260798D01*
X96188029Y-59260439D01*
X95807485Y-59417676D01*
X95516081Y-59708572D01*
X95358180Y-60088841D01*
X95357821Y-60500589D01*
X88340000Y-60500589D01*
X88340000Y-58319728D01*
X98817120Y-58319728D01*
X98974357Y-58700272D01*
X99265253Y-58991676D01*
X99645522Y-59149577D01*
X100057270Y-59149936D01*
X100437814Y-58992699D01*
X100729218Y-58701803D01*
X100887119Y-58321534D01*
X100887478Y-57909786D01*
X100730241Y-57529242D01*
X100439345Y-57237838D01*
X100059076Y-57079937D01*
X99647328Y-57079578D01*
X99266784Y-57236815D01*
X98975380Y-57527711D01*
X98817479Y-57907980D01*
X98817120Y-58319728D01*
X88340000Y-58319728D01*
X88340000Y-56567571D01*
X106432221Y-56567571D01*
X106589458Y-56948115D01*
X106880354Y-57239519D01*
X107260623Y-57397420D01*
X107672371Y-57397779D01*
X108052915Y-57240542D01*
X108344319Y-56949646D01*
X108502220Y-56569377D01*
X108502579Y-56157629D01*
X108345342Y-55777085D01*
X108054446Y-55485681D01*
X107674177Y-55327780D01*
X107262429Y-55327421D01*
X106881885Y-55484658D01*
X106590481Y-55775554D01*
X106432580Y-56155823D01*
X106432221Y-56567571D01*
X88340000Y-56567571D01*
X88340000Y-55533483D01*
X94627936Y-55533483D01*
X94785173Y-55914027D01*
X95076069Y-56205431D01*
X95456338Y-56363332D01*
X95868086Y-56363691D01*
X96248630Y-56206454D01*
X96540034Y-55915558D01*
X96697935Y-55535289D01*
X96698294Y-55123541D01*
X96541057Y-54742997D01*
X96250161Y-54451593D01*
X95869892Y-54293692D01*
X95458144Y-54293333D01*
X95077600Y-54450570D01*
X94786196Y-54741466D01*
X94628295Y-55121735D01*
X94627936Y-55533483D01*
X88340000Y-55533483D01*
X88340000Y-53645893D01*
X90093552Y-53645893D01*
X90258386Y-54044820D01*
X90563335Y-54350302D01*
X90961973Y-54515831D01*
X91393613Y-54516208D01*
X91792540Y-54351374D01*
X92098022Y-54046425D01*
X92263551Y-53647787D01*
X92263928Y-53216147D01*
X92105932Y-52833769D01*
X94037021Y-52833769D01*
X94194258Y-53214313D01*
X94485154Y-53505717D01*
X94865423Y-53663618D01*
X95277171Y-53663977D01*
X95657715Y-53506740D01*
X95760419Y-53404215D01*
X95811034Y-53454919D01*
X96191303Y-53612820D01*
X96603051Y-53613179D01*
X96866363Y-53504381D01*
X96866009Y-53910335D01*
X97023246Y-54290879D01*
X97314142Y-54582283D01*
X97694411Y-54740184D01*
X98106159Y-54740543D01*
X98486703Y-54583306D01*
X98778107Y-54292410D01*
X98936008Y-53912141D01*
X98936186Y-53707531D01*
X101834821Y-53707531D01*
X101992058Y-54088075D01*
X102282954Y-54379479D01*
X102663223Y-54537380D01*
X103074971Y-54537739D01*
X103100759Y-54527084D01*
X103100484Y-54841931D01*
X103257721Y-55222475D01*
X103548617Y-55513879D01*
X103928886Y-55671780D01*
X104340634Y-55672139D01*
X104565065Y-55579406D01*
X104647694Y-55662179D01*
X105027963Y-55820080D01*
X105439711Y-55820439D01*
X105820255Y-55663202D01*
X106111659Y-55372306D01*
X106269560Y-54992037D01*
X106269919Y-54580289D01*
X106112682Y-54199745D01*
X105821786Y-53908341D01*
X105441517Y-53750440D01*
X105155540Y-53750191D01*
X105232819Y-53673046D01*
X105390720Y-53292777D01*
X105391079Y-52881029D01*
X105233842Y-52500485D01*
X104942946Y-52209081D01*
X104562677Y-52051180D01*
X104150929Y-52050821D01*
X103770385Y-52208058D01*
X103478981Y-52498954D01*
X103430887Y-52614779D01*
X103076777Y-52467740D01*
X102665029Y-52467381D01*
X102284485Y-52624618D01*
X101993081Y-52915514D01*
X101835180Y-53295783D01*
X101834821Y-53707531D01*
X98936186Y-53707531D01*
X98936367Y-53500393D01*
X98779130Y-53119849D01*
X98488234Y-52828445D01*
X98107965Y-52670544D01*
X97696217Y-52670185D01*
X97432905Y-52778983D01*
X97433259Y-52373029D01*
X97276022Y-51992485D01*
X96985126Y-51701081D01*
X96604857Y-51543180D01*
X96193109Y-51542821D01*
X95812565Y-51700058D01*
X95709861Y-51802583D01*
X95659246Y-51751879D01*
X95278977Y-51593978D01*
X94867229Y-51593619D01*
X94486685Y-51750856D01*
X94195281Y-52041752D01*
X94037380Y-52422021D01*
X94037021Y-52833769D01*
X92105932Y-52833769D01*
X92099094Y-52817220D01*
X91794145Y-52511738D01*
X91395507Y-52346209D01*
X90963867Y-52345832D01*
X90564940Y-52510666D01*
X90259458Y-52815615D01*
X90093929Y-53214253D01*
X90093552Y-53645893D01*
X88340000Y-53645893D01*
X88340000Y-50242971D01*
X93706821Y-50242971D01*
X93864058Y-50623515D01*
X94154954Y-50914919D01*
X94535223Y-51072820D01*
X94946971Y-51073179D01*
X95327515Y-50915942D01*
X95618919Y-50625046D01*
X95776820Y-50244777D01*
X95777179Y-49833029D01*
X95619942Y-49452485D01*
X95329046Y-49161081D01*
X95181876Y-49099971D01*
X99294821Y-49099971D01*
X99452058Y-49480515D01*
X99742954Y-49771919D01*
X100123223Y-49929820D01*
X100534971Y-49930179D01*
X100715917Y-49855414D01*
X100715821Y-49964971D01*
X100843282Y-50273452D01*
X100536777Y-50146180D01*
X100125029Y-50145821D01*
X99744485Y-50303058D01*
X99453081Y-50593954D01*
X99295180Y-50974223D01*
X99294821Y-51385971D01*
X99452058Y-51766515D01*
X99742954Y-52057919D01*
X100123223Y-52215820D01*
X100534971Y-52216179D01*
X100915515Y-52058942D01*
X101206919Y-51768046D01*
X101364820Y-51387777D01*
X101364821Y-51385971D01*
X104374821Y-51385971D01*
X104532058Y-51766515D01*
X104822954Y-52057919D01*
X105203223Y-52215820D01*
X105614971Y-52216179D01*
X105995515Y-52058942D01*
X106286919Y-51768046D01*
X106444820Y-51387777D01*
X106445179Y-50976029D01*
X106287942Y-50595485D01*
X105997046Y-50304081D01*
X105616777Y-50146180D01*
X105205029Y-50145821D01*
X104824485Y-50303058D01*
X104533081Y-50593954D01*
X104375180Y-50974223D01*
X104374821Y-51385971D01*
X101364821Y-51385971D01*
X101365179Y-50976029D01*
X101237718Y-50667548D01*
X101544223Y-50794820D01*
X101955971Y-50795179D01*
X102336515Y-50637942D01*
X102627919Y-50347046D01*
X102785820Y-49966777D01*
X102786179Y-49555029D01*
X102628942Y-49174485D01*
X102338046Y-48883081D01*
X101957777Y-48725180D01*
X101546029Y-48724821D01*
X101365083Y-48799586D01*
X101365179Y-48690029D01*
X101207942Y-48309485D01*
X100917046Y-48018081D01*
X100536777Y-47860180D01*
X100125029Y-47859821D01*
X99744485Y-48017058D01*
X99453081Y-48307954D01*
X99295180Y-48688223D01*
X99294821Y-49099971D01*
X95181876Y-49099971D01*
X95162014Y-49091724D01*
X95454971Y-49091979D01*
X95835515Y-48934742D01*
X96126919Y-48643846D01*
X96284820Y-48263577D01*
X96285179Y-47851829D01*
X96127942Y-47471285D01*
X95837046Y-47179881D01*
X95456777Y-47021980D01*
X95045029Y-47021621D01*
X94664485Y-47178858D01*
X94373081Y-47469754D01*
X94215180Y-47850023D01*
X94214821Y-48261771D01*
X94372058Y-48642315D01*
X94662954Y-48933719D01*
X94829986Y-49003076D01*
X94537029Y-49002821D01*
X94156485Y-49160058D01*
X93865081Y-49450954D01*
X93707180Y-49831223D01*
X93706821Y-50242971D01*
X88340000Y-50242971D01*
X88340000Y-46845893D01*
X90093552Y-46845893D01*
X90258386Y-47244820D01*
X90563335Y-47550302D01*
X90961973Y-47715831D01*
X91393613Y-47716208D01*
X91792540Y-47551374D01*
X92098022Y-47246425D01*
X92263551Y-46847787D01*
X92263928Y-46416147D01*
X92099094Y-46017220D01*
X91794145Y-45711738D01*
X91395507Y-45546209D01*
X90963867Y-45545832D01*
X90564940Y-45710666D01*
X90259458Y-46015615D01*
X90093929Y-46414253D01*
X90093552Y-46845893D01*
X88340000Y-46845893D01*
X88340000Y-45360974D01*
X107130042Y-45360974D01*
X107251183Y-45593000D01*
X108458000Y-45593000D01*
X108458000Y-44385531D01*
X108712000Y-44385531D01*
X108712000Y-45593000D01*
X110998000Y-45593000D01*
X110998000Y-44385531D01*
X110765973Y-44265032D01*
X110236510Y-44513179D01*
X109855000Y-44931152D01*
X109473490Y-44513179D01*
X108944027Y-44265032D01*
X108712000Y-44385531D01*
X108458000Y-44385531D01*
X108225973Y-44265032D01*
X107696510Y-44513179D01*
X107302312Y-44945053D01*
X107130042Y-45360974D01*
X88340000Y-45360974D01*
X88340000Y-44434917D01*
X88449897Y-44545006D01*
X88986314Y-44767746D01*
X89567138Y-44768253D01*
X90103943Y-44546449D01*
X90515006Y-44136103D01*
X90563228Y-44019971D01*
X104781221Y-44019971D01*
X104938458Y-44400515D01*
X105229354Y-44691919D01*
X105609623Y-44849820D01*
X106021371Y-44850179D01*
X106401915Y-44692942D01*
X106693319Y-44402046D01*
X106851220Y-44021777D01*
X106851579Y-43610029D01*
X106694342Y-43229485D01*
X106403446Y-42938081D01*
X106023177Y-42780180D01*
X105611429Y-42779821D01*
X105230885Y-42937058D01*
X104939481Y-43227954D01*
X104781580Y-43608223D01*
X104781221Y-44019971D01*
X90563228Y-44019971D01*
X90737746Y-43599686D01*
X90738253Y-43018862D01*
X90575707Y-42625470D01*
X90687782Y-42625470D01*
X90879201Y-43088740D01*
X91233335Y-43443493D01*
X91696271Y-43635721D01*
X92197530Y-43636158D01*
X92660800Y-43444739D01*
X93015553Y-43090605D01*
X93207781Y-42627669D01*
X93208218Y-42126410D01*
X93042234Y-41724696D01*
X106990744Y-41724696D01*
X107113353Y-42195701D01*
X107406875Y-42583933D01*
X107826624Y-42830286D01*
X107918391Y-42845462D01*
X108109000Y-42720731D01*
X108109000Y-41529000D01*
X107153453Y-41529000D01*
X106990744Y-41724696D01*
X93042234Y-41724696D01*
X93016799Y-41663140D01*
X92662665Y-41308387D01*
X92199729Y-41116159D01*
X91698470Y-41115722D01*
X91235200Y-41307141D01*
X90880447Y-41661275D01*
X90688219Y-42124211D01*
X90687782Y-42625470D01*
X90575707Y-42625470D01*
X90516449Y-42482057D01*
X90106103Y-42070994D01*
X89569686Y-41848254D01*
X88988862Y-41847747D01*
X88452057Y-42069551D01*
X88340000Y-42181413D01*
X88340000Y-41079304D01*
X106990744Y-41079304D01*
X107153453Y-41275000D01*
X108109000Y-41275000D01*
X108109000Y-40083269D01*
X108363000Y-40083269D01*
X108363000Y-41275000D01*
X108383000Y-41275000D01*
X108383000Y-41529000D01*
X108363000Y-41529000D01*
X108363000Y-42720731D01*
X108553609Y-42845462D01*
X108645376Y-42830286D01*
X109065125Y-42583933D01*
X109080497Y-42563601D01*
X109178191Y-42709809D01*
X109388235Y-42850157D01*
X109636000Y-42899440D01*
X110836000Y-42899440D01*
X111083765Y-42850157D01*
X111293809Y-42709809D01*
X111434157Y-42499765D01*
X111483440Y-42252000D01*
X111483440Y-40552000D01*
X111434157Y-40304235D01*
X111293809Y-40094191D01*
X111083765Y-39953843D01*
X110836000Y-39904560D01*
X109636000Y-39904560D01*
X109388235Y-39953843D01*
X109178191Y-40094191D01*
X109080497Y-40240399D01*
X109065125Y-40220067D01*
X108645376Y-39973714D01*
X108553609Y-39958538D01*
X108363000Y-40083269D01*
X108109000Y-40083269D01*
X107918391Y-39958538D01*
X107826624Y-39973714D01*
X107406875Y-40220067D01*
X107113353Y-40608299D01*
X106990744Y-41079304D01*
X88340000Y-41079304D01*
X88340000Y-37574917D01*
X88449897Y-37685006D01*
X88986314Y-37907746D01*
X89567138Y-37908253D01*
X90103943Y-37686449D01*
X90165028Y-37625470D01*
X90687782Y-37625470D01*
X90879201Y-38088740D01*
X91233335Y-38443493D01*
X91696271Y-38635721D01*
X92197530Y-38636158D01*
X92660800Y-38444739D01*
X93015553Y-38090605D01*
X93207781Y-37627669D01*
X93208218Y-37126410D01*
X93016799Y-36663140D01*
X92662665Y-36308387D01*
X92199729Y-36116159D01*
X91698470Y-36115722D01*
X91235200Y-36307141D01*
X90880447Y-36661275D01*
X90688219Y-37124211D01*
X90687782Y-37625470D01*
X90165028Y-37625470D01*
X90515006Y-37276103D01*
X90737746Y-36739686D01*
X90738253Y-36158862D01*
X90516449Y-35622057D01*
X90106103Y-35210994D01*
X89597973Y-35000000D01*
X112320000Y-35000000D01*
X112320000Y-44848984D01*
X112320000Y-44848984D01*
G37*
X112320000Y-44848984D02*
X112013490Y-44513179D01*
X111484027Y-44265032D01*
X111252000Y-44385531D01*
X111252000Y-45593000D01*
X111272000Y-45593000D01*
X111272000Y-45847000D01*
X111252000Y-45847000D01*
X111252000Y-45867000D01*
X110998000Y-45867000D01*
X110998000Y-45847000D01*
X108712000Y-45847000D01*
X108712000Y-45867000D01*
X108458000Y-45867000D01*
X108458000Y-45847000D01*
X107251183Y-45847000D01*
X107130042Y-46079026D01*
X107302312Y-46494947D01*
X107696510Y-46926821D01*
X107819228Y-46984336D01*
X107495971Y-47200330D01*
X107171115Y-47686511D01*
X107057041Y-48260000D01*
X107171115Y-48833489D01*
X107495971Y-49319670D01*
X107781553Y-49510490D01*
X107737220Y-49528808D01*
X107315290Y-49950003D01*
X107086661Y-50500602D01*
X107086141Y-51096782D01*
X107313808Y-51647780D01*
X107735003Y-52069710D01*
X108285602Y-52298339D01*
X108881782Y-52298859D01*
X109432780Y-52071192D01*
X109854710Y-51649997D01*
X109870486Y-51612004D01*
X110035971Y-51859670D01*
X110522152Y-52184526D01*
X111095641Y-52298600D01*
X111154359Y-52298600D01*
X111727848Y-52184526D01*
X112214029Y-51859670D01*
X112320000Y-51701073D01*
X112320000Y-56233433D01*
X111996745Y-56099206D01*
X111525323Y-56098794D01*
X111089628Y-56278820D01*
X110874411Y-56493662D01*
X110654125Y-56272991D01*
X110218745Y-56092206D01*
X109747323Y-56091794D01*
X109311628Y-56271820D01*
X108977991Y-56604875D01*
X108797206Y-57040255D01*
X108796794Y-57511677D01*
X108976820Y-57947372D01*
X108991811Y-57962390D01*
X108935299Y-57973508D01*
X108784028Y-58420001D01*
X108815137Y-58890396D01*
X108935299Y-59180492D01*
X109155567Y-59223828D01*
X109802395Y-58577000D01*
X109788253Y-58562858D01*
X109889190Y-58461920D01*
X110074972Y-58462082D01*
X110175748Y-58562858D01*
X110161605Y-58577000D01*
X110175748Y-58591143D01*
X109996143Y-58770748D01*
X109982000Y-58756605D01*
X109335172Y-59403433D01*
X109378508Y-59623701D01*
X109825001Y-59774972D01*
X110295396Y-59743863D01*
X110584881Y-59623954D01*
X110575206Y-59647255D01*
X110574794Y-60118677D01*
X110588946Y-60152926D01*
X110218745Y-59999206D01*
X109747323Y-59998794D01*
X109311628Y-60178820D01*
X108977991Y-60511875D01*
X108797206Y-60947255D01*
X108796794Y-61418677D01*
X108976820Y-61854372D01*
X108991811Y-61869390D01*
X108935299Y-61880508D01*
X108784028Y-62327001D01*
X108815137Y-62797396D01*
X108935299Y-63087492D01*
X109155567Y-63130828D01*
X109802395Y-62484000D01*
X109788253Y-62469858D01*
X109889190Y-62368920D01*
X110074972Y-62369082D01*
X110175748Y-62469858D01*
X110161605Y-62484000D01*
X110700491Y-63022886D01*
X110754820Y-63154372D01*
X111087875Y-63488009D01*
X111523255Y-63668794D01*
X111994677Y-63669206D01*
X112320000Y-63534785D01*
X112320000Y-71092433D01*
X111996745Y-70958206D01*
X111525323Y-70957794D01*
X111089628Y-71137820D01*
X110889411Y-71337688D01*
X110654125Y-71101991D01*
X110218745Y-70921206D01*
X109747323Y-70920794D01*
X109311628Y-71100820D01*
X108977991Y-71433875D01*
X108797206Y-71869255D01*
X108796794Y-72340677D01*
X108976820Y-72776372D01*
X108991811Y-72791390D01*
X108935299Y-72802508D01*
X108802724Y-73193817D01*
X108700942Y-72947485D01*
X108410046Y-72656081D01*
X108029777Y-72498180D01*
X107618029Y-72497821D01*
X107237485Y-72655058D01*
X106946081Y-72945954D01*
X106788180Y-73326223D01*
X106787821Y-73737971D01*
X106945058Y-74118515D01*
X107235954Y-74409919D01*
X107616223Y-74567820D01*
X108027971Y-74568179D01*
X108408515Y-74410942D01*
X108699919Y-74120046D01*
X108840678Y-73781058D01*
X108935299Y-74009492D01*
X109155567Y-74052828D01*
X109802395Y-73406000D01*
X109788253Y-73391858D01*
X109889190Y-73290920D01*
X110074972Y-73291082D01*
X110175748Y-73391858D01*
X110161605Y-73406000D01*
X110175748Y-73420143D01*
X109996143Y-73599748D01*
X109982000Y-73585605D01*
X109335172Y-74232433D01*
X109378508Y-74452701D01*
X109825001Y-74603972D01*
X110295396Y-74572863D01*
X110585492Y-74452701D01*
X110628828Y-74232436D01*
X110671279Y-74274887D01*
X110575206Y-74506255D01*
X110574794Y-74977677D01*
X110588946Y-75011926D01*
X110218745Y-74858206D01*
X109747323Y-74857794D01*
X109311628Y-75037820D01*
X108977991Y-75370875D01*
X108797206Y-75806255D01*
X108796794Y-76277677D01*
X108976820Y-76713372D01*
X108991811Y-76728390D01*
X108935299Y-76739508D01*
X108784028Y-77186001D01*
X108815137Y-77656396D01*
X108935299Y-77946492D01*
X109155567Y-77989828D01*
X109802395Y-77343000D01*
X109788253Y-77328858D01*
X109889190Y-77227920D01*
X110074972Y-77228082D01*
X110175748Y-77328858D01*
X110161605Y-77343000D01*
X110700491Y-77881886D01*
X110754820Y-78013372D01*
X111087875Y-78347009D01*
X111523255Y-78527794D01*
X111994677Y-78528206D01*
X112320000Y-78393785D01*
X112320000Y-79474374D01*
X111789155Y-79119675D01*
X111157345Y-78994000D01*
X111092655Y-78994000D01*
X110460845Y-79119675D01*
X109925222Y-79477567D01*
X109567330Y-80013190D01*
X109441655Y-80645000D01*
X109567330Y-81276810D01*
X109793872Y-81615854D01*
X109651191Y-81711191D01*
X109510843Y-81921235D01*
X109461560Y-82169000D01*
X109461560Y-84201000D01*
X109497165Y-84380000D01*
X103016788Y-84380000D01*
X103116917Y-84280046D01*
X103274818Y-83899777D01*
X103275177Y-83488029D01*
X103117940Y-83107485D01*
X102827044Y-82816081D01*
X102446775Y-82658180D01*
X102035027Y-82657821D01*
X101654483Y-82815058D01*
X101363079Y-83105954D01*
X101205178Y-83486223D01*
X101204819Y-83897971D01*
X101362056Y-84278515D01*
X101463364Y-84380000D01*
X98616709Y-84380000D01*
X98780834Y-84216161D01*
X98938735Y-83835892D01*
X98939094Y-83424144D01*
X98781857Y-83043600D01*
X98490961Y-82752196D01*
X98110692Y-82594295D01*
X97698944Y-82593936D01*
X97318400Y-82751173D01*
X97026996Y-83042069D01*
X96869095Y-83422338D01*
X96868736Y-83834086D01*
X97025973Y-84214630D01*
X97191055Y-84380000D01*
X92462835Y-84380000D01*
X92790732Y-84087036D01*
X93044709Y-83559791D01*
X93047358Y-83544026D01*
X92926217Y-83312000D01*
X91567000Y-83312000D01*
X91567000Y-83332000D01*
X91313000Y-83332000D01*
X91313000Y-83312000D01*
X89953783Y-83312000D01*
X89832642Y-83544026D01*
X89835291Y-83559791D01*
X90089268Y-84087036D01*
X90417165Y-84380000D01*
X88340000Y-84380000D01*
X88340000Y-75565000D01*
X89756655Y-75565000D01*
X89870729Y-76138489D01*
X90195585Y-76624670D01*
X90510366Y-76835000D01*
X90195585Y-77045330D01*
X89870729Y-77531511D01*
X89756655Y-78105000D01*
X89870729Y-78678489D01*
X90195585Y-79164670D01*
X90510366Y-79375000D01*
X90195585Y-79585330D01*
X89870729Y-80071511D01*
X89756655Y-80645000D01*
X89870729Y-81218489D01*
X90195585Y-81704670D01*
X90505069Y-81911461D01*
X90089268Y-82282964D01*
X89835291Y-82810209D01*
X89832642Y-82825974D01*
X89953783Y-83058000D01*
X91313000Y-83058000D01*
X91313000Y-83038000D01*
X91567000Y-83038000D01*
X91567000Y-83058000D01*
X92926217Y-83058000D01*
X93047358Y-82825974D01*
X93044709Y-82810209D01*
X92790732Y-82282964D01*
X92374931Y-81911461D01*
X92684415Y-81704670D01*
X93009271Y-81218489D01*
X93098956Y-80767607D01*
X94996057Y-80767607D01*
X95153294Y-81148151D01*
X95444190Y-81439555D01*
X95824459Y-81597456D01*
X96236207Y-81597815D01*
X96616751Y-81440578D01*
X96908155Y-81149682D01*
X97066056Y-80769413D01*
X97066415Y-80357665D01*
X96909178Y-79977121D01*
X96618282Y-79685717D01*
X96238013Y-79527816D01*
X95826265Y-79527457D01*
X95445721Y-79684694D01*
X95154317Y-79975590D01*
X94996416Y-80355859D01*
X94996057Y-80767607D01*
X93098956Y-80767607D01*
X93123345Y-80645000D01*
X93009271Y-80071511D01*
X92684415Y-79585330D01*
X92369634Y-79375000D01*
X92684415Y-79164670D01*
X93009271Y-78678489D01*
X93110528Y-78169433D01*
X109335172Y-78169433D01*
X109378508Y-78389701D01*
X109825001Y-78540972D01*
X110295396Y-78509863D01*
X110585492Y-78389701D01*
X110628828Y-78169433D01*
X109982000Y-77522605D01*
X109335172Y-78169433D01*
X93110528Y-78169433D01*
X93123345Y-78105000D01*
X93009271Y-77531511D01*
X92684415Y-77045330D01*
X92369634Y-76835000D01*
X92684415Y-76624670D01*
X92746354Y-76531971D01*
X96297621Y-76531971D01*
X96454858Y-76912515D01*
X96745754Y-77203919D01*
X97126023Y-77361820D01*
X97537771Y-77362179D01*
X97918315Y-77204942D01*
X98209719Y-76914046D01*
X98367620Y-76533777D01*
X98367979Y-76122029D01*
X98210742Y-75741485D01*
X97919846Y-75450081D01*
X97539577Y-75292180D01*
X97127829Y-75291821D01*
X96747285Y-75449058D01*
X96455881Y-75739954D01*
X96297980Y-76120223D01*
X96297621Y-76531971D01*
X92746354Y-76531971D01*
X93009271Y-76138489D01*
X93123345Y-75565000D01*
X93009271Y-74991511D01*
X92684415Y-74505330D01*
X92198234Y-74180474D01*
X91889038Y-74118971D01*
X95027621Y-74118971D01*
X95184858Y-74499515D01*
X95475754Y-74790919D01*
X95856023Y-74948820D01*
X96267771Y-74949179D01*
X96648315Y-74791942D01*
X96939719Y-74501046D01*
X97097620Y-74120777D01*
X97097979Y-73709029D01*
X96940742Y-73328485D01*
X96649846Y-73037081D01*
X96269577Y-72879180D01*
X95857829Y-72878821D01*
X95477285Y-73036058D01*
X95185881Y-73326954D01*
X95027980Y-73707223D01*
X95027621Y-74118971D01*
X91889038Y-74118971D01*
X91624745Y-74066400D01*
X91255255Y-74066400D01*
X90681766Y-74180474D01*
X90195585Y-74505330D01*
X89870729Y-74991511D01*
X89756655Y-75565000D01*
X88340000Y-75565000D01*
X88340000Y-71451971D01*
X101326821Y-71451971D01*
X101484058Y-71832515D01*
X101774954Y-72123919D01*
X102155223Y-72281820D01*
X102566971Y-72282179D01*
X102947515Y-72124942D01*
X103081943Y-71990748D01*
X103171223Y-72027820D01*
X103582971Y-72028179D01*
X103963515Y-71870942D01*
X104254919Y-71580046D01*
X104412820Y-71199777D01*
X104413179Y-70788029D01*
X104255942Y-70407485D01*
X104079329Y-70230564D01*
X104307967Y-70136093D01*
X104599371Y-69845197D01*
X104757272Y-69464928D01*
X104757631Y-69053180D01*
X104600394Y-68672636D01*
X104309498Y-68381232D01*
X103929229Y-68223331D01*
X103517481Y-68222972D01*
X103136937Y-68380209D01*
X102845533Y-68671105D01*
X102687632Y-69051374D01*
X102687273Y-69463122D01*
X102844510Y-69843666D01*
X103021123Y-70020587D01*
X102792485Y-70115058D01*
X102658057Y-70249252D01*
X102568777Y-70212180D01*
X102157029Y-70211821D01*
X101776485Y-70369058D01*
X101485081Y-70659954D01*
X101327180Y-71040223D01*
X101326821Y-71451971D01*
X88340000Y-71451971D01*
X88340000Y-67921371D01*
X89693621Y-67921371D01*
X89850858Y-68301915D01*
X90141754Y-68593319D01*
X90522023Y-68751220D01*
X90933771Y-68751579D01*
X91314315Y-68594342D01*
X91605719Y-68303446D01*
X91697161Y-68083229D01*
X91813913Y-68200185D01*
X91667285Y-68260770D01*
X91375881Y-68551666D01*
X91217980Y-68931935D01*
X91217621Y-69343683D01*
X91374858Y-69724227D01*
X91665754Y-70015631D01*
X92046023Y-70173532D01*
X92457771Y-70173891D01*
X92838315Y-70016654D01*
X93129719Y-69725758D01*
X93287620Y-69345489D01*
X93287979Y-68933741D01*
X93130742Y-68553197D01*
X92996487Y-68418707D01*
X93143115Y-68358122D01*
X93434519Y-68067226D01*
X93558364Y-67768971D01*
X100056821Y-67768971D01*
X100214058Y-68149515D01*
X100504954Y-68440919D01*
X100885223Y-68598820D01*
X101296971Y-68599179D01*
X101677515Y-68441942D01*
X101968919Y-68151046D01*
X102126820Y-67770777D01*
X102127179Y-67359029D01*
X101969942Y-66978485D01*
X101882568Y-66890958D01*
X102019719Y-66754046D01*
X102125635Y-66498971D01*
X105517821Y-66498971D01*
X105675058Y-66879515D01*
X105965954Y-67170919D01*
X106346223Y-67328820D01*
X106757971Y-67329179D01*
X107138515Y-67171942D01*
X107429919Y-66881046D01*
X107587820Y-66500777D01*
X107587994Y-66301098D01*
X107616223Y-66312820D01*
X108027971Y-66313179D01*
X108408515Y-66155942D01*
X108699919Y-65865046D01*
X108786002Y-65657735D01*
X109140223Y-65804820D01*
X109551971Y-65805179D01*
X109932515Y-65647942D01*
X110223919Y-65357046D01*
X110381820Y-64976777D01*
X110382179Y-64565029D01*
X110224942Y-64184485D01*
X109934046Y-63893081D01*
X109553777Y-63735180D01*
X109142029Y-63734821D01*
X108761485Y-63892058D01*
X108470081Y-64182954D01*
X108383998Y-64390265D01*
X108029777Y-64243180D01*
X107618029Y-64242821D01*
X107237485Y-64400058D01*
X106946081Y-64690954D01*
X106788180Y-65071223D01*
X106788006Y-65270902D01*
X106759777Y-65259180D01*
X106348029Y-65258821D01*
X105967485Y-65416058D01*
X105676081Y-65706954D01*
X105518180Y-66087223D01*
X105517821Y-66498971D01*
X102125635Y-66498971D01*
X102177620Y-66373777D01*
X102177979Y-65962029D01*
X102020742Y-65581485D01*
X101729846Y-65290081D01*
X101349577Y-65132180D01*
X100937829Y-65131821D01*
X100557285Y-65289058D01*
X100265881Y-65579954D01*
X100107980Y-65960223D01*
X100107621Y-66371971D01*
X100264858Y-66752515D01*
X100352232Y-66840042D01*
X100215081Y-66976954D01*
X100057180Y-67357223D01*
X100056821Y-67768971D01*
X93558364Y-67768971D01*
X93592420Y-67686957D01*
X93592779Y-67275209D01*
X93435542Y-66894665D01*
X93144646Y-66603261D01*
X92764377Y-66445360D01*
X92352629Y-66445001D01*
X91972085Y-66602238D01*
X91680681Y-66893134D01*
X91589239Y-67113351D01*
X91315846Y-66839481D01*
X90935577Y-66681580D01*
X90523829Y-66681221D01*
X90143285Y-66838458D01*
X89851881Y-67129354D01*
X89693980Y-67509623D01*
X89693621Y-67921371D01*
X88340000Y-67921371D01*
X88340000Y-63666170D01*
X90180662Y-63666170D01*
X90337899Y-64046714D01*
X90628795Y-64338118D01*
X91009064Y-64496019D01*
X91420812Y-64496378D01*
X91725634Y-64370428D01*
X91630414Y-64599745D01*
X91630055Y-65011493D01*
X91787292Y-65392037D01*
X92078188Y-65683441D01*
X92458457Y-65841342D01*
X92870205Y-65841701D01*
X93250749Y-65684464D01*
X93542153Y-65393568D01*
X93700054Y-65013299D01*
X93700413Y-64601551D01*
X93543176Y-64221007D01*
X93252280Y-63929603D01*
X92872011Y-63771702D01*
X92460263Y-63771343D01*
X92155441Y-63897293D01*
X92250661Y-63667976D01*
X92251020Y-63256228D01*
X92093783Y-62875684D01*
X91802887Y-62584280D01*
X91422618Y-62426379D01*
X91010870Y-62426020D01*
X90630326Y-62583257D01*
X90338922Y-62874153D01*
X90181021Y-63254422D01*
X90180662Y-63666170D01*
X88340000Y-63666170D01*
X88340000Y-62047760D01*
X93410484Y-62047760D01*
X93567721Y-62428304D01*
X93858617Y-62719708D01*
X94238886Y-62877609D01*
X94457637Y-62877800D01*
X94316780Y-63217023D01*
X94316421Y-63628771D01*
X94473658Y-64009315D01*
X94764554Y-64300719D01*
X95144823Y-64458620D01*
X95463571Y-64458898D01*
X95476161Y-64489369D01*
X95767057Y-64780773D01*
X95803722Y-64795998D01*
X95803558Y-64983997D01*
X95960795Y-65364541D01*
X96251691Y-65655945D01*
X96631960Y-65813846D01*
X97043708Y-65814205D01*
X97424252Y-65656968D01*
X97715656Y-65366072D01*
X97873557Y-64985803D01*
X97873636Y-64894820D01*
X98091954Y-65113519D01*
X98442615Y-65259126D01*
X98093029Y-65258821D01*
X97712485Y-65416058D01*
X97421081Y-65706954D01*
X97263180Y-66087223D01*
X97262821Y-66498971D01*
X97420058Y-66879515D01*
X97710954Y-67170919D01*
X98091223Y-67328820D01*
X98502971Y-67329179D01*
X98883515Y-67171942D01*
X99174919Y-66881046D01*
X99332820Y-66500777D01*
X99333179Y-66089029D01*
X99175942Y-65708485D01*
X98885046Y-65417081D01*
X98534385Y-65271474D01*
X98883971Y-65271779D01*
X99264515Y-65114542D01*
X99555919Y-64823646D01*
X99713820Y-64443377D01*
X99714179Y-64031629D01*
X99631683Y-63831971D01*
X103993821Y-63831971D01*
X104151058Y-64212515D01*
X104441954Y-64503919D01*
X104822223Y-64661820D01*
X105233971Y-64662179D01*
X105614515Y-64504942D01*
X105905919Y-64214046D01*
X106063820Y-63833777D01*
X106064179Y-63422029D01*
X106018069Y-63310433D01*
X109335172Y-63310433D01*
X109378508Y-63530701D01*
X109825001Y-63681972D01*
X110295396Y-63650863D01*
X110585492Y-63530701D01*
X110628828Y-63310433D01*
X109982000Y-62663605D01*
X109335172Y-63310433D01*
X106018069Y-63310433D01*
X105906942Y-63041485D01*
X105616046Y-62750081D01*
X105235777Y-62592180D01*
X104824029Y-62591821D01*
X104443485Y-62749058D01*
X104152081Y-63039954D01*
X103994180Y-63420223D01*
X103993821Y-63831971D01*
X99631683Y-63831971D01*
X99556942Y-63651085D01*
X99266046Y-63359681D01*
X98885777Y-63201780D01*
X98474029Y-63201421D01*
X98093485Y-63358658D01*
X97802081Y-63649554D01*
X97644180Y-64029823D01*
X97644101Y-64120806D01*
X97425783Y-63902107D01*
X97389118Y-63886882D01*
X97389282Y-63698883D01*
X97232045Y-63318339D01*
X96941149Y-63026935D01*
X96560880Y-62869034D01*
X96242132Y-62868756D01*
X96229542Y-62838285D01*
X95938646Y-62546881D01*
X95558377Y-62388980D01*
X95339626Y-62388789D01*
X95480483Y-62049566D01*
X95480842Y-61637818D01*
X95462774Y-61594088D01*
X99485336Y-61594088D01*
X99642573Y-61974632D01*
X99933469Y-62266036D01*
X100313738Y-62423937D01*
X100725486Y-62424296D01*
X101106030Y-62267059D01*
X101397434Y-61976163D01*
X101555335Y-61595894D01*
X101555694Y-61184146D01*
X101398457Y-60803602D01*
X101107561Y-60512198D01*
X100727292Y-60354297D01*
X100315544Y-60353938D01*
X99935000Y-60511175D01*
X99643596Y-60802071D01*
X99485695Y-61182340D01*
X99485336Y-61594088D01*
X95462774Y-61594088D01*
X95323605Y-61257274D01*
X95032709Y-60965870D01*
X94652440Y-60807969D01*
X94240692Y-60807610D01*
X93860148Y-60964847D01*
X93568744Y-61255743D01*
X93410843Y-61636012D01*
X93410484Y-62047760D01*
X88340000Y-62047760D01*
X88340000Y-60500589D01*
X95357821Y-60500589D01*
X95515058Y-60881133D01*
X95805954Y-61172537D01*
X96186223Y-61330438D01*
X96597971Y-61330797D01*
X96978515Y-61173560D01*
X97269919Y-60882664D01*
X97345436Y-60700798D01*
X97419949Y-60881134D01*
X97710845Y-61172538D01*
X98091114Y-61330439D01*
X98502862Y-61330798D01*
X98883406Y-61173561D01*
X99174810Y-60882665D01*
X99332711Y-60502396D01*
X99333070Y-60090648D01*
X99257490Y-59907728D01*
X101638364Y-59907728D01*
X101795601Y-60288272D01*
X102082173Y-60575345D01*
X102075493Y-60582013D01*
X101917592Y-60962282D01*
X101917233Y-61374030D01*
X102074470Y-61754574D01*
X102365366Y-62045978D01*
X102489279Y-62097431D01*
X102489116Y-62284541D01*
X102646353Y-62665085D01*
X102937249Y-62956489D01*
X103317518Y-63114390D01*
X103729266Y-63114749D01*
X104109810Y-62957512D01*
X104401214Y-62666616D01*
X104559115Y-62286347D01*
X104559474Y-61874599D01*
X104476164Y-61672971D01*
X104755821Y-61672971D01*
X104913058Y-62053515D01*
X105203954Y-62344919D01*
X105584223Y-62502820D01*
X105995971Y-62503179D01*
X106376515Y-62345942D01*
X106667919Y-62055046D01*
X106825820Y-61674777D01*
X106826179Y-61263029D01*
X106668942Y-60882485D01*
X106378046Y-60591081D01*
X105997777Y-60433180D01*
X105586029Y-60432821D01*
X105205485Y-60590058D01*
X104914081Y-60880954D01*
X104756180Y-61261223D01*
X104755821Y-61672971D01*
X104476164Y-61672971D01*
X104402237Y-61494055D01*
X104111341Y-61202651D01*
X103987428Y-61151198D01*
X103987591Y-60964088D01*
X103830354Y-60583544D01*
X103543782Y-60296471D01*
X103550462Y-60289803D01*
X103708363Y-59909534D01*
X103708722Y-59497786D01*
X103551485Y-59117242D01*
X103260589Y-58825838D01*
X102880320Y-58667937D01*
X102468572Y-58667578D01*
X102088028Y-58824815D01*
X101796624Y-59115711D01*
X101638723Y-59495980D01*
X101638364Y-59907728D01*
X99257490Y-59907728D01*
X99175833Y-59710104D01*
X98884937Y-59418700D01*
X98504668Y-59260799D01*
X98092920Y-59260440D01*
X97712376Y-59417677D01*
X97420972Y-59708573D01*
X97345455Y-59890439D01*
X97270942Y-59710103D01*
X96980046Y-59418699D01*
X96599777Y-59260798D01*
X96188029Y-59260439D01*
X95807485Y-59417676D01*
X95516081Y-59708572D01*
X95358180Y-60088841D01*
X95357821Y-60500589D01*
X88340000Y-60500589D01*
X88340000Y-58319728D01*
X98817120Y-58319728D01*
X98974357Y-58700272D01*
X99265253Y-58991676D01*
X99645522Y-59149577D01*
X100057270Y-59149936D01*
X100437814Y-58992699D01*
X100729218Y-58701803D01*
X100887119Y-58321534D01*
X100887478Y-57909786D01*
X100730241Y-57529242D01*
X100439345Y-57237838D01*
X100059076Y-57079937D01*
X99647328Y-57079578D01*
X99266784Y-57236815D01*
X98975380Y-57527711D01*
X98817479Y-57907980D01*
X98817120Y-58319728D01*
X88340000Y-58319728D01*
X88340000Y-56567571D01*
X106432221Y-56567571D01*
X106589458Y-56948115D01*
X106880354Y-57239519D01*
X107260623Y-57397420D01*
X107672371Y-57397779D01*
X108052915Y-57240542D01*
X108344319Y-56949646D01*
X108502220Y-56569377D01*
X108502579Y-56157629D01*
X108345342Y-55777085D01*
X108054446Y-55485681D01*
X107674177Y-55327780D01*
X107262429Y-55327421D01*
X106881885Y-55484658D01*
X106590481Y-55775554D01*
X106432580Y-56155823D01*
X106432221Y-56567571D01*
X88340000Y-56567571D01*
X88340000Y-55533483D01*
X94627936Y-55533483D01*
X94785173Y-55914027D01*
X95076069Y-56205431D01*
X95456338Y-56363332D01*
X95868086Y-56363691D01*
X96248630Y-56206454D01*
X96540034Y-55915558D01*
X96697935Y-55535289D01*
X96698294Y-55123541D01*
X96541057Y-54742997D01*
X96250161Y-54451593D01*
X95869892Y-54293692D01*
X95458144Y-54293333D01*
X95077600Y-54450570D01*
X94786196Y-54741466D01*
X94628295Y-55121735D01*
X94627936Y-55533483D01*
X88340000Y-55533483D01*
X88340000Y-53645893D01*
X90093552Y-53645893D01*
X90258386Y-54044820D01*
X90563335Y-54350302D01*
X90961973Y-54515831D01*
X91393613Y-54516208D01*
X91792540Y-54351374D01*
X92098022Y-54046425D01*
X92263551Y-53647787D01*
X92263928Y-53216147D01*
X92105932Y-52833769D01*
X94037021Y-52833769D01*
X94194258Y-53214313D01*
X94485154Y-53505717D01*
X94865423Y-53663618D01*
X95277171Y-53663977D01*
X95657715Y-53506740D01*
X95760419Y-53404215D01*
X95811034Y-53454919D01*
X96191303Y-53612820D01*
X96603051Y-53613179D01*
X96866363Y-53504381D01*
X96866009Y-53910335D01*
X97023246Y-54290879D01*
X97314142Y-54582283D01*
X97694411Y-54740184D01*
X98106159Y-54740543D01*
X98486703Y-54583306D01*
X98778107Y-54292410D01*
X98936008Y-53912141D01*
X98936186Y-53707531D01*
X101834821Y-53707531D01*
X101992058Y-54088075D01*
X102282954Y-54379479D01*
X102663223Y-54537380D01*
X103074971Y-54537739D01*
X103100759Y-54527084D01*
X103100484Y-54841931D01*
X103257721Y-55222475D01*
X103548617Y-55513879D01*
X103928886Y-55671780D01*
X104340634Y-55672139D01*
X104565065Y-55579406D01*
X104647694Y-55662179D01*
X105027963Y-55820080D01*
X105439711Y-55820439D01*
X105820255Y-55663202D01*
X106111659Y-55372306D01*
X106269560Y-54992037D01*
X106269919Y-54580289D01*
X106112682Y-54199745D01*
X105821786Y-53908341D01*
X105441517Y-53750440D01*
X105155540Y-53750191D01*
X105232819Y-53673046D01*
X105390720Y-53292777D01*
X105391079Y-52881029D01*
X105233842Y-52500485D01*
X104942946Y-52209081D01*
X104562677Y-52051180D01*
X104150929Y-52050821D01*
X103770385Y-52208058D01*
X103478981Y-52498954D01*
X103430887Y-52614779D01*
X103076777Y-52467740D01*
X102665029Y-52467381D01*
X102284485Y-52624618D01*
X101993081Y-52915514D01*
X101835180Y-53295783D01*
X101834821Y-53707531D01*
X98936186Y-53707531D01*
X98936367Y-53500393D01*
X98779130Y-53119849D01*
X98488234Y-52828445D01*
X98107965Y-52670544D01*
X97696217Y-52670185D01*
X97432905Y-52778983D01*
X97433259Y-52373029D01*
X97276022Y-51992485D01*
X96985126Y-51701081D01*
X96604857Y-51543180D01*
X96193109Y-51542821D01*
X95812565Y-51700058D01*
X95709861Y-51802583D01*
X95659246Y-51751879D01*
X95278977Y-51593978D01*
X94867229Y-51593619D01*
X94486685Y-51750856D01*
X94195281Y-52041752D01*
X94037380Y-52422021D01*
X94037021Y-52833769D01*
X92105932Y-52833769D01*
X92099094Y-52817220D01*
X91794145Y-52511738D01*
X91395507Y-52346209D01*
X90963867Y-52345832D01*
X90564940Y-52510666D01*
X90259458Y-52815615D01*
X90093929Y-53214253D01*
X90093552Y-53645893D01*
X88340000Y-53645893D01*
X88340000Y-50242971D01*
X93706821Y-50242971D01*
X93864058Y-50623515D01*
X94154954Y-50914919D01*
X94535223Y-51072820D01*
X94946971Y-51073179D01*
X95327515Y-50915942D01*
X95618919Y-50625046D01*
X95776820Y-50244777D01*
X95777179Y-49833029D01*
X95619942Y-49452485D01*
X95329046Y-49161081D01*
X95181876Y-49099971D01*
X99294821Y-49099971D01*
X99452058Y-49480515D01*
X99742954Y-49771919D01*
X100123223Y-49929820D01*
X100534971Y-49930179D01*
X100715917Y-49855414D01*
X100715821Y-49964971D01*
X100843282Y-50273452D01*
X100536777Y-50146180D01*
X100125029Y-50145821D01*
X99744485Y-50303058D01*
X99453081Y-50593954D01*
X99295180Y-50974223D01*
X99294821Y-51385971D01*
X99452058Y-51766515D01*
X99742954Y-52057919D01*
X100123223Y-52215820D01*
X100534971Y-52216179D01*
X100915515Y-52058942D01*
X101206919Y-51768046D01*
X101364820Y-51387777D01*
X101364821Y-51385971D01*
X104374821Y-51385971D01*
X104532058Y-51766515D01*
X104822954Y-52057919D01*
X105203223Y-52215820D01*
X105614971Y-52216179D01*
X105995515Y-52058942D01*
X106286919Y-51768046D01*
X106444820Y-51387777D01*
X106445179Y-50976029D01*
X106287942Y-50595485D01*
X105997046Y-50304081D01*
X105616777Y-50146180D01*
X105205029Y-50145821D01*
X104824485Y-50303058D01*
X104533081Y-50593954D01*
X104375180Y-50974223D01*
X104374821Y-51385971D01*
X101364821Y-51385971D01*
X101365179Y-50976029D01*
X101237718Y-50667548D01*
X101544223Y-50794820D01*
X101955971Y-50795179D01*
X102336515Y-50637942D01*
X102627919Y-50347046D01*
X102785820Y-49966777D01*
X102786179Y-49555029D01*
X102628942Y-49174485D01*
X102338046Y-48883081D01*
X101957777Y-48725180D01*
X101546029Y-48724821D01*
X101365083Y-48799586D01*
X101365179Y-48690029D01*
X101207942Y-48309485D01*
X100917046Y-48018081D01*
X100536777Y-47860180D01*
X100125029Y-47859821D01*
X99744485Y-48017058D01*
X99453081Y-48307954D01*
X99295180Y-48688223D01*
X99294821Y-49099971D01*
X95181876Y-49099971D01*
X95162014Y-49091724D01*
X95454971Y-49091979D01*
X95835515Y-48934742D01*
X96126919Y-48643846D01*
X96284820Y-48263577D01*
X96285179Y-47851829D01*
X96127942Y-47471285D01*
X95837046Y-47179881D01*
X95456777Y-47021980D01*
X95045029Y-47021621D01*
X94664485Y-47178858D01*
X94373081Y-47469754D01*
X94215180Y-47850023D01*
X94214821Y-48261771D01*
X94372058Y-48642315D01*
X94662954Y-48933719D01*
X94829986Y-49003076D01*
X94537029Y-49002821D01*
X94156485Y-49160058D01*
X93865081Y-49450954D01*
X93707180Y-49831223D01*
X93706821Y-50242971D01*
X88340000Y-50242971D01*
X88340000Y-46845893D01*
X90093552Y-46845893D01*
X90258386Y-47244820D01*
X90563335Y-47550302D01*
X90961973Y-47715831D01*
X91393613Y-47716208D01*
X91792540Y-47551374D01*
X92098022Y-47246425D01*
X92263551Y-46847787D01*
X92263928Y-46416147D01*
X92099094Y-46017220D01*
X91794145Y-45711738D01*
X91395507Y-45546209D01*
X90963867Y-45545832D01*
X90564940Y-45710666D01*
X90259458Y-46015615D01*
X90093929Y-46414253D01*
X90093552Y-46845893D01*
X88340000Y-46845893D01*
X88340000Y-45360974D01*
X107130042Y-45360974D01*
X107251183Y-45593000D01*
X108458000Y-45593000D01*
X108458000Y-44385531D01*
X108712000Y-44385531D01*
X108712000Y-45593000D01*
X110998000Y-45593000D01*
X110998000Y-44385531D01*
X110765973Y-44265032D01*
X110236510Y-44513179D01*
X109855000Y-44931152D01*
X109473490Y-44513179D01*
X108944027Y-44265032D01*
X108712000Y-44385531D01*
X108458000Y-44385531D01*
X108225973Y-44265032D01*
X107696510Y-44513179D01*
X107302312Y-44945053D01*
X107130042Y-45360974D01*
X88340000Y-45360974D01*
X88340000Y-44434917D01*
X88449897Y-44545006D01*
X88986314Y-44767746D01*
X89567138Y-44768253D01*
X90103943Y-44546449D01*
X90515006Y-44136103D01*
X90563228Y-44019971D01*
X104781221Y-44019971D01*
X104938458Y-44400515D01*
X105229354Y-44691919D01*
X105609623Y-44849820D01*
X106021371Y-44850179D01*
X106401915Y-44692942D01*
X106693319Y-44402046D01*
X106851220Y-44021777D01*
X106851579Y-43610029D01*
X106694342Y-43229485D01*
X106403446Y-42938081D01*
X106023177Y-42780180D01*
X105611429Y-42779821D01*
X105230885Y-42937058D01*
X104939481Y-43227954D01*
X104781580Y-43608223D01*
X104781221Y-44019971D01*
X90563228Y-44019971D01*
X90737746Y-43599686D01*
X90738253Y-43018862D01*
X90575707Y-42625470D01*
X90687782Y-42625470D01*
X90879201Y-43088740D01*
X91233335Y-43443493D01*
X91696271Y-43635721D01*
X92197530Y-43636158D01*
X92660800Y-43444739D01*
X93015553Y-43090605D01*
X93207781Y-42627669D01*
X93208218Y-42126410D01*
X93042234Y-41724696D01*
X106990744Y-41724696D01*
X107113353Y-42195701D01*
X107406875Y-42583933D01*
X107826624Y-42830286D01*
X107918391Y-42845462D01*
X108109000Y-42720731D01*
X108109000Y-41529000D01*
X107153453Y-41529000D01*
X106990744Y-41724696D01*
X93042234Y-41724696D01*
X93016799Y-41663140D01*
X92662665Y-41308387D01*
X92199729Y-41116159D01*
X91698470Y-41115722D01*
X91235200Y-41307141D01*
X90880447Y-41661275D01*
X90688219Y-42124211D01*
X90687782Y-42625470D01*
X90575707Y-42625470D01*
X90516449Y-42482057D01*
X90106103Y-42070994D01*
X89569686Y-41848254D01*
X88988862Y-41847747D01*
X88452057Y-42069551D01*
X88340000Y-42181413D01*
X88340000Y-41079304D01*
X106990744Y-41079304D01*
X107153453Y-41275000D01*
X108109000Y-41275000D01*
X108109000Y-40083269D01*
X108363000Y-40083269D01*
X108363000Y-41275000D01*
X108383000Y-41275000D01*
X108383000Y-41529000D01*
X108363000Y-41529000D01*
X108363000Y-42720731D01*
X108553609Y-42845462D01*
X108645376Y-42830286D01*
X109065125Y-42583933D01*
X109080497Y-42563601D01*
X109178191Y-42709809D01*
X109388235Y-42850157D01*
X109636000Y-42899440D01*
X110836000Y-42899440D01*
X111083765Y-42850157D01*
X111293809Y-42709809D01*
X111434157Y-42499765D01*
X111483440Y-42252000D01*
X111483440Y-40552000D01*
X111434157Y-40304235D01*
X111293809Y-40094191D01*
X111083765Y-39953843D01*
X110836000Y-39904560D01*
X109636000Y-39904560D01*
X109388235Y-39953843D01*
X109178191Y-40094191D01*
X109080497Y-40240399D01*
X109065125Y-40220067D01*
X108645376Y-39973714D01*
X108553609Y-39958538D01*
X108363000Y-40083269D01*
X108109000Y-40083269D01*
X107918391Y-39958538D01*
X107826624Y-39973714D01*
X107406875Y-40220067D01*
X107113353Y-40608299D01*
X106990744Y-41079304D01*
X88340000Y-41079304D01*
X88340000Y-37574917D01*
X88449897Y-37685006D01*
X88986314Y-37907746D01*
X89567138Y-37908253D01*
X90103943Y-37686449D01*
X90165028Y-37625470D01*
X90687782Y-37625470D01*
X90879201Y-38088740D01*
X91233335Y-38443493D01*
X91696271Y-38635721D01*
X92197530Y-38636158D01*
X92660800Y-38444739D01*
X93015553Y-38090605D01*
X93207781Y-37627669D01*
X93208218Y-37126410D01*
X93016799Y-36663140D01*
X92662665Y-36308387D01*
X92199729Y-36116159D01*
X91698470Y-36115722D01*
X91235200Y-36307141D01*
X90880447Y-36661275D01*
X90688219Y-37124211D01*
X90687782Y-37625470D01*
X90165028Y-37625470D01*
X90515006Y-37276103D01*
X90737746Y-36739686D01*
X90738253Y-36158862D01*
X90516449Y-35622057D01*
X90106103Y-35210994D01*
X89597973Y-35000000D01*
X112320000Y-35000000D01*
X112320000Y-44848984D01*
M02*
