G04 #@! TF.GenerationSoftware,KiCad,Pcbnew,(2017-01-24 revision 0b6147e)-makepkg*
G04 #@! TF.CreationDate,2017-01-30T11:51:45-08:00*
G04 #@! TF.ProjectId,derbyFX,646572627946582E6B696361645F7063,rev?*
G04 #@! TF.FileFunction,Legend,Bot*
G04 #@! TF.FilePolarity,Positive*
%FSLAX46Y46*%
G04 Gerber Fmt 4.6, Leading zero omitted, Abs format (unit mm)*
G04 Created by KiCad (PCBNEW (2017-01-24 revision 0b6147e)-makepkg) date 01/30/17 11:51:45*
%MOMM*%
%LPD*%
G01*
G04 APERTURE LIST*
%ADD10C,0.100000*%
%ADD11C,0.200000*%
%ADD12C,0.150000*%
%ADD13C,0.960000*%
%ADD14R,2.432000X2.432000*%
%ADD15O,2.432000X2.432000*%
%ADD16C,2.127200*%
%ADD17O,2.127200X2.127200*%
%ADD18C,1.150000*%
%ADD19R,1.150000X1.200000*%
%ADD20R,1.600000X2.100000*%
%ADD21O,1.600000X2.100000*%
%ADD22R,0.900000X1.300000*%
%ADD23R,1.300000X0.900000*%
%ADD24R,1.950000X1.000000*%
%ADD25C,1.650006*%
%ADD26C,1.504000*%
%ADD27C,2.500580*%
%ADD28O,2.432000X2.127200*%
%ADD29C,1.500000*%
%ADD30C,1.300000*%
G04 APERTURE END LIST*
D10*
X97895920Y-37294500D02*
X97857825Y-37218309D01*
X97857825Y-37065928D01*
X97895920Y-36989738D01*
X97972111Y-36913547D01*
X98048301Y-36875452D01*
X98200682Y-36875452D01*
X98276873Y-36913547D01*
X98353063Y-36989738D01*
X98391159Y-37065928D01*
X98391159Y-37218309D01*
X98353063Y-37294500D01*
X97591159Y-37142119D02*
X97629254Y-36951642D01*
X97743540Y-36761166D01*
X97934016Y-36646880D01*
X98124492Y-36608785D01*
X98314968Y-36646880D01*
X98505444Y-36761166D01*
X98619730Y-36951642D01*
X98657825Y-37142119D01*
X98619730Y-37332595D01*
X98505444Y-37523071D01*
X98314968Y-37637357D01*
X98124492Y-37675452D01*
X97934016Y-37637357D01*
X97743540Y-37523071D01*
X97629254Y-37332595D01*
X97591159Y-37142119D01*
X97705444Y-38513547D02*
X97705444Y-38970690D01*
X98505444Y-38742119D02*
X97705444Y-38742119D01*
X98505444Y-39580214D02*
X98086397Y-39580214D01*
X98010206Y-39542119D01*
X97972111Y-39465928D01*
X97972111Y-39313547D01*
X98010206Y-39237357D01*
X98467349Y-39580214D02*
X98505444Y-39504023D01*
X98505444Y-39313547D01*
X98467349Y-39237357D01*
X98391159Y-39199261D01*
X98314968Y-39199261D01*
X98238778Y-39237357D01*
X98200682Y-39313547D01*
X98200682Y-39504023D01*
X98162587Y-39580214D01*
X98505444Y-40075452D02*
X98467349Y-39999261D01*
X98391159Y-39961166D01*
X97705444Y-39961166D01*
X98505444Y-40380214D02*
X97972111Y-40380214D01*
X97705444Y-40380214D02*
X97743540Y-40342119D01*
X97781635Y-40380214D01*
X97743540Y-40418309D01*
X97705444Y-40380214D01*
X97781635Y-40380214D01*
X98505444Y-41104023D02*
X98086397Y-41104023D01*
X98010206Y-41065928D01*
X97972111Y-40989738D01*
X97972111Y-40837357D01*
X98010206Y-40761166D01*
X98467349Y-41104023D02*
X98505444Y-41027833D01*
X98505444Y-40837357D01*
X98467349Y-40761166D01*
X98391159Y-40723071D01*
X98314968Y-40723071D01*
X98238778Y-40761166D01*
X98200682Y-40837357D01*
X98200682Y-41027833D01*
X98162587Y-41104023D01*
X98505444Y-42742119D02*
X98505444Y-42704023D01*
X98467349Y-42627833D01*
X98353063Y-42513547D01*
X98124492Y-42323071D01*
X98010206Y-42246880D01*
X97895920Y-42208785D01*
X97819730Y-42208785D01*
X97743540Y-42246880D01*
X97705444Y-42323071D01*
X97705444Y-42361166D01*
X97743540Y-42437357D01*
X97819730Y-42475452D01*
X97857825Y-42475452D01*
X97934016Y-42437357D01*
X97972111Y-42399261D01*
X98124492Y-42170690D01*
X98162587Y-42132595D01*
X98238778Y-42094500D01*
X98353063Y-42094500D01*
X98429254Y-42132595D01*
X98467349Y-42170690D01*
X98505444Y-42246880D01*
X98505444Y-42361166D01*
X98467349Y-42437357D01*
X98429254Y-42475452D01*
X98276873Y-42589738D01*
X98162587Y-42627833D01*
X98086397Y-42627833D01*
X98086397Y-43694500D02*
X98086397Y-43961166D01*
X98505444Y-44075452D02*
X98505444Y-43694500D01*
X97705444Y-43694500D01*
X97705444Y-44075452D01*
X98505444Y-44532595D02*
X98467349Y-44456404D01*
X98391159Y-44418309D01*
X97705444Y-44418309D01*
X98505444Y-44951642D02*
X98467349Y-44875452D01*
X98391159Y-44837357D01*
X97705444Y-44837357D01*
X98505444Y-45256404D02*
X97972111Y-45256404D01*
X97705444Y-45256404D02*
X97743540Y-45218309D01*
X97781635Y-45256404D01*
X97743540Y-45294500D01*
X97705444Y-45256404D01*
X97781635Y-45256404D01*
X98467349Y-45942119D02*
X98505444Y-45865928D01*
X98505444Y-45713547D01*
X98467349Y-45637357D01*
X98391159Y-45599261D01*
X98086397Y-45599261D01*
X98010206Y-45637357D01*
X97972111Y-45713547D01*
X97972111Y-45865928D01*
X98010206Y-45942119D01*
X98086397Y-45980214D01*
X98162587Y-45980214D01*
X98238778Y-45599261D01*
X97705444Y-46818309D02*
X97705444Y-47275452D01*
X98505444Y-47046880D02*
X97705444Y-47046880D01*
X98505444Y-47542119D02*
X97705444Y-47542119D01*
X98505444Y-47884976D02*
X98086397Y-47884976D01*
X98010206Y-47846880D01*
X97972111Y-47770690D01*
X97972111Y-47656404D01*
X98010206Y-47580214D01*
X98048301Y-47542119D01*
X98505444Y-48380214D02*
X98467349Y-48304023D01*
X98429254Y-48265928D01*
X98353063Y-48227833D01*
X98124492Y-48227833D01*
X98048301Y-48265928D01*
X98010206Y-48304023D01*
X97972111Y-48380214D01*
X97972111Y-48494500D01*
X98010206Y-48570690D01*
X98048301Y-48608785D01*
X98124492Y-48646880D01*
X98353063Y-48646880D01*
X98429254Y-48608785D01*
X98467349Y-48570690D01*
X98505444Y-48494500D01*
X98505444Y-48380214D01*
X98505444Y-48989738D02*
X97972111Y-48989738D01*
X98048301Y-48989738D02*
X98010206Y-49027833D01*
X97972111Y-49104023D01*
X97972111Y-49218309D01*
X98010206Y-49294500D01*
X98086397Y-49332595D01*
X98505444Y-49332595D01*
X98086397Y-49332595D02*
X98010206Y-49370690D01*
X97972111Y-49446880D01*
X97972111Y-49561166D01*
X98010206Y-49637357D01*
X98086397Y-49675452D01*
X98505444Y-49675452D01*
X98505444Y-50399261D02*
X98086397Y-50399261D01*
X98010206Y-50361166D01*
X97972111Y-50284976D01*
X97972111Y-50132595D01*
X98010206Y-50056404D01*
X98467349Y-50399261D02*
X98505444Y-50323071D01*
X98505444Y-50132595D01*
X98467349Y-50056404D01*
X98391159Y-50018309D01*
X98314968Y-50018309D01*
X98238778Y-50056404D01*
X98200682Y-50132595D01*
X98200682Y-50323071D01*
X98162587Y-50399261D01*
X98467349Y-50742119D02*
X98505444Y-50818309D01*
X98505444Y-50970690D01*
X98467349Y-51046880D01*
X98391159Y-51084976D01*
X98353063Y-51084976D01*
X98276873Y-51046880D01*
X98238778Y-50970690D01*
X98238778Y-50856404D01*
X98200682Y-50780214D01*
X98124492Y-50742119D01*
X98086397Y-50742119D01*
X98010206Y-50780214D01*
X97972111Y-50856404D01*
X97972111Y-50970690D01*
X98010206Y-51046880D01*
X98467349Y-51389738D02*
X98505444Y-51465928D01*
X98505444Y-51618309D01*
X98467349Y-51694500D01*
X98391159Y-51732595D01*
X98353063Y-51732595D01*
X98276873Y-51694500D01*
X98238778Y-51618309D01*
X98238778Y-51504023D01*
X98200682Y-51427833D01*
X98124492Y-51389738D01*
X98086397Y-51389738D01*
X98010206Y-51427833D01*
X97972111Y-51504023D01*
X97972111Y-51618309D01*
X98010206Y-51694500D01*
X98505444Y-52189738D02*
X98467349Y-52113547D01*
X98429254Y-52075452D01*
X98353063Y-52037357D01*
X98124492Y-52037357D01*
X98048301Y-52075452D01*
X98010206Y-52113547D01*
X97972111Y-52189738D01*
X97972111Y-52304023D01*
X98010206Y-52380214D01*
X98048301Y-52418309D01*
X98124492Y-52456404D01*
X98353063Y-52456404D01*
X98429254Y-52418309D01*
X98467349Y-52380214D01*
X98505444Y-52304023D01*
X98505444Y-52189738D01*
X97972111Y-52799261D02*
X98505444Y-52799261D01*
X98048301Y-52799261D02*
X98010206Y-52837357D01*
X97972111Y-52913547D01*
X97972111Y-53027833D01*
X98010206Y-53104023D01*
X98086397Y-53142119D01*
X98505444Y-53142119D01*
X99576873Y-39637357D02*
X99576873Y-40018309D01*
X99805444Y-39561166D02*
X99005444Y-39827833D01*
X99805444Y-40094500D01*
X99005444Y-40284976D02*
X99805444Y-40475452D01*
X99234016Y-40627833D01*
X99805444Y-40780214D01*
X99005444Y-40970690D01*
X99576873Y-41237357D02*
X99576873Y-41618309D01*
X99805444Y-41161166D02*
X99005444Y-41427833D01*
X99805444Y-41694500D01*
X99805444Y-41961166D02*
X99005444Y-41961166D01*
X99805444Y-42418309D01*
X99005444Y-42418309D01*
X99576873Y-42761166D02*
X99576873Y-43142119D01*
X99805444Y-42684976D02*
X99005444Y-42951642D01*
X99805444Y-43218309D01*
X99043540Y-44513547D02*
X99005444Y-44437357D01*
X99005444Y-44323071D01*
X99043540Y-44208785D01*
X99119730Y-44132595D01*
X99195920Y-44094500D01*
X99348301Y-44056404D01*
X99462587Y-44056404D01*
X99614968Y-44094500D01*
X99691159Y-44132595D01*
X99767349Y-44208785D01*
X99805444Y-44323071D01*
X99805444Y-44399261D01*
X99767349Y-44513547D01*
X99729254Y-44551642D01*
X99462587Y-44551642D01*
X99462587Y-44399261D01*
X99805444Y-44894500D02*
X99272111Y-44894500D01*
X99424492Y-44894500D02*
X99348301Y-44932595D01*
X99310206Y-44970690D01*
X99272111Y-45046880D01*
X99272111Y-45123071D01*
X99805444Y-45732595D02*
X99386397Y-45732595D01*
X99310206Y-45694500D01*
X99272111Y-45618309D01*
X99272111Y-45465928D01*
X99310206Y-45389738D01*
X99767349Y-45732595D02*
X99805444Y-45656404D01*
X99805444Y-45465928D01*
X99767349Y-45389738D01*
X99691159Y-45351642D01*
X99614968Y-45351642D01*
X99538778Y-45389738D01*
X99500682Y-45465928D01*
X99500682Y-45656404D01*
X99462587Y-45732595D01*
X99272111Y-46113547D02*
X99805444Y-46113547D01*
X99348301Y-46113547D02*
X99310206Y-46151642D01*
X99272111Y-46227833D01*
X99272111Y-46342119D01*
X99310206Y-46418309D01*
X99386397Y-46456404D01*
X99805444Y-46456404D01*
X99805444Y-47180214D02*
X99005444Y-47180214D01*
X99767349Y-47180214D02*
X99805444Y-47104023D01*
X99805444Y-46951642D01*
X99767349Y-46875452D01*
X99729254Y-46837357D01*
X99653063Y-46799261D01*
X99424492Y-46799261D01*
X99348301Y-46837357D01*
X99310206Y-46875452D01*
X99272111Y-46951642D01*
X99272111Y-47104023D01*
X99310206Y-47180214D01*
X99805444Y-48170690D02*
X99005444Y-48170690D01*
X99005444Y-48475452D01*
X99043540Y-48551642D01*
X99081635Y-48589738D01*
X99157825Y-48627833D01*
X99272111Y-48627833D01*
X99348301Y-48589738D01*
X99386397Y-48551642D01*
X99424492Y-48475452D01*
X99424492Y-48170690D01*
X99805444Y-48970690D02*
X99272111Y-48970690D01*
X99424492Y-48970690D02*
X99348301Y-49008785D01*
X99310206Y-49046880D01*
X99272111Y-49123071D01*
X99272111Y-49199261D01*
X99805444Y-49465928D02*
X99272111Y-49465928D01*
X99005444Y-49465928D02*
X99043540Y-49427833D01*
X99081635Y-49465928D01*
X99043540Y-49504023D01*
X99005444Y-49465928D01*
X99081635Y-49465928D01*
X99805444Y-49770690D02*
X99272111Y-50189738D01*
X99272111Y-49770690D02*
X99805444Y-50189738D01*
X100686397Y-41294500D02*
X100686397Y-41027833D01*
X101105444Y-41027833D02*
X100305444Y-41027833D01*
X100305444Y-41408785D01*
X101067349Y-42018309D02*
X101105444Y-41942119D01*
X101105444Y-41789738D01*
X101067349Y-41713547D01*
X100991159Y-41675452D01*
X100686397Y-41675452D01*
X100610206Y-41713547D01*
X100572111Y-41789738D01*
X100572111Y-41942119D01*
X100610206Y-42018309D01*
X100686397Y-42056404D01*
X100762587Y-42056404D01*
X100838778Y-41675452D01*
X101105444Y-42399261D02*
X100305444Y-42399261D01*
X100610206Y-42399261D02*
X100572111Y-42475452D01*
X100572111Y-42627833D01*
X100610206Y-42704023D01*
X100648301Y-42742119D01*
X100724492Y-42780214D01*
X100953063Y-42780214D01*
X101029254Y-42742119D01*
X101067349Y-42704023D01*
X101105444Y-42627833D01*
X101105444Y-42475452D01*
X101067349Y-42399261D01*
X100572111Y-44075452D02*
X101105444Y-44075452D01*
X100267349Y-43884976D02*
X100838778Y-43694500D01*
X100838778Y-44189738D01*
X101067349Y-44532595D02*
X101105444Y-44532595D01*
X101181635Y-44494500D01*
X101219730Y-44456404D01*
X100381635Y-45446880D02*
X100343540Y-45484976D01*
X100305444Y-45561166D01*
X100305444Y-45751642D01*
X100343540Y-45827833D01*
X100381635Y-45865928D01*
X100457825Y-45904023D01*
X100534016Y-45904023D01*
X100648301Y-45865928D01*
X101105444Y-45408785D01*
X101105444Y-45904023D01*
X100305444Y-46399261D02*
X100305444Y-46475452D01*
X100343540Y-46551642D01*
X100381635Y-46589738D01*
X100457825Y-46627833D01*
X100610206Y-46665928D01*
X100800682Y-46665928D01*
X100953063Y-46627833D01*
X101029254Y-46589738D01*
X101067349Y-46551642D01*
X101105444Y-46475452D01*
X101105444Y-46399261D01*
X101067349Y-46323071D01*
X101029254Y-46284976D01*
X100953063Y-46246880D01*
X100800682Y-46208785D01*
X100610206Y-46208785D01*
X100457825Y-46246880D01*
X100381635Y-46284976D01*
X100343540Y-46323071D01*
X100305444Y-46399261D01*
X101105444Y-47427833D02*
X101105444Y-46970690D01*
X101105444Y-47199261D02*
X100305444Y-47199261D01*
X100419730Y-47123071D01*
X100495920Y-47046880D01*
X100534016Y-46970690D01*
X100305444Y-47694500D02*
X100305444Y-48227833D01*
X101105444Y-47884976D01*
X112078333Y-77952666D02*
X112045000Y-77986000D01*
X112011666Y-78052666D01*
X112011666Y-78219333D01*
X112045000Y-78286000D01*
X112078333Y-78319333D01*
X112145000Y-78352666D01*
X112211666Y-78352666D01*
X112311666Y-78319333D01*
X112711666Y-77919333D01*
X112711666Y-78352666D01*
X112245000Y-78952666D02*
X112711666Y-78952666D01*
X111978333Y-78786000D02*
X112478333Y-78619333D01*
X112478333Y-79052666D01*
X108783428Y-76962047D02*
X108783428Y-77723952D01*
X108783428Y-75692047D02*
X108783428Y-76453952D01*
X109164380Y-76073000D02*
X108402476Y-76073000D01*
X108783428Y-73025047D02*
X108783428Y-73786952D01*
X108783428Y-71755047D02*
X108783428Y-72516952D01*
X109164380Y-72136000D02*
X108402476Y-72136000D01*
X112078333Y-70205666D02*
X112045000Y-70239000D01*
X112011666Y-70305666D01*
X112011666Y-70472333D01*
X112045000Y-70539000D01*
X112078333Y-70572333D01*
X112145000Y-70605666D01*
X112211666Y-70605666D01*
X112311666Y-70572333D01*
X112711666Y-70172333D01*
X112711666Y-70605666D01*
X112011666Y-71039000D02*
X112011666Y-71105666D01*
X112045000Y-71172333D01*
X112078333Y-71205666D01*
X112145000Y-71239000D01*
X112278333Y-71272333D01*
X112445000Y-71272333D01*
X112578333Y-71239000D01*
X112645000Y-71205666D01*
X112678333Y-71172333D01*
X112711666Y-71105666D01*
X112711666Y-71039000D01*
X112678333Y-70972333D01*
X112645000Y-70939000D01*
X112578333Y-70905666D01*
X112445000Y-70872333D01*
X112278333Y-70872333D01*
X112145000Y-70905666D01*
X112078333Y-70939000D01*
X112045000Y-70972333D01*
X112011666Y-71039000D01*
X112711666Y-63620666D02*
X112711666Y-63220666D01*
X112711666Y-63420666D02*
X112011666Y-63420666D01*
X112111666Y-63354000D01*
X112178333Y-63287333D01*
X112211666Y-63220666D01*
X112711666Y-63954000D02*
X112711666Y-64087333D01*
X112678333Y-64154000D01*
X112645000Y-64187333D01*
X112545000Y-64254000D01*
X112411666Y-64287333D01*
X112145000Y-64287333D01*
X112078333Y-64254000D01*
X112045000Y-64220666D01*
X112011666Y-64154000D01*
X112011666Y-64020666D01*
X112045000Y-63954000D01*
X112078333Y-63920666D01*
X112145000Y-63887333D01*
X112311666Y-63887333D01*
X112378333Y-63920666D01*
X112411666Y-63954000D01*
X112445000Y-64020666D01*
X112445000Y-64154000D01*
X112411666Y-64220666D01*
X112378333Y-64254000D01*
X112311666Y-64287333D01*
X108783428Y-62103047D02*
X108783428Y-62864952D01*
X108783428Y-60833047D02*
X108783428Y-61594952D01*
X109164380Y-61214000D02*
X108402476Y-61214000D01*
X108783428Y-58293047D02*
X108783428Y-59054952D01*
X108783428Y-56896047D02*
X108783428Y-57657952D01*
X109164380Y-57277000D02*
X108402476Y-57277000D01*
X112711666Y-55873666D02*
X112711666Y-55473666D01*
X112711666Y-55673666D02*
X112011666Y-55673666D01*
X112111666Y-55607000D01*
X112178333Y-55540333D01*
X112211666Y-55473666D01*
X112011666Y-56507000D02*
X112011666Y-56173666D01*
X112345000Y-56140333D01*
X112311666Y-56173666D01*
X112278333Y-56240333D01*
X112278333Y-56407000D01*
X112311666Y-56473666D01*
X112345000Y-56507000D01*
X112411666Y-56540333D01*
X112578333Y-56540333D01*
X112645000Y-56507000D01*
X112678333Y-56473666D01*
X112711666Y-56407000D01*
X112711666Y-56240333D01*
X112678333Y-56173666D01*
X112645000Y-56140333D01*
X107005428Y-47752047D02*
X107005428Y-48513952D01*
X107386380Y-48133000D02*
X106624476Y-48133000D01*
X107005428Y-45339047D02*
X107005428Y-46100952D01*
X109418333Y-44098333D02*
X109318333Y-44131666D01*
X109151666Y-44131666D01*
X109085000Y-44098333D01*
X109051666Y-44065000D01*
X109018333Y-43998333D01*
X109018333Y-43931666D01*
X109051666Y-43865000D01*
X109085000Y-43831666D01*
X109151666Y-43798333D01*
X109285000Y-43765000D01*
X109351666Y-43731666D01*
X109385000Y-43698333D01*
X109418333Y-43631666D01*
X109418333Y-43565000D01*
X109385000Y-43498333D01*
X109351666Y-43465000D01*
X109285000Y-43431666D01*
X109118333Y-43431666D01*
X109018333Y-43465000D01*
X108818333Y-43431666D02*
X108585000Y-44131666D01*
X108351666Y-43431666D01*
X107751666Y-44131666D02*
X108151666Y-44131666D01*
X107951666Y-44131666D02*
X107951666Y-43431666D01*
X108018333Y-43531666D01*
X108085000Y-43598333D01*
X108151666Y-43631666D01*
X112085333Y-44098333D02*
X111985333Y-44131666D01*
X111818666Y-44131666D01*
X111752000Y-44098333D01*
X111718666Y-44065000D01*
X111685333Y-43998333D01*
X111685333Y-43931666D01*
X111718666Y-43865000D01*
X111752000Y-43831666D01*
X111818666Y-43798333D01*
X111952000Y-43765000D01*
X112018666Y-43731666D01*
X112052000Y-43698333D01*
X112085333Y-43631666D01*
X112085333Y-43565000D01*
X112052000Y-43498333D01*
X112018666Y-43465000D01*
X111952000Y-43431666D01*
X111785333Y-43431666D01*
X111685333Y-43465000D01*
X111485333Y-43431666D02*
X111252000Y-44131666D01*
X111018666Y-43431666D01*
X110818666Y-43498333D02*
X110785333Y-43465000D01*
X110718666Y-43431666D01*
X110552000Y-43431666D01*
X110485333Y-43465000D01*
X110452000Y-43498333D01*
X110418666Y-43565000D01*
X110418666Y-43631666D01*
X110452000Y-43731666D01*
X110852000Y-44131666D01*
X110418666Y-44131666D01*
D11*
X108483400Y-83566000D02*
X109016800Y-83566000D01*
X108762800Y-83286600D02*
X108762800Y-83794600D01*
X108077000Y-82524600D02*
X108610400Y-82524600D01*
X108077000Y-81153000D02*
X108077000Y-82524600D01*
X108559600Y-81153000D02*
X108077000Y-81153000D01*
X109194600Y-80518000D02*
X109270800Y-80518000D01*
X108635800Y-81076800D02*
X109194600Y-80518000D01*
X108635800Y-82473800D02*
X108635800Y-81076800D01*
X109220000Y-83058000D02*
X108635800Y-82473800D01*
X109220000Y-80518000D02*
X109220000Y-83058000D01*
D12*
X93011445Y-62230000D02*
X93485206Y-61756238D01*
X100330000Y-69548555D02*
X100803762Y-69074794D01*
X107648555Y-62230000D02*
X107174794Y-62703762D01*
X100330000Y-54911445D02*
X99856238Y-55385206D01*
X93011445Y-62230000D02*
X93485206Y-62703762D01*
X100330000Y-54911445D02*
X100803762Y-55385206D01*
X107648555Y-62230000D02*
X107174794Y-61756238D01*
X100330000Y-69548555D02*
X99856238Y-69074794D01*
X93485206Y-61756238D02*
X92442224Y-60713256D01*
X107315000Y-49530000D02*
X107315000Y-44450000D01*
X107315000Y-44450000D02*
X112395000Y-44450000D01*
X112395000Y-44450000D02*
X112395000Y-49530000D01*
X112395000Y-52070000D02*
X109855000Y-52070000D01*
X112395000Y-49530000D02*
X112395000Y-52070000D01*
X107315000Y-52070000D02*
X109855000Y-52070000D01*
X107315000Y-49530000D02*
X107315000Y-52070000D01*
X106716751Y-56338223D02*
X106221777Y-55843249D01*
X105373249Y-56691777D02*
X105868223Y-57186751D01*
X94016751Y-66498223D02*
X93521777Y-66003249D01*
X92673249Y-66851777D02*
X93168223Y-67346751D01*
X93869263Y-56295369D02*
X93374289Y-56790343D01*
X94222817Y-57638871D02*
X94717791Y-57143897D01*
X98390000Y-72740000D02*
X98390000Y-72040000D01*
X97190000Y-72040000D02*
X97190000Y-72740000D01*
X88300000Y-65690000D02*
X88300000Y-66390000D01*
X89500000Y-66390000D02*
X89500000Y-65690000D01*
X96385000Y-74636000D02*
X95385000Y-74636000D01*
X95385000Y-75986000D02*
X96385000Y-75986000D01*
X95385000Y-78018000D02*
X96385000Y-78018000D01*
X96385000Y-76668000D02*
X95385000Y-76668000D01*
X90130000Y-65540000D02*
X90130000Y-66540000D01*
X91480000Y-66540000D02*
X91480000Y-65540000D01*
X90635000Y-73695000D02*
X90635000Y-73550000D01*
X94785000Y-73695000D02*
X94785000Y-73550000D01*
X94785000Y-68545000D02*
X94785000Y-68690000D01*
X90635000Y-68545000D02*
X90635000Y-68690000D01*
X90635000Y-73695000D02*
X94785000Y-73695000D01*
X90635000Y-68545000D02*
X94785000Y-68545000D01*
X90635000Y-73550000D02*
X89235000Y-73550000D01*
X100141380Y-73488992D02*
X108413992Y-65216380D01*
X111948620Y-68751008D02*
X103676008Y-77023620D01*
X108413992Y-65216380D02*
X109013873Y-65816261D01*
X111948620Y-68751008D02*
X111348739Y-68151127D01*
X100141380Y-73488992D02*
X100741261Y-74088873D01*
X103676008Y-77023620D02*
X103076127Y-76423739D01*
%LPC*%
D13*
X93364998Y-60921852D03*
D10*
G36*
X92318480Y-60554156D02*
X92997302Y-59875334D01*
X94411516Y-61289548D01*
X93732694Y-61968370D01*
X92318480Y-60554156D01*
X92318480Y-60554156D01*
G37*
D13*
X93930684Y-60356167D03*
D10*
G36*
X92884166Y-59988471D02*
X93562988Y-59309649D01*
X94977202Y-60723863D01*
X94298380Y-61402685D01*
X92884166Y-59988471D01*
X92884166Y-59988471D01*
G37*
D13*
X94496369Y-59790482D03*
D10*
G36*
X93449851Y-59422786D02*
X94128673Y-58743964D01*
X95542887Y-60158178D01*
X94864065Y-60837000D01*
X93449851Y-59422786D01*
X93449851Y-59422786D01*
G37*
D13*
X95062054Y-59224796D03*
D10*
G36*
X94015536Y-58857100D02*
X94694358Y-58178278D01*
X96108572Y-59592492D01*
X95429750Y-60271314D01*
X94015536Y-58857100D01*
X94015536Y-58857100D01*
G37*
D13*
X95627740Y-58659111D03*
D10*
G36*
X94581222Y-58291415D02*
X95260044Y-57612593D01*
X96674258Y-59026807D01*
X95995436Y-59705629D01*
X94581222Y-58291415D01*
X94581222Y-58291415D01*
G37*
D13*
X96193425Y-58093425D03*
D10*
G36*
X95146907Y-57725729D02*
X95825729Y-57046907D01*
X97239943Y-58461121D01*
X96561121Y-59139943D01*
X95146907Y-57725729D01*
X95146907Y-57725729D01*
G37*
D13*
X96759111Y-57527740D03*
D10*
G36*
X95712593Y-57160044D02*
X96391415Y-56481222D01*
X97805629Y-57895436D01*
X97126807Y-58574258D01*
X95712593Y-57160044D01*
X95712593Y-57160044D01*
G37*
D13*
X97324796Y-56962054D03*
D10*
G36*
X96278278Y-56594358D02*
X96957100Y-55915536D01*
X98371314Y-57329750D01*
X97692492Y-58008572D01*
X96278278Y-56594358D01*
X96278278Y-56594358D01*
G37*
D13*
X97890482Y-56396369D03*
D10*
G36*
X96843964Y-56028673D02*
X97522786Y-55349851D01*
X98937000Y-56764065D01*
X98258178Y-57442887D01*
X96843964Y-56028673D01*
X96843964Y-56028673D01*
G37*
D13*
X98456167Y-55830684D03*
D10*
G36*
X97409649Y-55462988D02*
X98088471Y-54784166D01*
X99502685Y-56198380D01*
X98823863Y-56877202D01*
X97409649Y-55462988D01*
X97409649Y-55462988D01*
G37*
D13*
X99021852Y-55264998D03*
D10*
G36*
X97975334Y-54897302D02*
X98654156Y-54218480D01*
X100068370Y-55632694D01*
X99389548Y-56311516D01*
X97975334Y-54897302D01*
X97975334Y-54897302D01*
G37*
D13*
X101638148Y-55264998D03*
D10*
G36*
X102005844Y-54218480D02*
X102684666Y-54897302D01*
X101270452Y-56311516D01*
X100591630Y-55632694D01*
X102005844Y-54218480D01*
X102005844Y-54218480D01*
G37*
D13*
X102203833Y-55830684D03*
D10*
G36*
X102571529Y-54784166D02*
X103250351Y-55462988D01*
X101836137Y-56877202D01*
X101157315Y-56198380D01*
X102571529Y-54784166D01*
X102571529Y-54784166D01*
G37*
D13*
X102769518Y-56396369D03*
D10*
G36*
X103137214Y-55349851D02*
X103816036Y-56028673D01*
X102401822Y-57442887D01*
X101723000Y-56764065D01*
X103137214Y-55349851D01*
X103137214Y-55349851D01*
G37*
D13*
X103335204Y-56962054D03*
D10*
G36*
X103702900Y-55915536D02*
X104381722Y-56594358D01*
X102967508Y-58008572D01*
X102288686Y-57329750D01*
X103702900Y-55915536D01*
X103702900Y-55915536D01*
G37*
D13*
X103900889Y-57527740D03*
D10*
G36*
X104268585Y-56481222D02*
X104947407Y-57160044D01*
X103533193Y-58574258D01*
X102854371Y-57895436D01*
X104268585Y-56481222D01*
X104268585Y-56481222D01*
G37*
D13*
X104466575Y-58093425D03*
D10*
G36*
X104834271Y-57046907D02*
X105513093Y-57725729D01*
X104098879Y-59139943D01*
X103420057Y-58461121D01*
X104834271Y-57046907D01*
X104834271Y-57046907D01*
G37*
D13*
X105032260Y-58659111D03*
D10*
G36*
X105399956Y-57612593D02*
X106078778Y-58291415D01*
X104664564Y-59705629D01*
X103985742Y-59026807D01*
X105399956Y-57612593D01*
X105399956Y-57612593D01*
G37*
D13*
X105597946Y-59224796D03*
D10*
G36*
X105965642Y-58178278D02*
X106644464Y-58857100D01*
X105230250Y-60271314D01*
X104551428Y-59592492D01*
X105965642Y-58178278D01*
X105965642Y-58178278D01*
G37*
D13*
X106163631Y-59790482D03*
D10*
G36*
X106531327Y-58743964D02*
X107210149Y-59422786D01*
X105795935Y-60837000D01*
X105117113Y-60158178D01*
X106531327Y-58743964D01*
X106531327Y-58743964D01*
G37*
D13*
X106729316Y-60356167D03*
D10*
G36*
X107097012Y-59309649D02*
X107775834Y-59988471D01*
X106361620Y-61402685D01*
X105682798Y-60723863D01*
X107097012Y-59309649D01*
X107097012Y-59309649D01*
G37*
D13*
X107295002Y-60921852D03*
D10*
G36*
X107662698Y-59875334D02*
X108341520Y-60554156D01*
X106927306Y-61968370D01*
X106248484Y-61289548D01*
X107662698Y-59875334D01*
X107662698Y-59875334D01*
G37*
D13*
X107295002Y-63538148D03*
D10*
G36*
X106248484Y-63170452D02*
X106927306Y-62491630D01*
X108341520Y-63905844D01*
X107662698Y-64584666D01*
X106248484Y-63170452D01*
X106248484Y-63170452D01*
G37*
D13*
X106729316Y-64103833D03*
D10*
G36*
X105682798Y-63736137D02*
X106361620Y-63057315D01*
X107775834Y-64471529D01*
X107097012Y-65150351D01*
X105682798Y-63736137D01*
X105682798Y-63736137D01*
G37*
D13*
X106163631Y-64669518D03*
D10*
G36*
X105117113Y-64301822D02*
X105795935Y-63623000D01*
X107210149Y-65037214D01*
X106531327Y-65716036D01*
X105117113Y-64301822D01*
X105117113Y-64301822D01*
G37*
D13*
X105597946Y-65235204D03*
D10*
G36*
X104551428Y-64867508D02*
X105230250Y-64188686D01*
X106644464Y-65602900D01*
X105965642Y-66281722D01*
X104551428Y-64867508D01*
X104551428Y-64867508D01*
G37*
D13*
X105032260Y-65800889D03*
D10*
G36*
X103985742Y-65433193D02*
X104664564Y-64754371D01*
X106078778Y-66168585D01*
X105399956Y-66847407D01*
X103985742Y-65433193D01*
X103985742Y-65433193D01*
G37*
D13*
X104466575Y-66366575D03*
D10*
G36*
X103420057Y-65998879D02*
X104098879Y-65320057D01*
X105513093Y-66734271D01*
X104834271Y-67413093D01*
X103420057Y-65998879D01*
X103420057Y-65998879D01*
G37*
D13*
X103900889Y-66932260D03*
D10*
G36*
X102854371Y-66564564D02*
X103533193Y-65885742D01*
X104947407Y-67299956D01*
X104268585Y-67978778D01*
X102854371Y-66564564D01*
X102854371Y-66564564D01*
G37*
D13*
X103335204Y-67497946D03*
D10*
G36*
X102288686Y-67130250D02*
X102967508Y-66451428D01*
X104381722Y-67865642D01*
X103702900Y-68544464D01*
X102288686Y-67130250D01*
X102288686Y-67130250D01*
G37*
D13*
X102769518Y-68063631D03*
D10*
G36*
X101723000Y-67695935D02*
X102401822Y-67017113D01*
X103816036Y-68431327D01*
X103137214Y-69110149D01*
X101723000Y-67695935D01*
X101723000Y-67695935D01*
G37*
D13*
X102203833Y-68629316D03*
D10*
G36*
X101157315Y-68261620D02*
X101836137Y-67582798D01*
X103250351Y-68997012D01*
X102571529Y-69675834D01*
X101157315Y-68261620D01*
X101157315Y-68261620D01*
G37*
D13*
X101638148Y-69195002D03*
D10*
G36*
X100591630Y-68827306D02*
X101270452Y-68148484D01*
X102684666Y-69562698D01*
X102005844Y-70241520D01*
X100591630Y-68827306D01*
X100591630Y-68827306D01*
G37*
D13*
X99021852Y-69195002D03*
D10*
G36*
X99389548Y-68148484D02*
X100068370Y-68827306D01*
X98654156Y-70241520D01*
X97975334Y-69562698D01*
X99389548Y-68148484D01*
X99389548Y-68148484D01*
G37*
D13*
X98456167Y-68629316D03*
D10*
G36*
X98823863Y-67582798D02*
X99502685Y-68261620D01*
X98088471Y-69675834D01*
X97409649Y-68997012D01*
X98823863Y-67582798D01*
X98823863Y-67582798D01*
G37*
D13*
X97890482Y-68063631D03*
D10*
G36*
X98258178Y-67017113D02*
X98937000Y-67695935D01*
X97522786Y-69110149D01*
X96843964Y-68431327D01*
X98258178Y-67017113D01*
X98258178Y-67017113D01*
G37*
D13*
X97324796Y-67497946D03*
D10*
G36*
X97692492Y-66451428D02*
X98371314Y-67130250D01*
X96957100Y-68544464D01*
X96278278Y-67865642D01*
X97692492Y-66451428D01*
X97692492Y-66451428D01*
G37*
D13*
X96759111Y-66932260D03*
D10*
G36*
X97126807Y-65885742D02*
X97805629Y-66564564D01*
X96391415Y-67978778D01*
X95712593Y-67299956D01*
X97126807Y-65885742D01*
X97126807Y-65885742D01*
G37*
D13*
X96193425Y-66366575D03*
D10*
G36*
X96561121Y-65320057D02*
X97239943Y-65998879D01*
X95825729Y-67413093D01*
X95146907Y-66734271D01*
X96561121Y-65320057D01*
X96561121Y-65320057D01*
G37*
D13*
X95627740Y-65800889D03*
D10*
G36*
X95995436Y-64754371D02*
X96674258Y-65433193D01*
X95260044Y-66847407D01*
X94581222Y-66168585D01*
X95995436Y-64754371D01*
X95995436Y-64754371D01*
G37*
D13*
X95062054Y-65235204D03*
D10*
G36*
X95429750Y-64188686D02*
X96108572Y-64867508D01*
X94694358Y-66281722D01*
X94015536Y-65602900D01*
X95429750Y-64188686D01*
X95429750Y-64188686D01*
G37*
D13*
X94496369Y-64669518D03*
D10*
G36*
X94864065Y-63623000D02*
X95542887Y-64301822D01*
X94128673Y-65716036D01*
X93449851Y-65037214D01*
X94864065Y-63623000D01*
X94864065Y-63623000D01*
G37*
D13*
X93930684Y-64103833D03*
D10*
G36*
X94298380Y-63057315D02*
X94977202Y-63736137D01*
X93562988Y-65150351D01*
X92884166Y-64471529D01*
X94298380Y-63057315D01*
X94298380Y-63057315D01*
G37*
D13*
X93364998Y-63538148D03*
D10*
G36*
X93732694Y-62491630D02*
X94411516Y-63170452D01*
X92997302Y-64584666D01*
X92318480Y-63905844D01*
X93732694Y-62491630D01*
X93732694Y-62491630D01*
G37*
D14*
X111125000Y-83185000D03*
D15*
X111125000Y-80645000D03*
D16*
X108585000Y-50800000D03*
D17*
X111125000Y-50800000D03*
X108585000Y-48260000D03*
X111125000Y-48260000D03*
X108585000Y-45720000D03*
X111125000Y-45720000D03*
D18*
X106575330Y-57045330D03*
D10*
G36*
X107406180Y-57063008D02*
X106593008Y-57876180D01*
X105744480Y-57027652D01*
X106557652Y-56214480D01*
X107406180Y-57063008D01*
X107406180Y-57063008D01*
G37*
D18*
X105514670Y-55984670D03*
D10*
G36*
X106345520Y-56002348D02*
X105532348Y-56815520D01*
X104683820Y-55966992D01*
X105496992Y-55153820D01*
X106345520Y-56002348D01*
X106345520Y-56002348D01*
G37*
D18*
X93875330Y-67205330D03*
D10*
G36*
X93044480Y-67187652D02*
X93857652Y-66374480D01*
X94706180Y-67223008D01*
X93893008Y-68036180D01*
X93044480Y-67187652D01*
X93044480Y-67187652D01*
G37*
D18*
X92814670Y-66144670D03*
D10*
G36*
X91983820Y-66126992D02*
X92796992Y-65313820D01*
X93645520Y-66162348D01*
X92832348Y-66975520D01*
X91983820Y-66126992D01*
X91983820Y-66126992D01*
G37*
D18*
X94576370Y-56436790D03*
D10*
G36*
X94594048Y-55605940D02*
X95407220Y-56419112D01*
X94558692Y-57267640D01*
X93745520Y-56454468D01*
X94594048Y-55605940D01*
X94594048Y-55605940D01*
G37*
D18*
X93515710Y-57497450D03*
D10*
G36*
X93533388Y-56666600D02*
X94346560Y-57479772D01*
X93498032Y-58328300D01*
X92684860Y-57515128D01*
X93533388Y-56666600D01*
X93533388Y-56666600D01*
G37*
D19*
X97790000Y-73140000D03*
X97790000Y-71640000D03*
X88900000Y-65290000D03*
X88900000Y-66790000D03*
D20*
X110236000Y-41402000D03*
D21*
X108236000Y-41402000D03*
D22*
X95135000Y-75311000D03*
X96635000Y-75311000D03*
X96635000Y-77343000D03*
X95135000Y-77343000D03*
D23*
X90805000Y-66790000D03*
X90805000Y-65290000D03*
D24*
X90010000Y-73025000D03*
X90010000Y-71755000D03*
X90010000Y-70485000D03*
X90010000Y-69215000D03*
X95410000Y-69215000D03*
X95410000Y-70485000D03*
X95410000Y-71755000D03*
X95410000Y-73025000D03*
D25*
X89278000Y-36448000D03*
X89278000Y-43308000D03*
D26*
X91948000Y-42375940D03*
X91948000Y-37375940D03*
D27*
X102616338Y-74548662D03*
D10*
G36*
X101378859Y-77554318D02*
X99610682Y-75786141D01*
X103853817Y-71543006D01*
X105621994Y-73311183D01*
X101378859Y-77554318D01*
X101378859Y-77554318D01*
G37*
D27*
X109473662Y-67691338D03*
D10*
G36*
X108236183Y-70696994D02*
X106468006Y-68928817D01*
X110711141Y-64685682D01*
X112479318Y-66453859D01*
X108236183Y-70696994D01*
X108236183Y-70696994D01*
G37*
D28*
X91440000Y-83185000D03*
X91440000Y-80645000D03*
X91440000Y-78105000D03*
X91440000Y-75565000D03*
D29*
X111760000Y-57284000D03*
X111760000Y-58584000D03*
X111760000Y-59884000D03*
X111760000Y-61184000D03*
X111760000Y-62484000D03*
X111760000Y-77343000D03*
X111760000Y-76043000D03*
X111760000Y-74743000D03*
X111760000Y-73443000D03*
X111760000Y-72143000D03*
X109982000Y-72106000D03*
X109982000Y-73406000D03*
X109982000Y-57277000D03*
X109982000Y-58577000D03*
X109982000Y-76043000D03*
X109982000Y-77343000D03*
X109982000Y-62484000D03*
X109982000Y-61184000D03*
D30*
X91178740Y-46631020D03*
X91178740Y-53431020D03*
M02*
