G04 #@! TF.GenerationSoftware,KiCad,Pcbnew,(2017-01-24 revision 0b6147e)-makepkg*
G04 #@! TF.CreationDate,2017-01-30T11:51:46-08:00*
G04 #@! TF.ProjectId,derbyFX,646572627946582E6B696361645F7063,rev?*
G04 #@! TF.FileFunction,Soldermask,Bot*
G04 #@! TF.FilePolarity,Negative*
%FSLAX46Y46*%
G04 Gerber Fmt 4.6, Leading zero omitted, Abs format (unit mm)*
G04 Created by KiCad (PCBNEW (2017-01-24 revision 0b6147e)-makepkg) date 01/30/17 11:51:46*
%MOMM*%
%LPD*%
G01*
G04 APERTURE LIST*
%ADD10C,0.100000*%
%ADD11C,0.960000*%
%ADD12R,2.432000X2.432000*%
%ADD13O,2.432000X2.432000*%
%ADD14C,2.127200*%
%ADD15O,2.127200X2.127200*%
%ADD16C,1.150000*%
%ADD17R,1.150000X1.200000*%
%ADD18R,1.600000X2.100000*%
%ADD19O,1.600000X2.100000*%
%ADD20R,0.900000X1.300000*%
%ADD21R,1.300000X0.900000*%
%ADD22R,1.950000X1.000000*%
%ADD23C,1.650006*%
%ADD24C,1.504000*%
%ADD25C,2.500580*%
%ADD26O,2.432000X2.127200*%
%ADD27C,1.500000*%
%ADD28C,1.300000*%
G04 APERTURE END LIST*
D10*
D11*
X93364998Y-60921852D03*
D10*
G36*
X92318480Y-60554156D02*
X92997302Y-59875334D01*
X94411516Y-61289548D01*
X93732694Y-61968370D01*
X92318480Y-60554156D01*
X92318480Y-60554156D01*
G37*
D11*
X93930684Y-60356167D03*
D10*
G36*
X92884166Y-59988471D02*
X93562988Y-59309649D01*
X94977202Y-60723863D01*
X94298380Y-61402685D01*
X92884166Y-59988471D01*
X92884166Y-59988471D01*
G37*
D11*
X94496369Y-59790482D03*
D10*
G36*
X93449851Y-59422786D02*
X94128673Y-58743964D01*
X95542887Y-60158178D01*
X94864065Y-60837000D01*
X93449851Y-59422786D01*
X93449851Y-59422786D01*
G37*
D11*
X95062054Y-59224796D03*
D10*
G36*
X94015536Y-58857100D02*
X94694358Y-58178278D01*
X96108572Y-59592492D01*
X95429750Y-60271314D01*
X94015536Y-58857100D01*
X94015536Y-58857100D01*
G37*
D11*
X95627740Y-58659111D03*
D10*
G36*
X94581222Y-58291415D02*
X95260044Y-57612593D01*
X96674258Y-59026807D01*
X95995436Y-59705629D01*
X94581222Y-58291415D01*
X94581222Y-58291415D01*
G37*
D11*
X96193425Y-58093425D03*
D10*
G36*
X95146907Y-57725729D02*
X95825729Y-57046907D01*
X97239943Y-58461121D01*
X96561121Y-59139943D01*
X95146907Y-57725729D01*
X95146907Y-57725729D01*
G37*
D11*
X96759111Y-57527740D03*
D10*
G36*
X95712593Y-57160044D02*
X96391415Y-56481222D01*
X97805629Y-57895436D01*
X97126807Y-58574258D01*
X95712593Y-57160044D01*
X95712593Y-57160044D01*
G37*
D11*
X97324796Y-56962054D03*
D10*
G36*
X96278278Y-56594358D02*
X96957100Y-55915536D01*
X98371314Y-57329750D01*
X97692492Y-58008572D01*
X96278278Y-56594358D01*
X96278278Y-56594358D01*
G37*
D11*
X97890482Y-56396369D03*
D10*
G36*
X96843964Y-56028673D02*
X97522786Y-55349851D01*
X98937000Y-56764065D01*
X98258178Y-57442887D01*
X96843964Y-56028673D01*
X96843964Y-56028673D01*
G37*
D11*
X98456167Y-55830684D03*
D10*
G36*
X97409649Y-55462988D02*
X98088471Y-54784166D01*
X99502685Y-56198380D01*
X98823863Y-56877202D01*
X97409649Y-55462988D01*
X97409649Y-55462988D01*
G37*
D11*
X99021852Y-55264998D03*
D10*
G36*
X97975334Y-54897302D02*
X98654156Y-54218480D01*
X100068370Y-55632694D01*
X99389548Y-56311516D01*
X97975334Y-54897302D01*
X97975334Y-54897302D01*
G37*
D11*
X101638148Y-55264998D03*
D10*
G36*
X102005844Y-54218480D02*
X102684666Y-54897302D01*
X101270452Y-56311516D01*
X100591630Y-55632694D01*
X102005844Y-54218480D01*
X102005844Y-54218480D01*
G37*
D11*
X102203833Y-55830684D03*
D10*
G36*
X102571529Y-54784166D02*
X103250351Y-55462988D01*
X101836137Y-56877202D01*
X101157315Y-56198380D01*
X102571529Y-54784166D01*
X102571529Y-54784166D01*
G37*
D11*
X102769518Y-56396369D03*
D10*
G36*
X103137214Y-55349851D02*
X103816036Y-56028673D01*
X102401822Y-57442887D01*
X101723000Y-56764065D01*
X103137214Y-55349851D01*
X103137214Y-55349851D01*
G37*
D11*
X103335204Y-56962054D03*
D10*
G36*
X103702900Y-55915536D02*
X104381722Y-56594358D01*
X102967508Y-58008572D01*
X102288686Y-57329750D01*
X103702900Y-55915536D01*
X103702900Y-55915536D01*
G37*
D11*
X103900889Y-57527740D03*
D10*
G36*
X104268585Y-56481222D02*
X104947407Y-57160044D01*
X103533193Y-58574258D01*
X102854371Y-57895436D01*
X104268585Y-56481222D01*
X104268585Y-56481222D01*
G37*
D11*
X104466575Y-58093425D03*
D10*
G36*
X104834271Y-57046907D02*
X105513093Y-57725729D01*
X104098879Y-59139943D01*
X103420057Y-58461121D01*
X104834271Y-57046907D01*
X104834271Y-57046907D01*
G37*
D11*
X105032260Y-58659111D03*
D10*
G36*
X105399956Y-57612593D02*
X106078778Y-58291415D01*
X104664564Y-59705629D01*
X103985742Y-59026807D01*
X105399956Y-57612593D01*
X105399956Y-57612593D01*
G37*
D11*
X105597946Y-59224796D03*
D10*
G36*
X105965642Y-58178278D02*
X106644464Y-58857100D01*
X105230250Y-60271314D01*
X104551428Y-59592492D01*
X105965642Y-58178278D01*
X105965642Y-58178278D01*
G37*
D11*
X106163631Y-59790482D03*
D10*
G36*
X106531327Y-58743964D02*
X107210149Y-59422786D01*
X105795935Y-60837000D01*
X105117113Y-60158178D01*
X106531327Y-58743964D01*
X106531327Y-58743964D01*
G37*
D11*
X106729316Y-60356167D03*
D10*
G36*
X107097012Y-59309649D02*
X107775834Y-59988471D01*
X106361620Y-61402685D01*
X105682798Y-60723863D01*
X107097012Y-59309649D01*
X107097012Y-59309649D01*
G37*
D11*
X107295002Y-60921852D03*
D10*
G36*
X107662698Y-59875334D02*
X108341520Y-60554156D01*
X106927306Y-61968370D01*
X106248484Y-61289548D01*
X107662698Y-59875334D01*
X107662698Y-59875334D01*
G37*
D11*
X107295002Y-63538148D03*
D10*
G36*
X106248484Y-63170452D02*
X106927306Y-62491630D01*
X108341520Y-63905844D01*
X107662698Y-64584666D01*
X106248484Y-63170452D01*
X106248484Y-63170452D01*
G37*
D11*
X106729316Y-64103833D03*
D10*
G36*
X105682798Y-63736137D02*
X106361620Y-63057315D01*
X107775834Y-64471529D01*
X107097012Y-65150351D01*
X105682798Y-63736137D01*
X105682798Y-63736137D01*
G37*
D11*
X106163631Y-64669518D03*
D10*
G36*
X105117113Y-64301822D02*
X105795935Y-63623000D01*
X107210149Y-65037214D01*
X106531327Y-65716036D01*
X105117113Y-64301822D01*
X105117113Y-64301822D01*
G37*
D11*
X105597946Y-65235204D03*
D10*
G36*
X104551428Y-64867508D02*
X105230250Y-64188686D01*
X106644464Y-65602900D01*
X105965642Y-66281722D01*
X104551428Y-64867508D01*
X104551428Y-64867508D01*
G37*
D11*
X105032260Y-65800889D03*
D10*
G36*
X103985742Y-65433193D02*
X104664564Y-64754371D01*
X106078778Y-66168585D01*
X105399956Y-66847407D01*
X103985742Y-65433193D01*
X103985742Y-65433193D01*
G37*
D11*
X104466575Y-66366575D03*
D10*
G36*
X103420057Y-65998879D02*
X104098879Y-65320057D01*
X105513093Y-66734271D01*
X104834271Y-67413093D01*
X103420057Y-65998879D01*
X103420057Y-65998879D01*
G37*
D11*
X103900889Y-66932260D03*
D10*
G36*
X102854371Y-66564564D02*
X103533193Y-65885742D01*
X104947407Y-67299956D01*
X104268585Y-67978778D01*
X102854371Y-66564564D01*
X102854371Y-66564564D01*
G37*
D11*
X103335204Y-67497946D03*
D10*
G36*
X102288686Y-67130250D02*
X102967508Y-66451428D01*
X104381722Y-67865642D01*
X103702900Y-68544464D01*
X102288686Y-67130250D01*
X102288686Y-67130250D01*
G37*
D11*
X102769518Y-68063631D03*
D10*
G36*
X101723000Y-67695935D02*
X102401822Y-67017113D01*
X103816036Y-68431327D01*
X103137214Y-69110149D01*
X101723000Y-67695935D01*
X101723000Y-67695935D01*
G37*
D11*
X102203833Y-68629316D03*
D10*
G36*
X101157315Y-68261620D02*
X101836137Y-67582798D01*
X103250351Y-68997012D01*
X102571529Y-69675834D01*
X101157315Y-68261620D01*
X101157315Y-68261620D01*
G37*
D11*
X101638148Y-69195002D03*
D10*
G36*
X100591630Y-68827306D02*
X101270452Y-68148484D01*
X102684666Y-69562698D01*
X102005844Y-70241520D01*
X100591630Y-68827306D01*
X100591630Y-68827306D01*
G37*
D11*
X99021852Y-69195002D03*
D10*
G36*
X99389548Y-68148484D02*
X100068370Y-68827306D01*
X98654156Y-70241520D01*
X97975334Y-69562698D01*
X99389548Y-68148484D01*
X99389548Y-68148484D01*
G37*
D11*
X98456167Y-68629316D03*
D10*
G36*
X98823863Y-67582798D02*
X99502685Y-68261620D01*
X98088471Y-69675834D01*
X97409649Y-68997012D01*
X98823863Y-67582798D01*
X98823863Y-67582798D01*
G37*
D11*
X97890482Y-68063631D03*
D10*
G36*
X98258178Y-67017113D02*
X98937000Y-67695935D01*
X97522786Y-69110149D01*
X96843964Y-68431327D01*
X98258178Y-67017113D01*
X98258178Y-67017113D01*
G37*
D11*
X97324796Y-67497946D03*
D10*
G36*
X97692492Y-66451428D02*
X98371314Y-67130250D01*
X96957100Y-68544464D01*
X96278278Y-67865642D01*
X97692492Y-66451428D01*
X97692492Y-66451428D01*
G37*
D11*
X96759111Y-66932260D03*
D10*
G36*
X97126807Y-65885742D02*
X97805629Y-66564564D01*
X96391415Y-67978778D01*
X95712593Y-67299956D01*
X97126807Y-65885742D01*
X97126807Y-65885742D01*
G37*
D11*
X96193425Y-66366575D03*
D10*
G36*
X96561121Y-65320057D02*
X97239943Y-65998879D01*
X95825729Y-67413093D01*
X95146907Y-66734271D01*
X96561121Y-65320057D01*
X96561121Y-65320057D01*
G37*
D11*
X95627740Y-65800889D03*
D10*
G36*
X95995436Y-64754371D02*
X96674258Y-65433193D01*
X95260044Y-66847407D01*
X94581222Y-66168585D01*
X95995436Y-64754371D01*
X95995436Y-64754371D01*
G37*
D11*
X95062054Y-65235204D03*
D10*
G36*
X95429750Y-64188686D02*
X96108572Y-64867508D01*
X94694358Y-66281722D01*
X94015536Y-65602900D01*
X95429750Y-64188686D01*
X95429750Y-64188686D01*
G37*
D11*
X94496369Y-64669518D03*
D10*
G36*
X94864065Y-63623000D02*
X95542887Y-64301822D01*
X94128673Y-65716036D01*
X93449851Y-65037214D01*
X94864065Y-63623000D01*
X94864065Y-63623000D01*
G37*
D11*
X93930684Y-64103833D03*
D10*
G36*
X94298380Y-63057315D02*
X94977202Y-63736137D01*
X93562988Y-65150351D01*
X92884166Y-64471529D01*
X94298380Y-63057315D01*
X94298380Y-63057315D01*
G37*
D11*
X93364998Y-63538148D03*
D10*
G36*
X93732694Y-62491630D02*
X94411516Y-63170452D01*
X92997302Y-64584666D01*
X92318480Y-63905844D01*
X93732694Y-62491630D01*
X93732694Y-62491630D01*
G37*
D12*
X111125000Y-83185000D03*
D13*
X111125000Y-80645000D03*
D14*
X108585000Y-50800000D03*
D15*
X111125000Y-50800000D03*
X108585000Y-48260000D03*
X111125000Y-48260000D03*
X108585000Y-45720000D03*
X111125000Y-45720000D03*
D16*
X106575330Y-57045330D03*
D10*
G36*
X107406180Y-57063008D02*
X106593008Y-57876180D01*
X105744480Y-57027652D01*
X106557652Y-56214480D01*
X107406180Y-57063008D01*
X107406180Y-57063008D01*
G37*
D16*
X105514670Y-55984670D03*
D10*
G36*
X106345520Y-56002348D02*
X105532348Y-56815520D01*
X104683820Y-55966992D01*
X105496992Y-55153820D01*
X106345520Y-56002348D01*
X106345520Y-56002348D01*
G37*
D16*
X93875330Y-67205330D03*
D10*
G36*
X93044480Y-67187652D02*
X93857652Y-66374480D01*
X94706180Y-67223008D01*
X93893008Y-68036180D01*
X93044480Y-67187652D01*
X93044480Y-67187652D01*
G37*
D16*
X92814670Y-66144670D03*
D10*
G36*
X91983820Y-66126992D02*
X92796992Y-65313820D01*
X93645520Y-66162348D01*
X92832348Y-66975520D01*
X91983820Y-66126992D01*
X91983820Y-66126992D01*
G37*
D16*
X94576370Y-56436790D03*
D10*
G36*
X94594048Y-55605940D02*
X95407220Y-56419112D01*
X94558692Y-57267640D01*
X93745520Y-56454468D01*
X94594048Y-55605940D01*
X94594048Y-55605940D01*
G37*
D16*
X93515710Y-57497450D03*
D10*
G36*
X93533388Y-56666600D02*
X94346560Y-57479772D01*
X93498032Y-58328300D01*
X92684860Y-57515128D01*
X93533388Y-56666600D01*
X93533388Y-56666600D01*
G37*
D17*
X97790000Y-73140000D03*
X97790000Y-71640000D03*
X88900000Y-65290000D03*
X88900000Y-66790000D03*
D18*
X110236000Y-41402000D03*
D19*
X108236000Y-41402000D03*
D20*
X95135000Y-75311000D03*
X96635000Y-75311000D03*
X96635000Y-77343000D03*
X95135000Y-77343000D03*
D21*
X90805000Y-66790000D03*
X90805000Y-65290000D03*
D22*
X90010000Y-73025000D03*
X90010000Y-71755000D03*
X90010000Y-70485000D03*
X90010000Y-69215000D03*
X95410000Y-69215000D03*
X95410000Y-70485000D03*
X95410000Y-71755000D03*
X95410000Y-73025000D03*
D23*
X89278000Y-36448000D03*
X89278000Y-43308000D03*
D24*
X91948000Y-42375940D03*
X91948000Y-37375940D03*
D25*
X102616338Y-74548662D03*
D10*
G36*
X101378859Y-77554318D02*
X99610682Y-75786141D01*
X103853817Y-71543006D01*
X105621994Y-73311183D01*
X101378859Y-77554318D01*
X101378859Y-77554318D01*
G37*
D25*
X109473662Y-67691338D03*
D10*
G36*
X108236183Y-70696994D02*
X106468006Y-68928817D01*
X110711141Y-64685682D01*
X112479318Y-66453859D01*
X108236183Y-70696994D01*
X108236183Y-70696994D01*
G37*
D26*
X91440000Y-83185000D03*
X91440000Y-80645000D03*
X91440000Y-78105000D03*
X91440000Y-75565000D03*
D27*
X111760000Y-57284000D03*
X111760000Y-58584000D03*
X111760000Y-59884000D03*
X111760000Y-61184000D03*
X111760000Y-62484000D03*
X111760000Y-77343000D03*
X111760000Y-76043000D03*
X111760000Y-74743000D03*
X111760000Y-73443000D03*
X111760000Y-72143000D03*
X109982000Y-72106000D03*
X109982000Y-73406000D03*
X109982000Y-57277000D03*
X109982000Y-58577000D03*
X109982000Y-76043000D03*
X109982000Y-77343000D03*
X109982000Y-62484000D03*
X109982000Y-61184000D03*
D28*
X91178740Y-46631020D03*
X91178740Y-53431020D03*
M02*
