G04 #@! TF.GenerationSoftware,KiCad,Pcbnew,(2017-01-24 revision 0b6147e)-makepkg*
G04 #@! TF.CreationDate,2017-01-30T11:51:45-08:00*
G04 #@! TF.ProjectId,derbyFX,646572627946582E6B696361645F7063,rev?*
G04 #@! TF.FileFunction,Copper,L1,Top,Signal*
G04 #@! TF.FilePolarity,Positive*
%FSLAX46Y46*%
G04 Gerber Fmt 4.6, Leading zero omitted, Abs format (unit mm)*
G04 Created by KiCad (PCBNEW (2017-01-24 revision 0b6147e)-makepkg) date 01/30/17 11:51:45*
%MOMM*%
%LPD*%
G01*
G04 APERTURE LIST*
%ADD10C,0.100000*%
%ADD11R,0.850000X0.250000*%
%ADD12R,0.250000X0.850000*%
%ADD13R,2.032000X2.032000*%
%ADD14O,2.032000X2.032000*%
%ADD15C,1.727200*%
%ADD16O,1.727200X1.727200*%
%ADD17R,1.000000X1.250000*%
%ADD18R,1.049020X0.647700*%
%ADD19R,0.750000X0.800000*%
%ADD20R,1.250000X1.000000*%
%ADD21R,1.600000X1.000000*%
%ADD22R,0.800000X0.750000*%
%ADD23R,0.700000X1.300000*%
%ADD24R,0.400000X0.700000*%
%ADD25R,0.797560X0.797560*%
%ADD26R,1.200000X1.700000*%
%ADD27O,1.200000X1.700000*%
%ADD28R,0.500000X0.900000*%
%ADD29R,0.900000X0.500000*%
%ADD30R,1.750000X0.700000*%
%ADD31R,1.500000X1.300000*%
%ADD32R,1.500000X0.800000*%
%ADD33R,1.400000X0.800000*%
%ADD34R,1.550000X1.000000*%
%ADD35R,1.000000X1.400000*%
%ADD36R,1.060000X0.650000*%
%ADD37R,3.657600X2.032000*%
%ADD38R,1.016000X2.032000*%
%ADD39R,1.450000X0.450000*%
%ADD40R,1.200000X1.200000*%
%ADD41R,1.600000X1.500000*%
%ADD42R,1.348740X0.398780*%
%ADD43R,1.899920X1.899920*%
%ADD44C,1.650000*%
%ADD45C,1.250000*%
%ADD46O,2.032000X1.727200*%
%ADD47C,1.100000*%
%ADD48R,1.400000X1.200000*%
%ADD49C,0.800000*%
%ADD50C,0.508000*%
%ADD51C,0.254000*%
%ADD52C,0.762000*%
%ADD53C,0.381000*%
%ADD54C,1.270000*%
%ADD55C,0.635000*%
G04 APERTURE END LIST*
D10*
D11*
X101805000Y-57920000D03*
X101805000Y-58420000D03*
X101805000Y-58920000D03*
D12*
X101330000Y-59895000D03*
X100830000Y-59895000D03*
X100330000Y-59895000D03*
X99830000Y-59895000D03*
X99330000Y-59895000D03*
D11*
X98855000Y-58920000D03*
X98855000Y-58420000D03*
X98855000Y-57920000D03*
D12*
X99330000Y-56945000D03*
X99830000Y-56945000D03*
X100330000Y-56945000D03*
X100830000Y-56945000D03*
X101330000Y-56945000D03*
D13*
X111125000Y-83185000D03*
D14*
X111125000Y-80645000D03*
D15*
X108585000Y-50800000D03*
D16*
X111125000Y-50800000D03*
X108585000Y-48260000D03*
X111125000Y-48260000D03*
X108585000Y-45720000D03*
X111125000Y-45720000D03*
D17*
X105775000Y-57785000D03*
X103775000Y-57785000D03*
D18*
X92877640Y-58224420D03*
X88732360Y-58224420D03*
X92877640Y-56075580D03*
X88732360Y-56075580D03*
D19*
X102235000Y-64655000D03*
X102235000Y-66155000D03*
D20*
X94742000Y-38084000D03*
X94742000Y-36084000D03*
D21*
X103632000Y-38838000D03*
X103632000Y-35838000D03*
D22*
X101842000Y-44196000D03*
X100342000Y-44196000D03*
X98540000Y-44196000D03*
X97040000Y-44196000D03*
D21*
X105410000Y-49760000D03*
X105410000Y-46760000D03*
D22*
X103644000Y-59690000D03*
X105144000Y-59690000D03*
X95135000Y-75311000D03*
X96635000Y-75311000D03*
X99810000Y-75311000D03*
X98310000Y-75311000D03*
D19*
X101473000Y-81800000D03*
X101473000Y-83300000D03*
X107315000Y-79260000D03*
X107315000Y-80760000D03*
X107315000Y-83935000D03*
X107315000Y-82435000D03*
D23*
X105090000Y-83185000D03*
X103190000Y-83185000D03*
X105090000Y-80645000D03*
X103190000Y-80645000D03*
D24*
X94270600Y-40614600D03*
X94970600Y-40614600D03*
X94970600Y-41914600D03*
X94270600Y-41914600D03*
D25*
X104140000Y-42405300D03*
X104140000Y-40906700D03*
D26*
X110236000Y-41402000D03*
D27*
X108236000Y-41402000D03*
D28*
X93865000Y-53975000D03*
X95365000Y-53975000D03*
D29*
X100203000Y-39509000D03*
X100203000Y-41009000D03*
D28*
X95492000Y-44196000D03*
X93992000Y-44196000D03*
D29*
X97917000Y-40997000D03*
X97917000Y-39497000D03*
D28*
X104890000Y-44196000D03*
X103390000Y-44196000D03*
X94500000Y-79375000D03*
X96000000Y-79375000D03*
D29*
X108585000Y-53225000D03*
X108585000Y-54725000D03*
D28*
X96635000Y-77343000D03*
X95135000Y-77343000D03*
X98310000Y-77343000D03*
X99810000Y-77343000D03*
D29*
X111125000Y-53225000D03*
X111125000Y-54725000D03*
D30*
X89161620Y-62745620D03*
X89161620Y-63845620D03*
X89161620Y-64945620D03*
X89161620Y-66045620D03*
X89161620Y-67145620D03*
X89161620Y-68245620D03*
X89161620Y-69345620D03*
X89161620Y-70445620D03*
D31*
X89286620Y-72795620D03*
X89286620Y-61545620D03*
D32*
X96886620Y-61295620D03*
D33*
X97536620Y-73045620D03*
D34*
X99961620Y-72695620D03*
D35*
X98386620Y-61595620D03*
D36*
X100160000Y-37780000D03*
X100160000Y-36830000D03*
X100160000Y-35880000D03*
X97960000Y-35880000D03*
X97960000Y-37780000D03*
D37*
X100330000Y-53467000D03*
D38*
X100330000Y-46863000D03*
X98044000Y-46863000D03*
X102616000Y-46863000D03*
D39*
X94955000Y-81575000D03*
X94955000Y-82225000D03*
X94955000Y-82875000D03*
X94955000Y-83525000D03*
X99355000Y-83525000D03*
X99355000Y-82875000D03*
X99355000Y-82225000D03*
X99355000Y-81575000D03*
D40*
X104493060Y-72722740D03*
X102493060Y-72722740D03*
D41*
X103493060Y-75962740D03*
D42*
X91948000Y-38580060D03*
X91948000Y-39230300D03*
X91948000Y-39878000D03*
X91948000Y-40525700D03*
X91948000Y-41175940D03*
D43*
X89273380Y-38679120D03*
X89273380Y-41076880D03*
D44*
X89278000Y-36448000D03*
X89278000Y-43308000D03*
D45*
X91948000Y-42375940D03*
X91948000Y-37375940D03*
D46*
X91440000Y-83185000D03*
X91440000Y-80645000D03*
X91440000Y-78105000D03*
X91440000Y-75565000D03*
D47*
X111760000Y-57284000D03*
X111760000Y-58584000D03*
X111760000Y-59884000D03*
X111760000Y-61184000D03*
X111760000Y-62484000D03*
X111760000Y-77343000D03*
X111760000Y-76043000D03*
X111760000Y-74743000D03*
X111760000Y-73443000D03*
X111760000Y-72143000D03*
X109982000Y-72106000D03*
X109982000Y-73406000D03*
X109982000Y-57277000D03*
X109982000Y-58577000D03*
X109982000Y-76043000D03*
X109982000Y-77343000D03*
X109982000Y-62484000D03*
X109982000Y-61184000D03*
D48*
X88978740Y-47531020D03*
X88978740Y-52531020D03*
X93378740Y-50031020D03*
D49*
X106174540Y-82163920D03*
X93337380Y-68267580D03*
X106786680Y-55463438D03*
X102831900Y-62806580D03*
X104914424Y-60924269D03*
X99598302Y-61002403D03*
X101455220Y-61033660D03*
X100667821Y-58696860D03*
X91744800Y-57170320D03*
X97061020Y-59448700D03*
X92090240Y-59425840D03*
X97564914Y-52763597D03*
X98064972Y-82001856D03*
X93345000Y-40513000D03*
X93345000Y-42545000D03*
X89560400Y-60020200D03*
X91795600Y-64312800D03*
X98983800Y-71297800D03*
X91516200Y-70002400D03*
X89052400Y-74371200D03*
X102565200Y-81915000D03*
X108585000Y-79248000D03*
X103860600Y-64668400D03*
X105410000Y-47980600D03*
X101624000Y-36830000D03*
X93776800Y-35179000D03*
X95707200Y-35153600D03*
X93370400Y-41579800D03*
X103555800Y-48107600D03*
X105714800Y-45466000D03*
X105181400Y-38811200D03*
X102438200Y-40106600D03*
X101854000Y-43002200D03*
X96520000Y-41275000D03*
X97078800Y-45186600D03*
X93726000Y-45593000D03*
X102952412Y-61169059D03*
X95663115Y-55328512D03*
X92557600Y-67480180D03*
X103524295Y-62079570D03*
X102673543Y-59702757D03*
X95072200Y-52628798D03*
X105410000Y-51181000D03*
X96031236Y-80562636D03*
X102239998Y-83693000D03*
X97903915Y-83629115D03*
X91215841Y-63461199D03*
X90728800Y-67716400D03*
X96838737Y-64779026D03*
X101142800Y-66167000D03*
X107467400Y-56362600D03*
X96062800Y-73914000D03*
X97332800Y-76327000D03*
X105816400Y-43815000D03*
X100330000Y-48895000D03*
X101751000Y-49760000D03*
X100330000Y-51181000D03*
X95250000Y-48056800D03*
X94742000Y-50038000D03*
X103378000Y-70993000D03*
X98298000Y-66294000D03*
X92252800Y-69138712D03*
X98679000Y-64236600D03*
X95351600Y-63423800D03*
X96354103Y-63903854D03*
X101092000Y-67564000D03*
X104135663Y-54636960D03*
X105234740Y-54785260D03*
X92665234Y-64806522D03*
X96393000Y-60295618D03*
X97901188Y-53705364D03*
X99852299Y-58114757D03*
X96398080Y-52578000D03*
X100520515Y-61389117D03*
X98297891Y-60295619D03*
X102870000Y-53502560D03*
X104355900Y-53086000D03*
X94445663Y-61842789D03*
X102362000Y-71247000D03*
X105791000Y-61468000D03*
X109347000Y-64770000D03*
X107823000Y-65278000D03*
X105029000Y-63627000D03*
X107823000Y-73533000D03*
X106553000Y-66294000D03*
X103722452Y-69258151D03*
D50*
X107315000Y-82435000D02*
X106445620Y-82435000D01*
X106445620Y-82435000D02*
X106174540Y-82163920D01*
X106386681Y-55863437D02*
X106786680Y-55463438D01*
X105775000Y-57785000D02*
X105775000Y-56475118D01*
X105775000Y-56475118D02*
X106386681Y-55863437D01*
D51*
X102831900Y-62806580D02*
X104089200Y-62806580D01*
X104089200Y-62806580D02*
X104914424Y-61981356D01*
X104914424Y-61981356D02*
X104914424Y-60924269D01*
X99830000Y-59895000D02*
X99830000Y-60770705D01*
D50*
X105144000Y-59690000D02*
X105144000Y-60694693D01*
X105144000Y-60694693D02*
X104914424Y-60924269D01*
D51*
X99830000Y-60770705D02*
X99598302Y-61002403D01*
X100830000Y-59895000D02*
X100830000Y-60408440D01*
X100830000Y-60408440D02*
X101455220Y-61033660D01*
X100830000Y-59895000D02*
X100830000Y-58859039D01*
X100830000Y-58859039D02*
X100667821Y-58696860D01*
X100349140Y-58696860D02*
X100667821Y-58696860D01*
X99830000Y-59216000D02*
X100349140Y-58696860D01*
X99830000Y-59895000D02*
X99830000Y-59216000D01*
D50*
X92877640Y-58224420D02*
X92877640Y-58638440D01*
X92877640Y-58638440D02*
X92090240Y-59425840D01*
D51*
X97164915Y-54479915D02*
X97164915Y-53163596D01*
X99330000Y-56945000D02*
X99330000Y-56645000D01*
X97164915Y-53163596D02*
X97564914Y-52763597D01*
X99330000Y-56645000D02*
X97164915Y-54479915D01*
D52*
X103632000Y-38838000D02*
X104648000Y-38838000D01*
X104648000Y-38838000D02*
X105154600Y-38838000D01*
X108236000Y-41402000D02*
X108236000Y-41152000D01*
X108236000Y-41152000D02*
X105922000Y-38838000D01*
X105922000Y-38838000D02*
X104648000Y-38838000D01*
D53*
X99355000Y-82225000D02*
X98288116Y-82225000D01*
X98288116Y-82225000D02*
X98064972Y-82001856D01*
D50*
X93370400Y-41579800D02*
X93370400Y-40538400D01*
X93370400Y-40538400D02*
X93345000Y-40513000D01*
X93370400Y-41579800D02*
X93370400Y-42519600D01*
X93370400Y-42519600D02*
X93345000Y-42545000D01*
D53*
X89161620Y-64945620D02*
X91162780Y-64945620D01*
X91162780Y-64945620D02*
X91795600Y-64312800D01*
D52*
X105775000Y-57785000D02*
X105775000Y-59059000D01*
X105775000Y-59059000D02*
X105144000Y-59690000D01*
D50*
X101473000Y-81800000D02*
X102450200Y-81800000D01*
X102450200Y-81800000D02*
X102565200Y-81915000D01*
D52*
X107315000Y-79260000D02*
X108573000Y-79260000D01*
X108573000Y-79260000D02*
X108585000Y-79248000D01*
D53*
X99355000Y-82225000D02*
X101048000Y-82225000D01*
X101048000Y-82225000D02*
X101473000Y-81800000D01*
D50*
X103860600Y-64668400D02*
X103847200Y-64655000D01*
X103847200Y-64655000D02*
X102235000Y-64655000D01*
D52*
X105410000Y-46760000D02*
X105410000Y-47980600D01*
X100160000Y-36830000D02*
X101624000Y-36830000D01*
X101624000Y-36830000D02*
X103632000Y-38838000D01*
X94742000Y-36084000D02*
X94681800Y-36084000D01*
X94681800Y-36084000D02*
X93776800Y-35179000D01*
X94742000Y-36084000D02*
X94776800Y-36084000D01*
X94776800Y-36084000D02*
X95707200Y-35153600D01*
X94742000Y-36084000D02*
X94878400Y-36084000D01*
D53*
X91948000Y-41175940D02*
X92966540Y-41175940D01*
X92966540Y-41175940D02*
X93370400Y-41579800D01*
D52*
X102616000Y-46863000D02*
X102616000Y-47167800D01*
X102616000Y-47167800D02*
X103555800Y-48107600D01*
X105410000Y-46760000D02*
X105410000Y-45770800D01*
X105410000Y-45770800D02*
X105714800Y-45466000D01*
D54*
X105410000Y-46760000D02*
X102719000Y-46760000D01*
X102719000Y-46760000D02*
X102616000Y-46863000D01*
D52*
X105154600Y-38838000D02*
X105181400Y-38811200D01*
X103632000Y-38838000D02*
X103632000Y-38912800D01*
X103632000Y-38912800D02*
X102438200Y-40106600D01*
D54*
X103632000Y-38838000D02*
X103632000Y-40398700D01*
X103632000Y-40398700D02*
X104140000Y-40906700D01*
D52*
X101842000Y-44196000D02*
X101842000Y-43014200D01*
X101842000Y-43014200D02*
X101854000Y-43002200D01*
D50*
X97917000Y-40997000D02*
X96798000Y-40997000D01*
X96798000Y-40997000D02*
X96520000Y-41275000D01*
X97040000Y-44196000D02*
X97040000Y-45147800D01*
X97040000Y-45147800D02*
X97078800Y-45186600D01*
X93992000Y-44196000D02*
X93992000Y-45327000D01*
X93992000Y-45327000D02*
X93726000Y-45593000D01*
X91592400Y-80645000D02*
X93091000Y-79146400D01*
X102806413Y-61602964D02*
X102806413Y-61315058D01*
X100288798Y-66208202D02*
X100288798Y-64120579D01*
X91440000Y-80645000D02*
X91592400Y-80645000D01*
X93091000Y-79146400D02*
X93091000Y-73406000D01*
X93091000Y-73406000D02*
X100288798Y-66208202D01*
X100288798Y-64120579D02*
X102806413Y-61602964D01*
X102806413Y-61315058D02*
X102952412Y-61169059D01*
D53*
X95097430Y-55328512D02*
X95663115Y-55328512D01*
X95018512Y-55328512D02*
X95097430Y-55328512D01*
X93865000Y-53975000D02*
X93865000Y-54175000D01*
X93865000Y-54175000D02*
X95018512Y-55328512D01*
D50*
X93865000Y-53975000D02*
X93107000Y-53975000D01*
X93107000Y-53975000D02*
X91006420Y-56075580D01*
X91006420Y-56075580D02*
X88732360Y-56075580D01*
D52*
X103924294Y-61679571D02*
X103524295Y-62079570D01*
X103933414Y-61670451D02*
X103924294Y-61679571D01*
X103933414Y-59979414D02*
X103933414Y-61670451D01*
X103644000Y-59690000D02*
X103933414Y-59979414D01*
D51*
X101805000Y-58920000D02*
X102105000Y-58920000D01*
X102105000Y-58920000D02*
X102673543Y-59488543D01*
X102673543Y-59488543D02*
X102673543Y-59702757D01*
X101330000Y-56945000D02*
X101330000Y-54467000D01*
X101330000Y-54467000D02*
X100330000Y-53467000D01*
D50*
X95365000Y-52921598D02*
X95072200Y-52628798D01*
X95365000Y-53975000D02*
X95365000Y-52921598D01*
D52*
X105410000Y-49760000D02*
X105410000Y-51181000D01*
D50*
X96000000Y-79375000D02*
X96000000Y-80531400D01*
X96000000Y-80531400D02*
X96031236Y-80562636D01*
D53*
X101473000Y-83300000D02*
X101846998Y-83300000D01*
X101846998Y-83300000D02*
X102239998Y-83693000D01*
X98361753Y-82875000D02*
X98239499Y-82997254D01*
X99355000Y-82875000D02*
X98361753Y-82875000D01*
X98239499Y-82997254D02*
X98239499Y-83293531D01*
X98239499Y-83293531D02*
X97903915Y-83629115D01*
X90728800Y-67716400D02*
X90158020Y-67145620D01*
X90158020Y-67145620D02*
X89161620Y-67145620D01*
D50*
X102235000Y-66155000D02*
X101154800Y-66155000D01*
X101154800Y-66155000D02*
X101142800Y-66167000D01*
D51*
X101805000Y-58920000D02*
X102874000Y-58920000D01*
X102874000Y-58920000D02*
X103644000Y-59690000D01*
D52*
X103775000Y-57785000D02*
X103775000Y-59559000D01*
X103775000Y-59559000D02*
X103644000Y-59690000D01*
X104890000Y-44196000D02*
X105435400Y-44196000D01*
X105435400Y-44196000D02*
X105816400Y-43815000D01*
D54*
X100330000Y-50165000D02*
X100330000Y-48895000D01*
X102870000Y-49760000D02*
X101751000Y-49760000D01*
X102870000Y-49760000D02*
X105410000Y-49760000D01*
X100330000Y-52070000D02*
X100330000Y-51181000D01*
X100330000Y-53467000D02*
X100330000Y-52070000D01*
X100330000Y-51181000D02*
X101751000Y-49760000D01*
X100330000Y-53467000D02*
X100330000Y-50165000D01*
X100330000Y-50165000D02*
X100330000Y-46863000D01*
D53*
X99355000Y-82875000D02*
X101048000Y-82875000D01*
X101048000Y-82875000D02*
X101473000Y-83300000D01*
D50*
X94270600Y-40614600D02*
X94270600Y-38555400D01*
X94270600Y-38555400D02*
X94742000Y-38084000D01*
D55*
X94742000Y-38084000D02*
X95756000Y-38084000D01*
X95756000Y-38084000D02*
X97960000Y-35880000D01*
D53*
X94742000Y-38084000D02*
X93742000Y-38084000D01*
X93245940Y-38580060D02*
X91948000Y-38580060D01*
X93742000Y-38084000D02*
X93245940Y-38580060D01*
D52*
X93378740Y-50031020D02*
X93378740Y-49928060D01*
X93378740Y-49928060D02*
X95250000Y-48056800D01*
X94742000Y-50038000D02*
X93385720Y-50038000D01*
X93385720Y-50038000D02*
X93378740Y-50031020D01*
D50*
X107188000Y-44450000D02*
X107188000Y-46863000D01*
X107188000Y-46863000D02*
X108585000Y-48260000D01*
X108077000Y-43561000D02*
X107188000Y-44450000D01*
X109435000Y-43561000D02*
X108077000Y-43561000D01*
X110236000Y-41402000D02*
X110236000Y-42760000D01*
X110236000Y-42760000D02*
X109435000Y-43561000D01*
X109839101Y-46339101D02*
X109839101Y-46974101D01*
X109839101Y-46974101D02*
X111125000Y-48260000D01*
D53*
X109855000Y-44831000D02*
X109839101Y-44846899D01*
X109839101Y-44846899D02*
X109839101Y-46339101D01*
D50*
X110236000Y-44450000D02*
X109855000Y-44831000D01*
X110236000Y-41402000D02*
X110236000Y-44450000D01*
D52*
X103632000Y-35838000D02*
X107339000Y-35838000D01*
X110236000Y-38735000D02*
X110236000Y-41402000D01*
X107339000Y-35838000D02*
X110236000Y-38735000D01*
D55*
X100160000Y-35880000D02*
X103590000Y-35880000D01*
X103590000Y-35880000D02*
X103632000Y-35838000D01*
D52*
X88978740Y-52531020D02*
X88978740Y-51169020D01*
X88978740Y-51169020D02*
X93284760Y-46863000D01*
X93284760Y-46863000D02*
X96774000Y-46863000D01*
X96774000Y-46863000D02*
X98044000Y-46863000D01*
D55*
X98044000Y-45974000D02*
X98540000Y-45478000D01*
X98540000Y-45478000D02*
X98540000Y-44196000D01*
X98044000Y-46863000D02*
X98044000Y-45974000D01*
D50*
X100342000Y-44196000D02*
X98540000Y-44196000D01*
X95135000Y-75311000D02*
X95135000Y-77343000D01*
X103493060Y-75962740D02*
X103267740Y-75962740D01*
X103267740Y-75962740D02*
X101473000Y-74168000D01*
X101473000Y-74168000D02*
X97155000Y-74168000D01*
X97155000Y-74168000D02*
X96635000Y-74688000D01*
X96635000Y-74688000D02*
X96635000Y-75311000D01*
X104493060Y-72722740D02*
X104493060Y-74394060D01*
X100584000Y-75311000D02*
X99810000Y-75311000D01*
X102743000Y-77470000D02*
X100584000Y-75311000D01*
X104648000Y-77470000D02*
X102743000Y-77470000D01*
X105283000Y-76835000D02*
X104648000Y-77470000D01*
X105283000Y-75184000D02*
X105283000Y-76835000D01*
X104493060Y-74394060D02*
X105283000Y-75184000D01*
X103378000Y-70993000D02*
X104493060Y-72108060D01*
X104493060Y-72108060D02*
X104493060Y-72722740D01*
X98310000Y-75311000D02*
X98310000Y-77343000D01*
X107315000Y-80760000D02*
X111010000Y-80760000D01*
X111010000Y-80760000D02*
X111125000Y-80645000D01*
X105090000Y-80645000D02*
X107200000Y-80645000D01*
X107200000Y-80645000D02*
X107315000Y-80760000D01*
X107315000Y-83935000D02*
X110375000Y-83935000D01*
X110375000Y-83935000D02*
X111125000Y-83185000D01*
X105537000Y-83185000D02*
X106287000Y-83935000D01*
X106287000Y-83935000D02*
X107315000Y-83935000D01*
X105090000Y-83185000D02*
X105537000Y-83185000D01*
X100348001Y-84547002D02*
X99355000Y-83554001D01*
X102985998Y-84547002D02*
X100348001Y-84547002D01*
X103190000Y-84343000D02*
X102985998Y-84547002D01*
X103190000Y-83185000D02*
X103190000Y-84343000D01*
X102205000Y-80772000D02*
X100158000Y-80772000D01*
X100158000Y-80772000D02*
X99384001Y-81545999D01*
X99384001Y-81545999D02*
X99355000Y-81545999D01*
X103190000Y-80645000D02*
X102332000Y-80645000D01*
X102332000Y-80645000D02*
X102205000Y-80772000D01*
D52*
X108585000Y-50800000D02*
X108585000Y-53225000D01*
X111125000Y-53225000D02*
X111125000Y-50800000D01*
D53*
X95907200Y-40259000D02*
X98622000Y-40259000D01*
X98622000Y-40259000D02*
X99372000Y-39509000D01*
X99372000Y-39509000D02*
X100203000Y-39509000D01*
X94970600Y-40614600D02*
X95551600Y-40614600D01*
X95551600Y-40614600D02*
X95907200Y-40259000D01*
X100160000Y-37780000D02*
X100160000Y-39466000D01*
X100160000Y-39466000D02*
X100203000Y-39509000D01*
X95492000Y-44196000D02*
X95492000Y-42533000D01*
X95492000Y-42533000D02*
X94970600Y-42011600D01*
X94970600Y-42011600D02*
X94970600Y-41914600D01*
X94270600Y-41914600D02*
X94270600Y-42645600D01*
X97467098Y-42291000D02*
X99552000Y-42291000D01*
X94270600Y-42645600D02*
X94742000Y-43117000D01*
X94742000Y-43117000D02*
X94742000Y-44958000D01*
X99552000Y-42291000D02*
X100203000Y-41640000D01*
X94742000Y-44958000D02*
X95123000Y-45339000D01*
X95123000Y-45339000D02*
X95885000Y-45339000D01*
X95885000Y-45339000D02*
X96249499Y-44974501D01*
X96249499Y-44974501D02*
X96249499Y-43508599D01*
X96249499Y-43508599D02*
X97467098Y-42291000D01*
X100203000Y-41640000D02*
X100203000Y-41009000D01*
D50*
X104140000Y-42418000D02*
X103390000Y-43168000D01*
X103390000Y-43168000D02*
X103390000Y-44196000D01*
X104140000Y-42405300D02*
X104140000Y-42418000D01*
X98298000Y-66294000D02*
X91440000Y-73152000D01*
X91440000Y-73152000D02*
X91440000Y-75565000D01*
D53*
X97960000Y-37780000D02*
X97960000Y-39454000D01*
X97960000Y-39454000D02*
X97917000Y-39497000D01*
X90624528Y-69138712D02*
X92252800Y-69138712D01*
X92252800Y-69138712D02*
X93776888Y-69138712D01*
X98279001Y-64636599D02*
X98679000Y-64236600D01*
X93776888Y-69138712D02*
X98279001Y-64636599D01*
X89161620Y-69345620D02*
X90417620Y-69345620D01*
X90417620Y-69345620D02*
X90624528Y-69138712D01*
X91519301Y-68095841D02*
X91108241Y-68506901D01*
X95351600Y-63423800D02*
X91519301Y-67256099D01*
X91519301Y-67256099D02*
X91519301Y-68095841D01*
X91108241Y-68506901D02*
X89422901Y-68506901D01*
X89422901Y-68506901D02*
X89161620Y-68245620D01*
X96354103Y-63338169D02*
X96354103Y-63903854D01*
X96354103Y-63256361D02*
X96354103Y-63338169D01*
X95731041Y-62633299D02*
X96354103Y-63256361D01*
X90852759Y-62633299D02*
X95731041Y-62633299D01*
X89989522Y-63845620D02*
X90427121Y-63408021D01*
X89161620Y-63845620D02*
X89989522Y-63845620D01*
X90427121Y-63408021D02*
X90427121Y-63058937D01*
X90427121Y-63058937D02*
X90852759Y-62633299D01*
D50*
X93980000Y-74676000D02*
X93980000Y-78855000D01*
X93980000Y-78855000D02*
X94500000Y-79375000D01*
X101092000Y-67564000D02*
X93980000Y-74676000D01*
X94500000Y-79375000D02*
X94500000Y-81090999D01*
X94500000Y-81090999D02*
X94955000Y-81545999D01*
X104664221Y-53940001D02*
X104135663Y-54468559D01*
X107315941Y-53655941D02*
X105016861Y-53655941D01*
X108585000Y-54725000D02*
X108385000Y-54725000D01*
X105016861Y-53655941D02*
X104732801Y-53940001D01*
X104732801Y-53940001D02*
X104664221Y-53940001D01*
X104135663Y-54468559D02*
X104135663Y-54636960D01*
X108385000Y-54725000D02*
X107315941Y-53655941D01*
X97393000Y-80408626D02*
X96502959Y-81298667D01*
X97393000Y-78301000D02*
X97393000Y-80408626D01*
X96635000Y-77543000D02*
X97393000Y-78301000D01*
X96502959Y-81298667D02*
X96502959Y-82786959D01*
X96502959Y-82786959D02*
X96520000Y-82804000D01*
X96635000Y-77343000D02*
X96635000Y-77543000D01*
D53*
X96520000Y-82804000D02*
X96449000Y-82875000D01*
X96449000Y-82875000D02*
X94955000Y-82875000D01*
D50*
X97210970Y-81591934D02*
X97210970Y-82435975D01*
X96771275Y-83554001D02*
X94955000Y-83554001D01*
X97232648Y-83092628D02*
X96771275Y-83554001D01*
X97232648Y-82457653D02*
X97232648Y-83092628D01*
X97210970Y-82435975D02*
X97232648Y-82457653D01*
X99810000Y-77343000D02*
X99810000Y-78992904D01*
X99810000Y-78992904D02*
X97210970Y-81591934D01*
D53*
X107016298Y-54559200D02*
X105460800Y-54559200D01*
X105460800Y-54559200D02*
X105234740Y-54785260D01*
X110895640Y-55585360D02*
X108042458Y-55585360D01*
X108042458Y-55585360D02*
X107016298Y-54559200D01*
X111125000Y-54725000D02*
X111125000Y-55356000D01*
X111125000Y-55356000D02*
X110895640Y-55585360D01*
X89161620Y-66045620D02*
X91426136Y-66045620D01*
X91426136Y-66045620D02*
X92265235Y-65206521D01*
X92265235Y-65206521D02*
X92665234Y-64806522D01*
D51*
X97269744Y-60295618D02*
X96958685Y-60295618D01*
X98855000Y-58920000D02*
X98645362Y-58920000D01*
X98645362Y-58920000D02*
X97269744Y-60295618D01*
X96958685Y-60295618D02*
X96393000Y-60295618D01*
X97901188Y-54271049D02*
X97901188Y-53705364D01*
X97901188Y-54499473D02*
X97901188Y-54271049D01*
X99830000Y-56945000D02*
X99830000Y-56428285D01*
X99830000Y-56428285D02*
X97901188Y-54499473D01*
X99657542Y-57920000D02*
X99852299Y-58114757D01*
X98855000Y-57920000D02*
X99657542Y-57920000D01*
X96398080Y-53143685D02*
X96398080Y-52578000D01*
X96398080Y-56642080D02*
X96398080Y-53143685D01*
X98176000Y-58420000D02*
X96398080Y-56642080D01*
X98855000Y-58420000D02*
X98176000Y-58420000D01*
X100330000Y-61198602D02*
X100520515Y-61389117D01*
X100330000Y-59895000D02*
X100330000Y-61198602D01*
X98697890Y-59895620D02*
X98297891Y-60295619D01*
X98698510Y-59895000D02*
X98697890Y-59895620D01*
X99330000Y-59895000D02*
X98698510Y-59895000D01*
X102565200Y-56639130D02*
X102565200Y-53807360D01*
X102565200Y-53807360D02*
X102870000Y-53502560D01*
X101805000Y-57920000D02*
X101805000Y-57399330D01*
X101805000Y-57399330D02*
X102565200Y-56639130D01*
X103019211Y-54422689D02*
X103955901Y-53485999D01*
X103019211Y-56832999D02*
X103019211Y-54422689D01*
X102947999Y-56904211D02*
X103019211Y-56832999D01*
X102947999Y-57956001D02*
X102947999Y-56904211D01*
X102484000Y-58420000D02*
X102947999Y-57956001D01*
X103955901Y-53485999D02*
X104355900Y-53086000D01*
X101805000Y-58420000D02*
X102484000Y-58420000D01*
X102225402Y-61352142D02*
X100934506Y-62643038D01*
X95195894Y-62027335D02*
X95011348Y-61842789D01*
X100934506Y-62643038D02*
X96764402Y-62643038D01*
X96764402Y-62643038D02*
X96148699Y-62027335D01*
X95011348Y-61842789D02*
X94445663Y-61842789D01*
X102225402Y-60411402D02*
X102225402Y-61352142D01*
X101330000Y-59895000D02*
X101709000Y-59895000D01*
X101709000Y-59895000D02*
X102225402Y-60411402D01*
X96148699Y-62027335D02*
X95195894Y-62027335D01*
D50*
X102362000Y-71247000D02*
X102493060Y-71378060D01*
X102493060Y-71378060D02*
X102493060Y-72722740D01*
D53*
X108839000Y-57023000D02*
X109525501Y-56336499D01*
X109525501Y-56336499D02*
X110812499Y-56336499D01*
X110812499Y-56336499D02*
X111210001Y-56734001D01*
X111210001Y-56734001D02*
X111760000Y-57284000D01*
X108839000Y-57912000D02*
X108839000Y-57023000D01*
X106190999Y-60560001D02*
X108839000Y-57912000D01*
X105791000Y-61468000D02*
X106190999Y-61068001D01*
X106190999Y-61068001D02*
X106190999Y-60560001D01*
D50*
X109347000Y-64770000D02*
X111760000Y-67183000D01*
X111760000Y-67183000D02*
X111760000Y-72143000D01*
D53*
X107823000Y-65278000D02*
X108712000Y-66167000D01*
X108712000Y-66167000D02*
X108712000Y-73660000D01*
X108712000Y-73660000D02*
X109474000Y-74422000D01*
X109474000Y-74422000D02*
X110490000Y-74422000D01*
X110490000Y-74422000D02*
X111469000Y-73443000D01*
X111469000Y-73443000D02*
X111760000Y-73443000D01*
X105029000Y-63627000D02*
X107823000Y-66421000D01*
X107823000Y-66421000D02*
X107823000Y-73533000D01*
X110617000Y-75057000D02*
X111603000Y-76043000D01*
X111603000Y-76043000D02*
X111760000Y-76043000D01*
X107315000Y-75057000D02*
X110617000Y-75057000D01*
X106807000Y-74549000D02*
X107315000Y-75057000D01*
X106807000Y-66548000D02*
X106807000Y-74549000D01*
X106553000Y-66294000D02*
X106807000Y-66548000D01*
X109220000Y-78486000D02*
X106045000Y-75311000D01*
X110617000Y-78486000D02*
X109220000Y-78486000D01*
X104122451Y-69658150D02*
X103722452Y-69258151D01*
X111760000Y-77343000D02*
X110617000Y-78486000D01*
X106045000Y-71580699D02*
X104122451Y-69658150D01*
X106045000Y-75311000D02*
X106045000Y-71580699D01*
M02*
