G04 #@! TF.GenerationSoftware,KiCad,Pcbnew,(2017-01-24 revision 0b6147e)-makepkg*
G04 #@! TF.CreationDate,2017-01-30T11:51:45-08:00*
G04 #@! TF.ProjectId,derbyFX,646572627946582E6B696361645F7063,rev?*
G04 #@! TF.FileFunction,Copper,L3,Inr,Plane*
G04 #@! TF.FilePolarity,Positive*
%FSLAX46Y46*%
G04 Gerber Fmt 4.6, Leading zero omitted, Abs format (unit mm)*
G04 Created by KiCad (PCBNEW (2017-01-24 revision 0b6147e)-makepkg) date 01/30/17 11:51:45*
%MOMM*%
%LPD*%
G01*
G04 APERTURE LIST*
%ADD10C,0.100000*%
%ADD11R,2.032000X2.032000*%
%ADD12O,2.032000X2.032000*%
%ADD13C,1.727200*%
%ADD14O,1.727200X1.727200*%
%ADD15R,1.200000X1.700000*%
%ADD16O,1.200000X1.700000*%
%ADD17C,1.650000*%
%ADD18C,1.250000*%
%ADD19O,2.032000X1.727200*%
%ADD20C,1.100000*%
%ADD21C,0.800000*%
%ADD22C,1.270000*%
%ADD23C,0.254000*%
G04 APERTURE END LIST*
D10*
D11*
X111125000Y-83185000D03*
D12*
X111125000Y-80645000D03*
D13*
X108585000Y-50800000D03*
D14*
X111125000Y-50800000D03*
X108585000Y-48260000D03*
X111125000Y-48260000D03*
X108585000Y-45720000D03*
X111125000Y-45720000D03*
D15*
X110236000Y-41402000D03*
D16*
X108236000Y-41402000D03*
D17*
X89278000Y-36448000D03*
X89278000Y-43308000D03*
D18*
X91948000Y-42375940D03*
X91948000Y-37375940D03*
D19*
X91440000Y-83185000D03*
X91440000Y-80645000D03*
X91440000Y-78105000D03*
X91440000Y-75565000D03*
D20*
X111760000Y-57284000D03*
X111760000Y-58584000D03*
X111760000Y-59884000D03*
X111760000Y-61184000D03*
X111760000Y-62484000D03*
X111760000Y-77343000D03*
X111760000Y-76043000D03*
X111760000Y-74743000D03*
X111760000Y-73443000D03*
X111760000Y-72143000D03*
X109982000Y-72106000D03*
X109982000Y-73406000D03*
X109982000Y-57277000D03*
X109982000Y-58577000D03*
X109982000Y-76043000D03*
X109982000Y-77343000D03*
X109982000Y-62484000D03*
X109982000Y-61184000D03*
D21*
X106174540Y-82163920D03*
X93337380Y-68267580D03*
X106786680Y-55463438D03*
X102831900Y-62806580D03*
X104914424Y-60924269D03*
X99598302Y-61002403D03*
X101455220Y-61033660D03*
X100667821Y-58696860D03*
X91744800Y-57170320D03*
X97061020Y-59448700D03*
X92090240Y-59425840D03*
X97564914Y-52763597D03*
X98064972Y-82001856D03*
X93345000Y-40513000D03*
X93345000Y-42545000D03*
X89560400Y-60020200D03*
X91795600Y-64312800D03*
X98983800Y-71297800D03*
X91516200Y-70002400D03*
X89052400Y-74371200D03*
X102565200Y-81915000D03*
X108585000Y-79248000D03*
X103860600Y-64668400D03*
X105410000Y-47980600D03*
X101624000Y-36830000D03*
X93776800Y-35179000D03*
X95707200Y-35153600D03*
X93370400Y-41579800D03*
X103555800Y-48107600D03*
X105714800Y-45466000D03*
X105181400Y-38811200D03*
X102438200Y-40106600D03*
X101854000Y-43002200D03*
X96520000Y-41275000D03*
X97078800Y-45186600D03*
X93726000Y-45593000D03*
X102952412Y-61169059D03*
X95663115Y-55328512D03*
X92557600Y-67480180D03*
X103524295Y-62079570D03*
X102673543Y-59702757D03*
X95072200Y-52628798D03*
X105410000Y-51181000D03*
X96031236Y-80562636D03*
X102239998Y-83693000D03*
X97903915Y-83629115D03*
X91215841Y-63461199D03*
X90728800Y-67716400D03*
X96838737Y-64779026D03*
X101142800Y-66167000D03*
X107467400Y-56362600D03*
X96062800Y-73914000D03*
X97332800Y-76327000D03*
X105816400Y-43815000D03*
X100330000Y-48895000D03*
X101751000Y-49760000D03*
X100330000Y-51181000D03*
X95250000Y-48056800D03*
X94742000Y-50038000D03*
X103378000Y-70993000D03*
X98298000Y-66294000D03*
X92252800Y-69138712D03*
X98679000Y-64236600D03*
X95351600Y-63423800D03*
X96354103Y-63903854D03*
X101092000Y-67564000D03*
X104135663Y-54636960D03*
X105234740Y-54785260D03*
X92665234Y-64806522D03*
X96393000Y-60295618D03*
X97901188Y-53705364D03*
X99852299Y-58114757D03*
X96398080Y-52578000D03*
X100520515Y-61389117D03*
X98297891Y-60295619D03*
X102870000Y-53502560D03*
X104355900Y-53086000D03*
X94445663Y-61842789D03*
X102362000Y-71247000D03*
X105791000Y-61468000D03*
X109347000Y-64770000D03*
X107823000Y-65278000D03*
X105029000Y-63627000D03*
X107823000Y-73533000D03*
X106553000Y-66294000D03*
X103722452Y-69258151D03*
D22*
X101600000Y-49609000D02*
X101600000Y-49530000D01*
X101751000Y-49760000D02*
X101600000Y-49609000D01*
X100330000Y-51181000D02*
X100330000Y-51435000D01*
D23*
G36*
X92741621Y-35383971D02*
X92898858Y-35764515D01*
X93189754Y-36055919D01*
X93570023Y-36213820D01*
X93981771Y-36214179D01*
X94362315Y-36056942D01*
X94653719Y-35766046D01*
X94747283Y-35540719D01*
X94829258Y-35739115D01*
X95120154Y-36030519D01*
X95500423Y-36188420D01*
X95912171Y-36188779D01*
X96292715Y-36031542D01*
X96584119Y-35740646D01*
X96742020Y-35360377D01*
X96742334Y-35000000D01*
X112320000Y-35000000D01*
X112320000Y-44818927D01*
X112214029Y-44660330D01*
X111727848Y-44335474D01*
X111154359Y-44221400D01*
X111095641Y-44221400D01*
X110522152Y-44335474D01*
X110035971Y-44660330D01*
X109855000Y-44931172D01*
X109674029Y-44660330D01*
X109187848Y-44335474D01*
X108614359Y-44221400D01*
X108555641Y-44221400D01*
X107982152Y-44335474D01*
X107495971Y-44660330D01*
X107171115Y-45146511D01*
X107057041Y-45720000D01*
X107171115Y-46293489D01*
X107495971Y-46779670D01*
X107810752Y-46990000D01*
X107495971Y-47200330D01*
X107171115Y-47686511D01*
X107057041Y-48260000D01*
X107171115Y-48833489D01*
X107495971Y-49319670D01*
X107781553Y-49510490D01*
X107737220Y-49528808D01*
X107315290Y-49950003D01*
X107086661Y-50500602D01*
X107086141Y-51096782D01*
X107313808Y-51647780D01*
X107735003Y-52069710D01*
X108285602Y-52298339D01*
X108881782Y-52298859D01*
X109432780Y-52071192D01*
X109854710Y-51649997D01*
X109870486Y-51612004D01*
X110035971Y-51859670D01*
X110522152Y-52184526D01*
X111095641Y-52298600D01*
X111154359Y-52298600D01*
X111727848Y-52184526D01*
X112214029Y-51859670D01*
X112320000Y-51701073D01*
X112320000Y-56233433D01*
X111996745Y-56099206D01*
X111525323Y-56098794D01*
X111089628Y-56278820D01*
X110755991Y-56611875D01*
X110705760Y-56732845D01*
X110161605Y-57277000D01*
X110175748Y-57291143D01*
X110074810Y-57392080D01*
X109889028Y-57391918D01*
X109788253Y-57291143D01*
X109802395Y-57277000D01*
X109155567Y-56630172D01*
X108935299Y-56673508D01*
X108784028Y-57120001D01*
X108815137Y-57590396D01*
X108935299Y-57880492D01*
X108991366Y-57891523D01*
X108977991Y-57904875D01*
X108797206Y-58340255D01*
X108796794Y-58811677D01*
X108976820Y-59247372D01*
X109309875Y-59581009D01*
X109745255Y-59761794D01*
X110216677Y-59762206D01*
X110591842Y-59607190D01*
X110575206Y-59647255D01*
X110574794Y-60118677D01*
X110582000Y-60136116D01*
X110138999Y-59986028D01*
X109668604Y-60017137D01*
X109378508Y-60137299D01*
X109335172Y-60357567D01*
X109982000Y-61004395D01*
X109996143Y-60990253D01*
X110175748Y-61169858D01*
X110161605Y-61184000D01*
X110175748Y-61198143D01*
X110074810Y-61299080D01*
X109889028Y-61298918D01*
X109788253Y-61198143D01*
X109802395Y-61184000D01*
X109155567Y-60537172D01*
X108935299Y-60580508D01*
X108784028Y-61027001D01*
X108815137Y-61497396D01*
X108935299Y-61787492D01*
X108991366Y-61798523D01*
X108977991Y-61811875D01*
X108797206Y-62247255D01*
X108796794Y-62718677D01*
X108976820Y-63154372D01*
X109309875Y-63488009D01*
X109745255Y-63668794D01*
X110216677Y-63669206D01*
X110652372Y-63489180D01*
X110871089Y-63270844D01*
X111087875Y-63488009D01*
X111523255Y-63668794D01*
X111994677Y-63669206D01*
X112320000Y-63534785D01*
X112320000Y-71092433D01*
X111996745Y-70958206D01*
X111525323Y-70957794D01*
X111089628Y-71137820D01*
X110755991Y-71470875D01*
X110727063Y-71540542D01*
X110161605Y-72106000D01*
X110175748Y-72120143D01*
X110074810Y-72221080D01*
X109889028Y-72220918D01*
X109788253Y-72120143D01*
X109802395Y-72106000D01*
X109155567Y-71459172D01*
X108935299Y-71502508D01*
X108784028Y-71949001D01*
X108815137Y-72419396D01*
X108935299Y-72709492D01*
X108991366Y-72720523D01*
X108977991Y-72733875D01*
X108797206Y-73169255D01*
X108797196Y-73180439D01*
X108700942Y-72947485D01*
X108410046Y-72656081D01*
X108029777Y-72498180D01*
X107618029Y-72497821D01*
X107237485Y-72655058D01*
X106946081Y-72945954D01*
X106788180Y-73326223D01*
X106787821Y-73737971D01*
X106945058Y-74118515D01*
X107235954Y-74409919D01*
X107616223Y-74567820D01*
X108027971Y-74568179D01*
X108408515Y-74410942D01*
X108699919Y-74120046D01*
X108847756Y-73764014D01*
X108976820Y-74076372D01*
X109309875Y-74410009D01*
X109745255Y-74590794D01*
X110216677Y-74591206D01*
X110606879Y-74429977D01*
X110575206Y-74506255D01*
X110574794Y-74977677D01*
X110582000Y-74995116D01*
X110138999Y-74845028D01*
X109668604Y-74876137D01*
X109378508Y-74996299D01*
X109335172Y-75216567D01*
X109982000Y-75863395D01*
X109996143Y-75849253D01*
X110175748Y-76028858D01*
X110161605Y-76043000D01*
X110175748Y-76057143D01*
X110074810Y-76158080D01*
X109889028Y-76157918D01*
X109788253Y-76057143D01*
X109802395Y-76043000D01*
X109155567Y-75396172D01*
X108935299Y-75439508D01*
X108784028Y-75886001D01*
X108815137Y-76356396D01*
X108935299Y-76646492D01*
X108991366Y-76657523D01*
X108977991Y-76670875D01*
X108797206Y-77106255D01*
X108796794Y-77577677D01*
X108976820Y-78013372D01*
X109309875Y-78347009D01*
X109745255Y-78527794D01*
X110216677Y-78528206D01*
X110652372Y-78348180D01*
X110871089Y-78129844D01*
X111087875Y-78347009D01*
X111523255Y-78527794D01*
X111994677Y-78528206D01*
X112320000Y-78393785D01*
X112320000Y-79474374D01*
X111789155Y-79119675D01*
X111157345Y-78994000D01*
X111092655Y-78994000D01*
X110460845Y-79119675D01*
X109925222Y-79477567D01*
X109567330Y-80013190D01*
X109441655Y-80645000D01*
X109567330Y-81276810D01*
X109793872Y-81615854D01*
X109651191Y-81711191D01*
X109510843Y-81921235D01*
X109461560Y-82169000D01*
X109461560Y-84201000D01*
X109497165Y-84380000D01*
X92481879Y-84380000D01*
X92684415Y-84244670D01*
X93009271Y-83758489D01*
X93123345Y-83185000D01*
X93009271Y-82611511D01*
X92738870Y-82206827D01*
X97029793Y-82206827D01*
X97187030Y-82587371D01*
X97477926Y-82878775D01*
X97858195Y-83036676D01*
X98269943Y-83037035D01*
X98650487Y-82879798D01*
X98941891Y-82588902D01*
X99099792Y-82208633D01*
X99099869Y-82119971D01*
X101530021Y-82119971D01*
X101687258Y-82500515D01*
X101978154Y-82791919D01*
X102358423Y-82949820D01*
X102770171Y-82950179D01*
X103150715Y-82792942D01*
X103442119Y-82502046D01*
X103497409Y-82368891D01*
X105139361Y-82368891D01*
X105296598Y-82749435D01*
X105587494Y-83040839D01*
X105967763Y-83198740D01*
X106379511Y-83199099D01*
X106760055Y-83041862D01*
X107051459Y-82750966D01*
X107209360Y-82370697D01*
X107209719Y-81958949D01*
X107052482Y-81578405D01*
X106761586Y-81287001D01*
X106381317Y-81129100D01*
X105969569Y-81128741D01*
X105589025Y-81285978D01*
X105297621Y-81576874D01*
X105139720Y-81957143D01*
X105139361Y-82368891D01*
X103497409Y-82368891D01*
X103600020Y-82121777D01*
X103600379Y-81710029D01*
X103443142Y-81329485D01*
X103152246Y-81038081D01*
X102771977Y-80880180D01*
X102360229Y-80879821D01*
X101979685Y-81037058D01*
X101688281Y-81327954D01*
X101530380Y-81708223D01*
X101530021Y-82119971D01*
X99099869Y-82119971D01*
X99100151Y-81796885D01*
X98942914Y-81416341D01*
X98652018Y-81124937D01*
X98271749Y-80967036D01*
X97860001Y-80966677D01*
X97479457Y-81123914D01*
X97188053Y-81414810D01*
X97030152Y-81795079D01*
X97029793Y-82206827D01*
X92738870Y-82206827D01*
X92684415Y-82125330D01*
X92369634Y-81915000D01*
X92684415Y-81704670D01*
X93009271Y-81218489D01*
X93123345Y-80645000D01*
X93009271Y-80071511D01*
X92684415Y-79585330D01*
X92486326Y-79452971D01*
X107549821Y-79452971D01*
X107707058Y-79833515D01*
X107997954Y-80124919D01*
X108378223Y-80282820D01*
X108789971Y-80283179D01*
X109170515Y-80125942D01*
X109461919Y-79835046D01*
X109619820Y-79454777D01*
X109620179Y-79043029D01*
X109462942Y-78662485D01*
X109172046Y-78371081D01*
X108791777Y-78213180D01*
X108380029Y-78212821D01*
X107999485Y-78370058D01*
X107708081Y-78660954D01*
X107550180Y-79041223D01*
X107549821Y-79452971D01*
X92486326Y-79452971D01*
X92369634Y-79375000D01*
X92684415Y-79164670D01*
X93009271Y-78678489D01*
X93123345Y-78105000D01*
X93009271Y-77531511D01*
X92684415Y-77045330D01*
X92369634Y-76835000D01*
X92684415Y-76624670D01*
X93009271Y-76138489D01*
X93123345Y-75565000D01*
X93009271Y-74991511D01*
X92684415Y-74505330D01*
X92198234Y-74180474D01*
X91624745Y-74066400D01*
X91255255Y-74066400D01*
X90681766Y-74180474D01*
X90195585Y-74505330D01*
X89989013Y-74814487D01*
X90087220Y-74577977D01*
X90087579Y-74166229D01*
X89930342Y-73785685D01*
X89639446Y-73494281D01*
X89259177Y-73336380D01*
X88847429Y-73336021D01*
X88466885Y-73493258D01*
X88340000Y-73619922D01*
X88340000Y-71502771D01*
X97948621Y-71502771D01*
X98105858Y-71883315D01*
X98396754Y-72174719D01*
X98777023Y-72332620D01*
X99188771Y-72332979D01*
X99569315Y-72175742D01*
X99860719Y-71884846D01*
X100018620Y-71504577D01*
X100018665Y-71451971D01*
X101326821Y-71451971D01*
X101484058Y-71832515D01*
X101774954Y-72123919D01*
X102155223Y-72281820D01*
X102566971Y-72282179D01*
X102947515Y-72124942D01*
X103081943Y-71990748D01*
X103171223Y-72027820D01*
X103582971Y-72028179D01*
X103963515Y-71870942D01*
X104254919Y-71580046D01*
X104379688Y-71279567D01*
X109335172Y-71279567D01*
X109982000Y-71926395D01*
X110628828Y-71279567D01*
X110585492Y-71059299D01*
X110138999Y-70908028D01*
X109668604Y-70939137D01*
X109378508Y-71059299D01*
X109335172Y-71279567D01*
X104379688Y-71279567D01*
X104412820Y-71199777D01*
X104413179Y-70788029D01*
X104255942Y-70407485D01*
X104079329Y-70230564D01*
X104307967Y-70136093D01*
X104599371Y-69845197D01*
X104757272Y-69464928D01*
X104757631Y-69053180D01*
X104600394Y-68672636D01*
X104309498Y-68381232D01*
X103929229Y-68223331D01*
X103517481Y-68222972D01*
X103136937Y-68380209D01*
X102845533Y-68671105D01*
X102687632Y-69051374D01*
X102687273Y-69463122D01*
X102844510Y-69843666D01*
X103021123Y-70020587D01*
X102792485Y-70115058D01*
X102658057Y-70249252D01*
X102568777Y-70212180D01*
X102157029Y-70211821D01*
X101776485Y-70369058D01*
X101485081Y-70659954D01*
X101327180Y-71040223D01*
X101326821Y-71451971D01*
X100018665Y-71451971D01*
X100018979Y-71092829D01*
X99861742Y-70712285D01*
X99570846Y-70420881D01*
X99190577Y-70262980D01*
X98778829Y-70262621D01*
X98398285Y-70419858D01*
X98106881Y-70710754D01*
X97948980Y-71091023D01*
X97948621Y-71502771D01*
X88340000Y-71502771D01*
X88340000Y-70207371D01*
X90481021Y-70207371D01*
X90638258Y-70587915D01*
X90929154Y-70879319D01*
X91309423Y-71037220D01*
X91721171Y-71037579D01*
X92101715Y-70880342D01*
X92393119Y-70589446D01*
X92551020Y-70209177D01*
X92551084Y-70135335D01*
X92838315Y-70016654D01*
X93129719Y-69725758D01*
X93287620Y-69345489D01*
X93287657Y-69302537D01*
X93542351Y-69302759D01*
X93922895Y-69145522D01*
X94214299Y-68854626D01*
X94372200Y-68474357D01*
X94372559Y-68062609D01*
X94251231Y-67768971D01*
X100056821Y-67768971D01*
X100214058Y-68149515D01*
X100504954Y-68440919D01*
X100885223Y-68598820D01*
X101296971Y-68599179D01*
X101677515Y-68441942D01*
X101968919Y-68151046D01*
X102126820Y-67770777D01*
X102127179Y-67359029D01*
X101969942Y-66978485D01*
X101679046Y-66687081D01*
X101298777Y-66529180D01*
X100887029Y-66528821D01*
X100506485Y-66686058D01*
X100215081Y-66976954D01*
X100057180Y-67357223D01*
X100056821Y-67768971D01*
X94251231Y-67768971D01*
X94215322Y-67682065D01*
X93924426Y-67390661D01*
X93544157Y-67232760D01*
X93132409Y-67232401D01*
X92751865Y-67389638D01*
X92460461Y-67680534D01*
X92302560Y-68060803D01*
X92302523Y-68103755D01*
X92047829Y-68103533D01*
X91667285Y-68260770D01*
X91375881Y-68551666D01*
X91217980Y-68931935D01*
X91217916Y-69005777D01*
X90930685Y-69124458D01*
X90639281Y-69415354D01*
X90481380Y-69795623D01*
X90481021Y-70207371D01*
X88340000Y-70207371D01*
X88340000Y-66498971D01*
X97262821Y-66498971D01*
X97420058Y-66879515D01*
X97710954Y-67170919D01*
X98091223Y-67328820D01*
X98502971Y-67329179D01*
X98883515Y-67171942D01*
X99174919Y-66881046D01*
X99332820Y-66500777D01*
X99332821Y-66498971D01*
X105517821Y-66498971D01*
X105675058Y-66879515D01*
X105965954Y-67170919D01*
X106346223Y-67328820D01*
X106757971Y-67329179D01*
X107138515Y-67171942D01*
X107429919Y-66881046D01*
X107587820Y-66500777D01*
X107587994Y-66301098D01*
X107616223Y-66312820D01*
X108027971Y-66313179D01*
X108408515Y-66155942D01*
X108699919Y-65865046D01*
X108786002Y-65657735D01*
X109140223Y-65804820D01*
X109551971Y-65805179D01*
X109932515Y-65647942D01*
X110223919Y-65357046D01*
X110381820Y-64976777D01*
X110382179Y-64565029D01*
X110224942Y-64184485D01*
X109934046Y-63893081D01*
X109553777Y-63735180D01*
X109142029Y-63734821D01*
X108761485Y-63892058D01*
X108470081Y-64182954D01*
X108383998Y-64390265D01*
X108029777Y-64243180D01*
X107618029Y-64242821D01*
X107237485Y-64400058D01*
X106946081Y-64690954D01*
X106788180Y-65071223D01*
X106788006Y-65270902D01*
X106759777Y-65259180D01*
X106348029Y-65258821D01*
X105967485Y-65416058D01*
X105676081Y-65706954D01*
X105518180Y-66087223D01*
X105517821Y-66498971D01*
X99332821Y-66498971D01*
X99333179Y-66089029D01*
X99175942Y-65708485D01*
X98885046Y-65417081D01*
X98534385Y-65271474D01*
X98883971Y-65271779D01*
X99264515Y-65114542D01*
X99506107Y-64873371D01*
X102825421Y-64873371D01*
X102982658Y-65253915D01*
X103273554Y-65545319D01*
X103653823Y-65703220D01*
X104065571Y-65703579D01*
X104446115Y-65546342D01*
X104737519Y-65255446D01*
X104895420Y-64875177D01*
X104895606Y-64661884D01*
X105233971Y-64662179D01*
X105614515Y-64504942D01*
X105905919Y-64214046D01*
X106063820Y-63833777D01*
X106064179Y-63422029D01*
X105906942Y-63041485D01*
X105616046Y-62750081D01*
X105235777Y-62592180D01*
X104824029Y-62591821D01*
X104443485Y-62749058D01*
X104152081Y-63039954D01*
X103994180Y-63420223D01*
X103993994Y-63633516D01*
X103655629Y-63633221D01*
X103275085Y-63790458D01*
X102983681Y-64081354D01*
X102825780Y-64461623D01*
X102825421Y-64873371D01*
X99506107Y-64873371D01*
X99555919Y-64823646D01*
X99713820Y-64443377D01*
X99714179Y-64031629D01*
X99556942Y-63651085D01*
X99266046Y-63359681D01*
X98885777Y-63201780D01*
X98474029Y-63201421D01*
X98093485Y-63358658D01*
X97802081Y-63649554D01*
X97644180Y-64029823D01*
X97643821Y-64441571D01*
X97801058Y-64822115D01*
X98091954Y-65113519D01*
X98442615Y-65259126D01*
X98093029Y-65258821D01*
X97712485Y-65416058D01*
X97421081Y-65706954D01*
X97263180Y-66087223D01*
X97262821Y-66498971D01*
X88340000Y-66498971D01*
X88340000Y-64517771D01*
X90760421Y-64517771D01*
X90917658Y-64898315D01*
X91208554Y-65189719D01*
X91588823Y-65347620D01*
X91769004Y-65347777D01*
X91787292Y-65392037D01*
X92078188Y-65683441D01*
X92458457Y-65841342D01*
X92870205Y-65841701D01*
X93250749Y-65684464D01*
X93542153Y-65393568D01*
X93700054Y-65013299D01*
X93700413Y-64601551D01*
X93543176Y-64221007D01*
X93252280Y-63929603D01*
X92872011Y-63771702D01*
X92691830Y-63771545D01*
X92673542Y-63727285D01*
X92382646Y-63435881D01*
X92002377Y-63277980D01*
X91590629Y-63277621D01*
X91210085Y-63434858D01*
X90918681Y-63725754D01*
X90760780Y-64106023D01*
X90760421Y-64517771D01*
X88340000Y-64517771D01*
X88340000Y-62047760D01*
X93410484Y-62047760D01*
X93567721Y-62428304D01*
X93858617Y-62719708D01*
X94238886Y-62877609D01*
X94457637Y-62877800D01*
X94316780Y-63217023D01*
X94316421Y-63628771D01*
X94473658Y-64009315D01*
X94764554Y-64300719D01*
X95144823Y-64458620D01*
X95463571Y-64458898D01*
X95476161Y-64489369D01*
X95767057Y-64780773D01*
X96147326Y-64938674D01*
X96559074Y-64939033D01*
X96939618Y-64781796D01*
X97231022Y-64490900D01*
X97388923Y-64110631D01*
X97389282Y-63698883D01*
X97232045Y-63318339D01*
X96941149Y-63026935D01*
X96560880Y-62869034D01*
X96242132Y-62868756D01*
X96229542Y-62838285D01*
X95938646Y-62546881D01*
X95558377Y-62388980D01*
X95339626Y-62388789D01*
X95480483Y-62049566D01*
X95480842Y-61637818D01*
X95323605Y-61257274D01*
X95032709Y-60965870D01*
X94652440Y-60807969D01*
X94240692Y-60807610D01*
X93860148Y-60964847D01*
X93568744Y-61255743D01*
X93410843Y-61636012D01*
X93410484Y-62047760D01*
X88340000Y-62047760D01*
X88340000Y-60225171D01*
X88525221Y-60225171D01*
X88682458Y-60605715D01*
X88973354Y-60897119D01*
X89353623Y-61055020D01*
X89765371Y-61055379D01*
X90145915Y-60898142D01*
X90437319Y-60607246D01*
X90481606Y-60500589D01*
X95357821Y-60500589D01*
X95515058Y-60881133D01*
X95805954Y-61172537D01*
X96186223Y-61330438D01*
X96597971Y-61330797D01*
X96978515Y-61173560D01*
X97269919Y-60882664D01*
X97345436Y-60700798D01*
X97419949Y-60881134D01*
X97710845Y-61172538D01*
X98091114Y-61330439D01*
X98502862Y-61330798D01*
X98597896Y-61291531D01*
X98720360Y-61587918D01*
X99011256Y-61879322D01*
X99391525Y-62037223D01*
X99705328Y-62037497D01*
X99933469Y-62266036D01*
X100313738Y-62423937D01*
X100725486Y-62424296D01*
X101106030Y-62267059D01*
X101304906Y-62068529D01*
X101660191Y-62068839D01*
X102040735Y-61911602D01*
X102136146Y-61816358D01*
X102247692Y-61928098D01*
X102246385Y-61928638D01*
X101954981Y-62219534D01*
X101797080Y-62599803D01*
X101796721Y-63011551D01*
X101953958Y-63392095D01*
X102244854Y-63683499D01*
X102625123Y-63841400D01*
X103036871Y-63841759D01*
X103417415Y-63684522D01*
X103708819Y-63393626D01*
X103866720Y-63013357D01*
X103867079Y-62601609D01*
X103709842Y-62221065D01*
X103536620Y-62047541D01*
X103537927Y-62047001D01*
X103829331Y-61756105D01*
X103984176Y-61383195D01*
X104036482Y-61509784D01*
X104327378Y-61801188D01*
X104707647Y-61959089D01*
X104874102Y-61959234D01*
X104913058Y-62053515D01*
X105203954Y-62344919D01*
X105584223Y-62502820D01*
X105995971Y-62503179D01*
X106376515Y-62345942D01*
X106667919Y-62055046D01*
X106825820Y-61674777D01*
X106826179Y-61263029D01*
X106668942Y-60882485D01*
X106378046Y-60591081D01*
X105997777Y-60433180D01*
X105831322Y-60433035D01*
X105792366Y-60338754D01*
X105501470Y-60047350D01*
X105121201Y-59889449D01*
X104709453Y-59889090D01*
X104328909Y-60046327D01*
X104037505Y-60337223D01*
X103882660Y-60710133D01*
X103830354Y-60583544D01*
X103539458Y-60292140D01*
X103159189Y-60134239D01*
X102747441Y-60133880D01*
X102366897Y-60291117D01*
X102271486Y-60386361D01*
X102042266Y-60156741D01*
X101661997Y-59998840D01*
X101250249Y-59998481D01*
X100869705Y-60155718D01*
X100670829Y-60354248D01*
X100413489Y-60354023D01*
X100185348Y-60125484D01*
X99805079Y-59967583D01*
X99393331Y-59967224D01*
X99298297Y-60006491D01*
X99175833Y-59710104D01*
X98884937Y-59418700D01*
X98504668Y-59260799D01*
X98096184Y-59260443D01*
X98096199Y-59243729D01*
X97938962Y-58863185D01*
X97648066Y-58571781D01*
X97267797Y-58413880D01*
X96856049Y-58413521D01*
X96475505Y-58570758D01*
X96184101Y-58861654D01*
X96026200Y-59241923D01*
X96026126Y-59327336D01*
X95807485Y-59417676D01*
X95516081Y-59708572D01*
X95358180Y-60088841D01*
X95357821Y-60500589D01*
X90481606Y-60500589D01*
X90595220Y-60226977D01*
X90595579Y-59815229D01*
X90519380Y-59630811D01*
X91055061Y-59630811D01*
X91212298Y-60011355D01*
X91503194Y-60302759D01*
X91883463Y-60460660D01*
X92295211Y-60461019D01*
X92675755Y-60303782D01*
X92967159Y-60012886D01*
X93125060Y-59632617D01*
X93125419Y-59220869D01*
X92968182Y-58840325D01*
X92677286Y-58548921D01*
X92297017Y-58391020D01*
X91885269Y-58390661D01*
X91504725Y-58547898D01*
X91213321Y-58838794D01*
X91055420Y-59219063D01*
X91055061Y-59630811D01*
X90519380Y-59630811D01*
X90438342Y-59434685D01*
X90147446Y-59143281D01*
X89767177Y-58985380D01*
X89355429Y-58985021D01*
X88974885Y-59142258D01*
X88683481Y-59433154D01*
X88525580Y-59813423D01*
X88525221Y-60225171D01*
X88340000Y-60225171D01*
X88340000Y-58319728D01*
X98817120Y-58319728D01*
X98974357Y-58700272D01*
X99265253Y-58991676D01*
X99645522Y-59149577D01*
X99735040Y-59149655D01*
X99789879Y-59282375D01*
X100080775Y-59573779D01*
X100461044Y-59731680D01*
X100872792Y-59732039D01*
X101253336Y-59574802D01*
X101544740Y-59283906D01*
X101702641Y-58903637D01*
X101703000Y-58491889D01*
X101545763Y-58111345D01*
X101254867Y-57819941D01*
X100874598Y-57662040D01*
X100785080Y-57661962D01*
X100730241Y-57529242D01*
X100439345Y-57237838D01*
X100059076Y-57079937D01*
X99647328Y-57079578D01*
X99266784Y-57236815D01*
X98975380Y-57527711D01*
X98817479Y-57907980D01*
X98817120Y-58319728D01*
X88340000Y-58319728D01*
X88340000Y-57375291D01*
X90709621Y-57375291D01*
X90866858Y-57755835D01*
X91157754Y-58047239D01*
X91538023Y-58205140D01*
X91949771Y-58205499D01*
X92330315Y-58048262D01*
X92621719Y-57757366D01*
X92779620Y-57377097D01*
X92779979Y-56965349D01*
X92622742Y-56584805D01*
X92331846Y-56293401D01*
X91951577Y-56135500D01*
X91539829Y-56135141D01*
X91159285Y-56292378D01*
X90867881Y-56583274D01*
X90709980Y-56963543D01*
X90709621Y-57375291D01*
X88340000Y-57375291D01*
X88340000Y-55533483D01*
X94627936Y-55533483D01*
X94785173Y-55914027D01*
X95076069Y-56205431D01*
X95456338Y-56363332D01*
X95868086Y-56363691D01*
X96248630Y-56206454D01*
X96540034Y-55915558D01*
X96697935Y-55535289D01*
X96698294Y-55123541D01*
X96541057Y-54742997D01*
X96250161Y-54451593D01*
X95869892Y-54293692D01*
X95458144Y-54293333D01*
X95077600Y-54450570D01*
X94786196Y-54741466D01*
X94628295Y-55121735D01*
X94627936Y-55533483D01*
X88340000Y-55533483D01*
X88340000Y-53645893D01*
X90093552Y-53645893D01*
X90258386Y-54044820D01*
X90563335Y-54350302D01*
X90961973Y-54515831D01*
X91393613Y-54516208D01*
X91792540Y-54351374D01*
X92098022Y-54046425D01*
X92263551Y-53647787D01*
X92263928Y-53216147D01*
X92099094Y-52817220D01*
X92064905Y-52782971D01*
X95362901Y-52782971D01*
X95520138Y-53163515D01*
X95811034Y-53454919D01*
X96191303Y-53612820D01*
X96603051Y-53613179D01*
X96849094Y-53511517D01*
X96866342Y-53528795D01*
X96866009Y-53910335D01*
X97023246Y-54290879D01*
X97314142Y-54582283D01*
X97694411Y-54740184D01*
X98106159Y-54740543D01*
X98486703Y-54583306D01*
X98778107Y-54292410D01*
X98936008Y-53912141D01*
X98936186Y-53707531D01*
X101834821Y-53707531D01*
X101992058Y-54088075D01*
X102282954Y-54379479D01*
X102663223Y-54537380D01*
X103074971Y-54537739D01*
X103100759Y-54527084D01*
X103100484Y-54841931D01*
X103257721Y-55222475D01*
X103548617Y-55513879D01*
X103928886Y-55671780D01*
X104340634Y-55672139D01*
X104565065Y-55579406D01*
X104647694Y-55662179D01*
X105027963Y-55820080D01*
X105439711Y-55820439D01*
X105759690Y-55688227D01*
X105908738Y-56048953D01*
X106199634Y-56340357D01*
X106579903Y-56498258D01*
X106991651Y-56498617D01*
X107107941Y-56450567D01*
X109335172Y-56450567D01*
X109982000Y-57097395D01*
X110628828Y-56450567D01*
X110585492Y-56230299D01*
X110138999Y-56079028D01*
X109668604Y-56110137D01*
X109378508Y-56230299D01*
X109335172Y-56450567D01*
X107107941Y-56450567D01*
X107372195Y-56341380D01*
X107663599Y-56050484D01*
X107821500Y-55670215D01*
X107821859Y-55258467D01*
X107664622Y-54877923D01*
X107373726Y-54586519D01*
X106993457Y-54428618D01*
X106581709Y-54428259D01*
X106261730Y-54560471D01*
X106112682Y-54199745D01*
X105821786Y-53908341D01*
X105441517Y-53750440D01*
X105155540Y-53750191D01*
X105232819Y-53673046D01*
X105390720Y-53292777D01*
X105391079Y-52881029D01*
X105233842Y-52500485D01*
X104942946Y-52209081D01*
X104562677Y-52051180D01*
X104150929Y-52050821D01*
X103770385Y-52208058D01*
X103478981Y-52498954D01*
X103430887Y-52614779D01*
X103076777Y-52467740D01*
X102665029Y-52467381D01*
X102284485Y-52624618D01*
X101993081Y-52915514D01*
X101835180Y-53295783D01*
X101834821Y-53707531D01*
X98936186Y-53707531D01*
X98936367Y-53500393D01*
X98779130Y-53119849D01*
X98599760Y-52940166D01*
X98600093Y-52558626D01*
X98442856Y-52178082D01*
X98151960Y-51886678D01*
X97771691Y-51728777D01*
X97359943Y-51728418D01*
X97113900Y-51830080D01*
X96985126Y-51701081D01*
X96604857Y-51543180D01*
X96193109Y-51542821D01*
X95812565Y-51700058D01*
X95521161Y-51990954D01*
X95363260Y-52371223D01*
X95362901Y-52782971D01*
X92064905Y-52782971D01*
X91794145Y-52511738D01*
X91395507Y-52346209D01*
X90963867Y-52345832D01*
X90564940Y-52510666D01*
X90259458Y-52815615D01*
X90093929Y-53214253D01*
X90093552Y-53645893D01*
X88340000Y-53645893D01*
X88340000Y-50242971D01*
X93706821Y-50242971D01*
X93864058Y-50623515D01*
X94154954Y-50914919D01*
X94535223Y-51072820D01*
X94946971Y-51073179D01*
X95327515Y-50915942D01*
X95618919Y-50625046D01*
X95776820Y-50244777D01*
X95777179Y-49833029D01*
X95619942Y-49452485D01*
X95329046Y-49161081D01*
X95162014Y-49091724D01*
X95454971Y-49091979D01*
X95835515Y-48934742D01*
X96126919Y-48643846D01*
X96264475Y-48312571D01*
X102520621Y-48312571D01*
X102677858Y-48693115D01*
X102968754Y-48984519D01*
X103349023Y-49142420D01*
X103760771Y-49142779D01*
X104141315Y-48985542D01*
X104432719Y-48694646D01*
X104509131Y-48510626D01*
X104532058Y-48566115D01*
X104822954Y-48857519D01*
X105203223Y-49015420D01*
X105614971Y-49015779D01*
X105995515Y-48858542D01*
X106286919Y-48567646D01*
X106444820Y-48187377D01*
X106445179Y-47775629D01*
X106287942Y-47395085D01*
X105997046Y-47103681D01*
X105616777Y-46945780D01*
X105205029Y-46945421D01*
X104824485Y-47102658D01*
X104533081Y-47393554D01*
X104456669Y-47577574D01*
X104433742Y-47522085D01*
X104142846Y-47230681D01*
X103762577Y-47072780D01*
X103350829Y-47072421D01*
X102970285Y-47229658D01*
X102678881Y-47520554D01*
X102520980Y-47900823D01*
X102520621Y-48312571D01*
X96264475Y-48312571D01*
X96284820Y-48263577D01*
X96285179Y-47851829D01*
X96127942Y-47471285D01*
X95837046Y-47179881D01*
X95456777Y-47021980D01*
X95045029Y-47021621D01*
X94664485Y-47178858D01*
X94373081Y-47469754D01*
X94215180Y-47850023D01*
X94214821Y-48261771D01*
X94372058Y-48642315D01*
X94662954Y-48933719D01*
X94829986Y-49003076D01*
X94537029Y-49002821D01*
X94156485Y-49160058D01*
X93865081Y-49450954D01*
X93707180Y-49831223D01*
X93706821Y-50242971D01*
X88340000Y-50242971D01*
X88340000Y-46845893D01*
X90093552Y-46845893D01*
X90258386Y-47244820D01*
X90563335Y-47550302D01*
X90961973Y-47715831D01*
X91393613Y-47716208D01*
X91792540Y-47551374D01*
X92098022Y-47246425D01*
X92263551Y-46847787D01*
X92263928Y-46416147D01*
X92099094Y-46017220D01*
X91880228Y-45797971D01*
X92690821Y-45797971D01*
X92848058Y-46178515D01*
X93138954Y-46469919D01*
X93519223Y-46627820D01*
X93930971Y-46628179D01*
X94311515Y-46470942D01*
X94602919Y-46180046D01*
X94760820Y-45799777D01*
X94761175Y-45391571D01*
X96043621Y-45391571D01*
X96200858Y-45772115D01*
X96491754Y-46063519D01*
X96872023Y-46221420D01*
X97283771Y-46221779D01*
X97664315Y-46064542D01*
X97955719Y-45773646D01*
X97998353Y-45670971D01*
X104679621Y-45670971D01*
X104836858Y-46051515D01*
X105127754Y-46342919D01*
X105508023Y-46500820D01*
X105919771Y-46501179D01*
X106300315Y-46343942D01*
X106591719Y-46053046D01*
X106749620Y-45672777D01*
X106749979Y-45261029D01*
X106592742Y-44880485D01*
X106301846Y-44589081D01*
X105921577Y-44431180D01*
X105509829Y-44430821D01*
X105129285Y-44588058D01*
X104837881Y-44878954D01*
X104679980Y-45259223D01*
X104679621Y-45670971D01*
X97998353Y-45670971D01*
X98113620Y-45393377D01*
X98113979Y-44981629D01*
X97956742Y-44601085D01*
X97665846Y-44309681D01*
X97285577Y-44151780D01*
X96873829Y-44151421D01*
X96493285Y-44308658D01*
X96201881Y-44599554D01*
X96043980Y-44979823D01*
X96043621Y-45391571D01*
X94761175Y-45391571D01*
X94761179Y-45388029D01*
X94603942Y-45007485D01*
X94313046Y-44716081D01*
X93932777Y-44558180D01*
X93521029Y-44557821D01*
X93140485Y-44715058D01*
X92849081Y-45005954D01*
X92691180Y-45386223D01*
X92690821Y-45797971D01*
X91880228Y-45797971D01*
X91794145Y-45711738D01*
X91395507Y-45546209D01*
X90963867Y-45545832D01*
X90564940Y-45710666D01*
X90259458Y-46015615D01*
X90093929Y-46414253D01*
X90093552Y-46845893D01*
X88340000Y-46845893D01*
X88340000Y-44434917D01*
X88449897Y-44545006D01*
X88986314Y-44767746D01*
X89567138Y-44768253D01*
X90103943Y-44546449D01*
X90515006Y-44136103D01*
X90737746Y-43599686D01*
X90738253Y-43018862D01*
X90575707Y-42625470D01*
X90687782Y-42625470D01*
X90879201Y-43088740D01*
X91233335Y-43443493D01*
X91696271Y-43635721D01*
X92197530Y-43636158D01*
X92660800Y-43444739D01*
X92720872Y-43384772D01*
X92757954Y-43421919D01*
X93138223Y-43579820D01*
X93549971Y-43580179D01*
X93930515Y-43422942D01*
X94146662Y-43207171D01*
X100818821Y-43207171D01*
X100976058Y-43587715D01*
X101266954Y-43879119D01*
X101647223Y-44037020D01*
X102058971Y-44037379D01*
X102439515Y-43880142D01*
X102730919Y-43589246D01*
X102888820Y-43208977D01*
X102889179Y-42797229D01*
X102731942Y-42416685D01*
X102441046Y-42125281D01*
X102060777Y-41967380D01*
X101649029Y-41967021D01*
X101268485Y-42124258D01*
X100977081Y-42415154D01*
X100819180Y-42795423D01*
X100818821Y-43207171D01*
X94146662Y-43207171D01*
X94221919Y-43132046D01*
X94379820Y-42751777D01*
X94380179Y-42340029D01*
X94278046Y-42092847D01*
X94405220Y-41786577D01*
X94405487Y-41479971D01*
X95484821Y-41479971D01*
X95642058Y-41860515D01*
X95932954Y-42151919D01*
X96313223Y-42309820D01*
X96724971Y-42310179D01*
X97105515Y-42152942D01*
X97396919Y-41862046D01*
X97554820Y-41481777D01*
X97555179Y-41070029D01*
X97397942Y-40689485D01*
X97107046Y-40398081D01*
X96898707Y-40311571D01*
X101403021Y-40311571D01*
X101560258Y-40692115D01*
X101851154Y-40983519D01*
X102231423Y-41141420D01*
X102643171Y-41141779D01*
X102688844Y-41122907D01*
X107001000Y-41122907D01*
X107001000Y-41681093D01*
X107095009Y-42153707D01*
X107362723Y-42554370D01*
X107763386Y-42822084D01*
X108236000Y-42916093D01*
X108708614Y-42822084D01*
X109085116Y-42570514D01*
X109178191Y-42709809D01*
X109388235Y-42850157D01*
X109636000Y-42899440D01*
X110836000Y-42899440D01*
X111083765Y-42850157D01*
X111293809Y-42709809D01*
X111434157Y-42499765D01*
X111483440Y-42252000D01*
X111483440Y-40552000D01*
X111434157Y-40304235D01*
X111293809Y-40094191D01*
X111083765Y-39953843D01*
X110836000Y-39904560D01*
X109636000Y-39904560D01*
X109388235Y-39953843D01*
X109178191Y-40094191D01*
X109085116Y-40233486D01*
X108708614Y-39981916D01*
X108236000Y-39887907D01*
X107763386Y-39981916D01*
X107362723Y-40249630D01*
X107095009Y-40650293D01*
X107001000Y-41122907D01*
X102688844Y-41122907D01*
X103023715Y-40984542D01*
X103315119Y-40693646D01*
X103473020Y-40313377D01*
X103473379Y-39901629D01*
X103316142Y-39521085D01*
X103025246Y-39229681D01*
X102644977Y-39071780D01*
X102233229Y-39071421D01*
X101852685Y-39228658D01*
X101561281Y-39519554D01*
X101403380Y-39899823D01*
X101403021Y-40311571D01*
X96898707Y-40311571D01*
X96726777Y-40240180D01*
X96315029Y-40239821D01*
X95934485Y-40397058D01*
X95643081Y-40687954D01*
X95485180Y-41068223D01*
X95484821Y-41479971D01*
X94405487Y-41479971D01*
X94405579Y-41374829D01*
X94257067Y-41015401D01*
X94379820Y-40719777D01*
X94380179Y-40308029D01*
X94222942Y-39927485D01*
X93932046Y-39636081D01*
X93551777Y-39478180D01*
X93140029Y-39477821D01*
X92759485Y-39635058D01*
X92468081Y-39925954D01*
X92310180Y-40306223D01*
X92309821Y-40717971D01*
X92458333Y-41077399D01*
X92406574Y-41202049D01*
X92199729Y-41116159D01*
X91698470Y-41115722D01*
X91235200Y-41307141D01*
X90880447Y-41661275D01*
X90688219Y-42124211D01*
X90687782Y-42625470D01*
X90575707Y-42625470D01*
X90516449Y-42482057D01*
X90106103Y-42070994D01*
X89569686Y-41848254D01*
X88988862Y-41847747D01*
X88452057Y-42069551D01*
X88340000Y-42181413D01*
X88340000Y-39016171D01*
X104146221Y-39016171D01*
X104303458Y-39396715D01*
X104594354Y-39688119D01*
X104974623Y-39846020D01*
X105386371Y-39846379D01*
X105766915Y-39689142D01*
X106058319Y-39398246D01*
X106216220Y-39017977D01*
X106216579Y-38606229D01*
X106059342Y-38225685D01*
X105768446Y-37934281D01*
X105388177Y-37776380D01*
X104976429Y-37776021D01*
X104595885Y-37933258D01*
X104304481Y-38224154D01*
X104146580Y-38604423D01*
X104146221Y-39016171D01*
X88340000Y-39016171D01*
X88340000Y-37574917D01*
X88449897Y-37685006D01*
X88986314Y-37907746D01*
X89567138Y-37908253D01*
X90103943Y-37686449D01*
X90165028Y-37625470D01*
X90687782Y-37625470D01*
X90879201Y-38088740D01*
X91233335Y-38443493D01*
X91696271Y-38635721D01*
X92197530Y-38636158D01*
X92660800Y-38444739D01*
X93015553Y-38090605D01*
X93207781Y-37627669D01*
X93208218Y-37126410D01*
X93170437Y-37034971D01*
X100588821Y-37034971D01*
X100746058Y-37415515D01*
X101036954Y-37706919D01*
X101417223Y-37864820D01*
X101828971Y-37865179D01*
X102209515Y-37707942D01*
X102500919Y-37417046D01*
X102658820Y-37036777D01*
X102659179Y-36625029D01*
X102501942Y-36244485D01*
X102211046Y-35953081D01*
X101830777Y-35795180D01*
X101419029Y-35794821D01*
X101038485Y-35952058D01*
X100747081Y-36242954D01*
X100589180Y-36623223D01*
X100588821Y-37034971D01*
X93170437Y-37034971D01*
X93016799Y-36663140D01*
X92662665Y-36308387D01*
X92199729Y-36116159D01*
X91698470Y-36115722D01*
X91235200Y-36307141D01*
X90880447Y-36661275D01*
X90688219Y-37124211D01*
X90687782Y-37625470D01*
X90165028Y-37625470D01*
X90515006Y-37276103D01*
X90737746Y-36739686D01*
X90738253Y-36158862D01*
X90516449Y-35622057D01*
X90106103Y-35210994D01*
X89597973Y-35000000D01*
X92741956Y-35000000D01*
X92741621Y-35383971D01*
X92741621Y-35383971D01*
G37*
X92741621Y-35383971D02*
X92898858Y-35764515D01*
X93189754Y-36055919D01*
X93570023Y-36213820D01*
X93981771Y-36214179D01*
X94362315Y-36056942D01*
X94653719Y-35766046D01*
X94747283Y-35540719D01*
X94829258Y-35739115D01*
X95120154Y-36030519D01*
X95500423Y-36188420D01*
X95912171Y-36188779D01*
X96292715Y-36031542D01*
X96584119Y-35740646D01*
X96742020Y-35360377D01*
X96742334Y-35000000D01*
X112320000Y-35000000D01*
X112320000Y-44818927D01*
X112214029Y-44660330D01*
X111727848Y-44335474D01*
X111154359Y-44221400D01*
X111095641Y-44221400D01*
X110522152Y-44335474D01*
X110035971Y-44660330D01*
X109855000Y-44931172D01*
X109674029Y-44660330D01*
X109187848Y-44335474D01*
X108614359Y-44221400D01*
X108555641Y-44221400D01*
X107982152Y-44335474D01*
X107495971Y-44660330D01*
X107171115Y-45146511D01*
X107057041Y-45720000D01*
X107171115Y-46293489D01*
X107495971Y-46779670D01*
X107810752Y-46990000D01*
X107495971Y-47200330D01*
X107171115Y-47686511D01*
X107057041Y-48260000D01*
X107171115Y-48833489D01*
X107495971Y-49319670D01*
X107781553Y-49510490D01*
X107737220Y-49528808D01*
X107315290Y-49950003D01*
X107086661Y-50500602D01*
X107086141Y-51096782D01*
X107313808Y-51647780D01*
X107735003Y-52069710D01*
X108285602Y-52298339D01*
X108881782Y-52298859D01*
X109432780Y-52071192D01*
X109854710Y-51649997D01*
X109870486Y-51612004D01*
X110035971Y-51859670D01*
X110522152Y-52184526D01*
X111095641Y-52298600D01*
X111154359Y-52298600D01*
X111727848Y-52184526D01*
X112214029Y-51859670D01*
X112320000Y-51701073D01*
X112320000Y-56233433D01*
X111996745Y-56099206D01*
X111525323Y-56098794D01*
X111089628Y-56278820D01*
X110755991Y-56611875D01*
X110705760Y-56732845D01*
X110161605Y-57277000D01*
X110175748Y-57291143D01*
X110074810Y-57392080D01*
X109889028Y-57391918D01*
X109788253Y-57291143D01*
X109802395Y-57277000D01*
X109155567Y-56630172D01*
X108935299Y-56673508D01*
X108784028Y-57120001D01*
X108815137Y-57590396D01*
X108935299Y-57880492D01*
X108991366Y-57891523D01*
X108977991Y-57904875D01*
X108797206Y-58340255D01*
X108796794Y-58811677D01*
X108976820Y-59247372D01*
X109309875Y-59581009D01*
X109745255Y-59761794D01*
X110216677Y-59762206D01*
X110591842Y-59607190D01*
X110575206Y-59647255D01*
X110574794Y-60118677D01*
X110582000Y-60136116D01*
X110138999Y-59986028D01*
X109668604Y-60017137D01*
X109378508Y-60137299D01*
X109335172Y-60357567D01*
X109982000Y-61004395D01*
X109996143Y-60990253D01*
X110175748Y-61169858D01*
X110161605Y-61184000D01*
X110175748Y-61198143D01*
X110074810Y-61299080D01*
X109889028Y-61298918D01*
X109788253Y-61198143D01*
X109802395Y-61184000D01*
X109155567Y-60537172D01*
X108935299Y-60580508D01*
X108784028Y-61027001D01*
X108815137Y-61497396D01*
X108935299Y-61787492D01*
X108991366Y-61798523D01*
X108977991Y-61811875D01*
X108797206Y-62247255D01*
X108796794Y-62718677D01*
X108976820Y-63154372D01*
X109309875Y-63488009D01*
X109745255Y-63668794D01*
X110216677Y-63669206D01*
X110652372Y-63489180D01*
X110871089Y-63270844D01*
X111087875Y-63488009D01*
X111523255Y-63668794D01*
X111994677Y-63669206D01*
X112320000Y-63534785D01*
X112320000Y-71092433D01*
X111996745Y-70958206D01*
X111525323Y-70957794D01*
X111089628Y-71137820D01*
X110755991Y-71470875D01*
X110727063Y-71540542D01*
X110161605Y-72106000D01*
X110175748Y-72120143D01*
X110074810Y-72221080D01*
X109889028Y-72220918D01*
X109788253Y-72120143D01*
X109802395Y-72106000D01*
X109155567Y-71459172D01*
X108935299Y-71502508D01*
X108784028Y-71949001D01*
X108815137Y-72419396D01*
X108935299Y-72709492D01*
X108991366Y-72720523D01*
X108977991Y-72733875D01*
X108797206Y-73169255D01*
X108797196Y-73180439D01*
X108700942Y-72947485D01*
X108410046Y-72656081D01*
X108029777Y-72498180D01*
X107618029Y-72497821D01*
X107237485Y-72655058D01*
X106946081Y-72945954D01*
X106788180Y-73326223D01*
X106787821Y-73737971D01*
X106945058Y-74118515D01*
X107235954Y-74409919D01*
X107616223Y-74567820D01*
X108027971Y-74568179D01*
X108408515Y-74410942D01*
X108699919Y-74120046D01*
X108847756Y-73764014D01*
X108976820Y-74076372D01*
X109309875Y-74410009D01*
X109745255Y-74590794D01*
X110216677Y-74591206D01*
X110606879Y-74429977D01*
X110575206Y-74506255D01*
X110574794Y-74977677D01*
X110582000Y-74995116D01*
X110138999Y-74845028D01*
X109668604Y-74876137D01*
X109378508Y-74996299D01*
X109335172Y-75216567D01*
X109982000Y-75863395D01*
X109996143Y-75849253D01*
X110175748Y-76028858D01*
X110161605Y-76043000D01*
X110175748Y-76057143D01*
X110074810Y-76158080D01*
X109889028Y-76157918D01*
X109788253Y-76057143D01*
X109802395Y-76043000D01*
X109155567Y-75396172D01*
X108935299Y-75439508D01*
X108784028Y-75886001D01*
X108815137Y-76356396D01*
X108935299Y-76646492D01*
X108991366Y-76657523D01*
X108977991Y-76670875D01*
X108797206Y-77106255D01*
X108796794Y-77577677D01*
X108976820Y-78013372D01*
X109309875Y-78347009D01*
X109745255Y-78527794D01*
X110216677Y-78528206D01*
X110652372Y-78348180D01*
X110871089Y-78129844D01*
X111087875Y-78347009D01*
X111523255Y-78527794D01*
X111994677Y-78528206D01*
X112320000Y-78393785D01*
X112320000Y-79474374D01*
X111789155Y-79119675D01*
X111157345Y-78994000D01*
X111092655Y-78994000D01*
X110460845Y-79119675D01*
X109925222Y-79477567D01*
X109567330Y-80013190D01*
X109441655Y-80645000D01*
X109567330Y-81276810D01*
X109793872Y-81615854D01*
X109651191Y-81711191D01*
X109510843Y-81921235D01*
X109461560Y-82169000D01*
X109461560Y-84201000D01*
X109497165Y-84380000D01*
X92481879Y-84380000D01*
X92684415Y-84244670D01*
X93009271Y-83758489D01*
X93123345Y-83185000D01*
X93009271Y-82611511D01*
X92738870Y-82206827D01*
X97029793Y-82206827D01*
X97187030Y-82587371D01*
X97477926Y-82878775D01*
X97858195Y-83036676D01*
X98269943Y-83037035D01*
X98650487Y-82879798D01*
X98941891Y-82588902D01*
X99099792Y-82208633D01*
X99099869Y-82119971D01*
X101530021Y-82119971D01*
X101687258Y-82500515D01*
X101978154Y-82791919D01*
X102358423Y-82949820D01*
X102770171Y-82950179D01*
X103150715Y-82792942D01*
X103442119Y-82502046D01*
X103497409Y-82368891D01*
X105139361Y-82368891D01*
X105296598Y-82749435D01*
X105587494Y-83040839D01*
X105967763Y-83198740D01*
X106379511Y-83199099D01*
X106760055Y-83041862D01*
X107051459Y-82750966D01*
X107209360Y-82370697D01*
X107209719Y-81958949D01*
X107052482Y-81578405D01*
X106761586Y-81287001D01*
X106381317Y-81129100D01*
X105969569Y-81128741D01*
X105589025Y-81285978D01*
X105297621Y-81576874D01*
X105139720Y-81957143D01*
X105139361Y-82368891D01*
X103497409Y-82368891D01*
X103600020Y-82121777D01*
X103600379Y-81710029D01*
X103443142Y-81329485D01*
X103152246Y-81038081D01*
X102771977Y-80880180D01*
X102360229Y-80879821D01*
X101979685Y-81037058D01*
X101688281Y-81327954D01*
X101530380Y-81708223D01*
X101530021Y-82119971D01*
X99099869Y-82119971D01*
X99100151Y-81796885D01*
X98942914Y-81416341D01*
X98652018Y-81124937D01*
X98271749Y-80967036D01*
X97860001Y-80966677D01*
X97479457Y-81123914D01*
X97188053Y-81414810D01*
X97030152Y-81795079D01*
X97029793Y-82206827D01*
X92738870Y-82206827D01*
X92684415Y-82125330D01*
X92369634Y-81915000D01*
X92684415Y-81704670D01*
X93009271Y-81218489D01*
X93123345Y-80645000D01*
X93009271Y-80071511D01*
X92684415Y-79585330D01*
X92486326Y-79452971D01*
X107549821Y-79452971D01*
X107707058Y-79833515D01*
X107997954Y-80124919D01*
X108378223Y-80282820D01*
X108789971Y-80283179D01*
X109170515Y-80125942D01*
X109461919Y-79835046D01*
X109619820Y-79454777D01*
X109620179Y-79043029D01*
X109462942Y-78662485D01*
X109172046Y-78371081D01*
X108791777Y-78213180D01*
X108380029Y-78212821D01*
X107999485Y-78370058D01*
X107708081Y-78660954D01*
X107550180Y-79041223D01*
X107549821Y-79452971D01*
X92486326Y-79452971D01*
X92369634Y-79375000D01*
X92684415Y-79164670D01*
X93009271Y-78678489D01*
X93123345Y-78105000D01*
X93009271Y-77531511D01*
X92684415Y-77045330D01*
X92369634Y-76835000D01*
X92684415Y-76624670D01*
X93009271Y-76138489D01*
X93123345Y-75565000D01*
X93009271Y-74991511D01*
X92684415Y-74505330D01*
X92198234Y-74180474D01*
X91624745Y-74066400D01*
X91255255Y-74066400D01*
X90681766Y-74180474D01*
X90195585Y-74505330D01*
X89989013Y-74814487D01*
X90087220Y-74577977D01*
X90087579Y-74166229D01*
X89930342Y-73785685D01*
X89639446Y-73494281D01*
X89259177Y-73336380D01*
X88847429Y-73336021D01*
X88466885Y-73493258D01*
X88340000Y-73619922D01*
X88340000Y-71502771D01*
X97948621Y-71502771D01*
X98105858Y-71883315D01*
X98396754Y-72174719D01*
X98777023Y-72332620D01*
X99188771Y-72332979D01*
X99569315Y-72175742D01*
X99860719Y-71884846D01*
X100018620Y-71504577D01*
X100018665Y-71451971D01*
X101326821Y-71451971D01*
X101484058Y-71832515D01*
X101774954Y-72123919D01*
X102155223Y-72281820D01*
X102566971Y-72282179D01*
X102947515Y-72124942D01*
X103081943Y-71990748D01*
X103171223Y-72027820D01*
X103582971Y-72028179D01*
X103963515Y-71870942D01*
X104254919Y-71580046D01*
X104379688Y-71279567D01*
X109335172Y-71279567D01*
X109982000Y-71926395D01*
X110628828Y-71279567D01*
X110585492Y-71059299D01*
X110138999Y-70908028D01*
X109668604Y-70939137D01*
X109378508Y-71059299D01*
X109335172Y-71279567D01*
X104379688Y-71279567D01*
X104412820Y-71199777D01*
X104413179Y-70788029D01*
X104255942Y-70407485D01*
X104079329Y-70230564D01*
X104307967Y-70136093D01*
X104599371Y-69845197D01*
X104757272Y-69464928D01*
X104757631Y-69053180D01*
X104600394Y-68672636D01*
X104309498Y-68381232D01*
X103929229Y-68223331D01*
X103517481Y-68222972D01*
X103136937Y-68380209D01*
X102845533Y-68671105D01*
X102687632Y-69051374D01*
X102687273Y-69463122D01*
X102844510Y-69843666D01*
X103021123Y-70020587D01*
X102792485Y-70115058D01*
X102658057Y-70249252D01*
X102568777Y-70212180D01*
X102157029Y-70211821D01*
X101776485Y-70369058D01*
X101485081Y-70659954D01*
X101327180Y-71040223D01*
X101326821Y-71451971D01*
X100018665Y-71451971D01*
X100018979Y-71092829D01*
X99861742Y-70712285D01*
X99570846Y-70420881D01*
X99190577Y-70262980D01*
X98778829Y-70262621D01*
X98398285Y-70419858D01*
X98106881Y-70710754D01*
X97948980Y-71091023D01*
X97948621Y-71502771D01*
X88340000Y-71502771D01*
X88340000Y-70207371D01*
X90481021Y-70207371D01*
X90638258Y-70587915D01*
X90929154Y-70879319D01*
X91309423Y-71037220D01*
X91721171Y-71037579D01*
X92101715Y-70880342D01*
X92393119Y-70589446D01*
X92551020Y-70209177D01*
X92551084Y-70135335D01*
X92838315Y-70016654D01*
X93129719Y-69725758D01*
X93287620Y-69345489D01*
X93287657Y-69302537D01*
X93542351Y-69302759D01*
X93922895Y-69145522D01*
X94214299Y-68854626D01*
X94372200Y-68474357D01*
X94372559Y-68062609D01*
X94251231Y-67768971D01*
X100056821Y-67768971D01*
X100214058Y-68149515D01*
X100504954Y-68440919D01*
X100885223Y-68598820D01*
X101296971Y-68599179D01*
X101677515Y-68441942D01*
X101968919Y-68151046D01*
X102126820Y-67770777D01*
X102127179Y-67359029D01*
X101969942Y-66978485D01*
X101679046Y-66687081D01*
X101298777Y-66529180D01*
X100887029Y-66528821D01*
X100506485Y-66686058D01*
X100215081Y-66976954D01*
X100057180Y-67357223D01*
X100056821Y-67768971D01*
X94251231Y-67768971D01*
X94215322Y-67682065D01*
X93924426Y-67390661D01*
X93544157Y-67232760D01*
X93132409Y-67232401D01*
X92751865Y-67389638D01*
X92460461Y-67680534D01*
X92302560Y-68060803D01*
X92302523Y-68103755D01*
X92047829Y-68103533D01*
X91667285Y-68260770D01*
X91375881Y-68551666D01*
X91217980Y-68931935D01*
X91217916Y-69005777D01*
X90930685Y-69124458D01*
X90639281Y-69415354D01*
X90481380Y-69795623D01*
X90481021Y-70207371D01*
X88340000Y-70207371D01*
X88340000Y-66498971D01*
X97262821Y-66498971D01*
X97420058Y-66879515D01*
X97710954Y-67170919D01*
X98091223Y-67328820D01*
X98502971Y-67329179D01*
X98883515Y-67171942D01*
X99174919Y-66881046D01*
X99332820Y-66500777D01*
X99332821Y-66498971D01*
X105517821Y-66498971D01*
X105675058Y-66879515D01*
X105965954Y-67170919D01*
X106346223Y-67328820D01*
X106757971Y-67329179D01*
X107138515Y-67171942D01*
X107429919Y-66881046D01*
X107587820Y-66500777D01*
X107587994Y-66301098D01*
X107616223Y-66312820D01*
X108027971Y-66313179D01*
X108408515Y-66155942D01*
X108699919Y-65865046D01*
X108786002Y-65657735D01*
X109140223Y-65804820D01*
X109551971Y-65805179D01*
X109932515Y-65647942D01*
X110223919Y-65357046D01*
X110381820Y-64976777D01*
X110382179Y-64565029D01*
X110224942Y-64184485D01*
X109934046Y-63893081D01*
X109553777Y-63735180D01*
X109142029Y-63734821D01*
X108761485Y-63892058D01*
X108470081Y-64182954D01*
X108383998Y-64390265D01*
X108029777Y-64243180D01*
X107618029Y-64242821D01*
X107237485Y-64400058D01*
X106946081Y-64690954D01*
X106788180Y-65071223D01*
X106788006Y-65270902D01*
X106759777Y-65259180D01*
X106348029Y-65258821D01*
X105967485Y-65416058D01*
X105676081Y-65706954D01*
X105518180Y-66087223D01*
X105517821Y-66498971D01*
X99332821Y-66498971D01*
X99333179Y-66089029D01*
X99175942Y-65708485D01*
X98885046Y-65417081D01*
X98534385Y-65271474D01*
X98883971Y-65271779D01*
X99264515Y-65114542D01*
X99506107Y-64873371D01*
X102825421Y-64873371D01*
X102982658Y-65253915D01*
X103273554Y-65545319D01*
X103653823Y-65703220D01*
X104065571Y-65703579D01*
X104446115Y-65546342D01*
X104737519Y-65255446D01*
X104895420Y-64875177D01*
X104895606Y-64661884D01*
X105233971Y-64662179D01*
X105614515Y-64504942D01*
X105905919Y-64214046D01*
X106063820Y-63833777D01*
X106064179Y-63422029D01*
X105906942Y-63041485D01*
X105616046Y-62750081D01*
X105235777Y-62592180D01*
X104824029Y-62591821D01*
X104443485Y-62749058D01*
X104152081Y-63039954D01*
X103994180Y-63420223D01*
X103993994Y-63633516D01*
X103655629Y-63633221D01*
X103275085Y-63790458D01*
X102983681Y-64081354D01*
X102825780Y-64461623D01*
X102825421Y-64873371D01*
X99506107Y-64873371D01*
X99555919Y-64823646D01*
X99713820Y-64443377D01*
X99714179Y-64031629D01*
X99556942Y-63651085D01*
X99266046Y-63359681D01*
X98885777Y-63201780D01*
X98474029Y-63201421D01*
X98093485Y-63358658D01*
X97802081Y-63649554D01*
X97644180Y-64029823D01*
X97643821Y-64441571D01*
X97801058Y-64822115D01*
X98091954Y-65113519D01*
X98442615Y-65259126D01*
X98093029Y-65258821D01*
X97712485Y-65416058D01*
X97421081Y-65706954D01*
X97263180Y-66087223D01*
X97262821Y-66498971D01*
X88340000Y-66498971D01*
X88340000Y-64517771D01*
X90760421Y-64517771D01*
X90917658Y-64898315D01*
X91208554Y-65189719D01*
X91588823Y-65347620D01*
X91769004Y-65347777D01*
X91787292Y-65392037D01*
X92078188Y-65683441D01*
X92458457Y-65841342D01*
X92870205Y-65841701D01*
X93250749Y-65684464D01*
X93542153Y-65393568D01*
X93700054Y-65013299D01*
X93700413Y-64601551D01*
X93543176Y-64221007D01*
X93252280Y-63929603D01*
X92872011Y-63771702D01*
X92691830Y-63771545D01*
X92673542Y-63727285D01*
X92382646Y-63435881D01*
X92002377Y-63277980D01*
X91590629Y-63277621D01*
X91210085Y-63434858D01*
X90918681Y-63725754D01*
X90760780Y-64106023D01*
X90760421Y-64517771D01*
X88340000Y-64517771D01*
X88340000Y-62047760D01*
X93410484Y-62047760D01*
X93567721Y-62428304D01*
X93858617Y-62719708D01*
X94238886Y-62877609D01*
X94457637Y-62877800D01*
X94316780Y-63217023D01*
X94316421Y-63628771D01*
X94473658Y-64009315D01*
X94764554Y-64300719D01*
X95144823Y-64458620D01*
X95463571Y-64458898D01*
X95476161Y-64489369D01*
X95767057Y-64780773D01*
X96147326Y-64938674D01*
X96559074Y-64939033D01*
X96939618Y-64781796D01*
X97231022Y-64490900D01*
X97388923Y-64110631D01*
X97389282Y-63698883D01*
X97232045Y-63318339D01*
X96941149Y-63026935D01*
X96560880Y-62869034D01*
X96242132Y-62868756D01*
X96229542Y-62838285D01*
X95938646Y-62546881D01*
X95558377Y-62388980D01*
X95339626Y-62388789D01*
X95480483Y-62049566D01*
X95480842Y-61637818D01*
X95323605Y-61257274D01*
X95032709Y-60965870D01*
X94652440Y-60807969D01*
X94240692Y-60807610D01*
X93860148Y-60964847D01*
X93568744Y-61255743D01*
X93410843Y-61636012D01*
X93410484Y-62047760D01*
X88340000Y-62047760D01*
X88340000Y-60225171D01*
X88525221Y-60225171D01*
X88682458Y-60605715D01*
X88973354Y-60897119D01*
X89353623Y-61055020D01*
X89765371Y-61055379D01*
X90145915Y-60898142D01*
X90437319Y-60607246D01*
X90481606Y-60500589D01*
X95357821Y-60500589D01*
X95515058Y-60881133D01*
X95805954Y-61172537D01*
X96186223Y-61330438D01*
X96597971Y-61330797D01*
X96978515Y-61173560D01*
X97269919Y-60882664D01*
X97345436Y-60700798D01*
X97419949Y-60881134D01*
X97710845Y-61172538D01*
X98091114Y-61330439D01*
X98502862Y-61330798D01*
X98597896Y-61291531D01*
X98720360Y-61587918D01*
X99011256Y-61879322D01*
X99391525Y-62037223D01*
X99705328Y-62037497D01*
X99933469Y-62266036D01*
X100313738Y-62423937D01*
X100725486Y-62424296D01*
X101106030Y-62267059D01*
X101304906Y-62068529D01*
X101660191Y-62068839D01*
X102040735Y-61911602D01*
X102136146Y-61816358D01*
X102247692Y-61928098D01*
X102246385Y-61928638D01*
X101954981Y-62219534D01*
X101797080Y-62599803D01*
X101796721Y-63011551D01*
X101953958Y-63392095D01*
X102244854Y-63683499D01*
X102625123Y-63841400D01*
X103036871Y-63841759D01*
X103417415Y-63684522D01*
X103708819Y-63393626D01*
X103866720Y-63013357D01*
X103867079Y-62601609D01*
X103709842Y-62221065D01*
X103536620Y-62047541D01*
X103537927Y-62047001D01*
X103829331Y-61756105D01*
X103984176Y-61383195D01*
X104036482Y-61509784D01*
X104327378Y-61801188D01*
X104707647Y-61959089D01*
X104874102Y-61959234D01*
X104913058Y-62053515D01*
X105203954Y-62344919D01*
X105584223Y-62502820D01*
X105995971Y-62503179D01*
X106376515Y-62345942D01*
X106667919Y-62055046D01*
X106825820Y-61674777D01*
X106826179Y-61263029D01*
X106668942Y-60882485D01*
X106378046Y-60591081D01*
X105997777Y-60433180D01*
X105831322Y-60433035D01*
X105792366Y-60338754D01*
X105501470Y-60047350D01*
X105121201Y-59889449D01*
X104709453Y-59889090D01*
X104328909Y-60046327D01*
X104037505Y-60337223D01*
X103882660Y-60710133D01*
X103830354Y-60583544D01*
X103539458Y-60292140D01*
X103159189Y-60134239D01*
X102747441Y-60133880D01*
X102366897Y-60291117D01*
X102271486Y-60386361D01*
X102042266Y-60156741D01*
X101661997Y-59998840D01*
X101250249Y-59998481D01*
X100869705Y-60155718D01*
X100670829Y-60354248D01*
X100413489Y-60354023D01*
X100185348Y-60125484D01*
X99805079Y-59967583D01*
X99393331Y-59967224D01*
X99298297Y-60006491D01*
X99175833Y-59710104D01*
X98884937Y-59418700D01*
X98504668Y-59260799D01*
X98096184Y-59260443D01*
X98096199Y-59243729D01*
X97938962Y-58863185D01*
X97648066Y-58571781D01*
X97267797Y-58413880D01*
X96856049Y-58413521D01*
X96475505Y-58570758D01*
X96184101Y-58861654D01*
X96026200Y-59241923D01*
X96026126Y-59327336D01*
X95807485Y-59417676D01*
X95516081Y-59708572D01*
X95358180Y-60088841D01*
X95357821Y-60500589D01*
X90481606Y-60500589D01*
X90595220Y-60226977D01*
X90595579Y-59815229D01*
X90519380Y-59630811D01*
X91055061Y-59630811D01*
X91212298Y-60011355D01*
X91503194Y-60302759D01*
X91883463Y-60460660D01*
X92295211Y-60461019D01*
X92675755Y-60303782D01*
X92967159Y-60012886D01*
X93125060Y-59632617D01*
X93125419Y-59220869D01*
X92968182Y-58840325D01*
X92677286Y-58548921D01*
X92297017Y-58391020D01*
X91885269Y-58390661D01*
X91504725Y-58547898D01*
X91213321Y-58838794D01*
X91055420Y-59219063D01*
X91055061Y-59630811D01*
X90519380Y-59630811D01*
X90438342Y-59434685D01*
X90147446Y-59143281D01*
X89767177Y-58985380D01*
X89355429Y-58985021D01*
X88974885Y-59142258D01*
X88683481Y-59433154D01*
X88525580Y-59813423D01*
X88525221Y-60225171D01*
X88340000Y-60225171D01*
X88340000Y-58319728D01*
X98817120Y-58319728D01*
X98974357Y-58700272D01*
X99265253Y-58991676D01*
X99645522Y-59149577D01*
X99735040Y-59149655D01*
X99789879Y-59282375D01*
X100080775Y-59573779D01*
X100461044Y-59731680D01*
X100872792Y-59732039D01*
X101253336Y-59574802D01*
X101544740Y-59283906D01*
X101702641Y-58903637D01*
X101703000Y-58491889D01*
X101545763Y-58111345D01*
X101254867Y-57819941D01*
X100874598Y-57662040D01*
X100785080Y-57661962D01*
X100730241Y-57529242D01*
X100439345Y-57237838D01*
X100059076Y-57079937D01*
X99647328Y-57079578D01*
X99266784Y-57236815D01*
X98975380Y-57527711D01*
X98817479Y-57907980D01*
X98817120Y-58319728D01*
X88340000Y-58319728D01*
X88340000Y-57375291D01*
X90709621Y-57375291D01*
X90866858Y-57755835D01*
X91157754Y-58047239D01*
X91538023Y-58205140D01*
X91949771Y-58205499D01*
X92330315Y-58048262D01*
X92621719Y-57757366D01*
X92779620Y-57377097D01*
X92779979Y-56965349D01*
X92622742Y-56584805D01*
X92331846Y-56293401D01*
X91951577Y-56135500D01*
X91539829Y-56135141D01*
X91159285Y-56292378D01*
X90867881Y-56583274D01*
X90709980Y-56963543D01*
X90709621Y-57375291D01*
X88340000Y-57375291D01*
X88340000Y-55533483D01*
X94627936Y-55533483D01*
X94785173Y-55914027D01*
X95076069Y-56205431D01*
X95456338Y-56363332D01*
X95868086Y-56363691D01*
X96248630Y-56206454D01*
X96540034Y-55915558D01*
X96697935Y-55535289D01*
X96698294Y-55123541D01*
X96541057Y-54742997D01*
X96250161Y-54451593D01*
X95869892Y-54293692D01*
X95458144Y-54293333D01*
X95077600Y-54450570D01*
X94786196Y-54741466D01*
X94628295Y-55121735D01*
X94627936Y-55533483D01*
X88340000Y-55533483D01*
X88340000Y-53645893D01*
X90093552Y-53645893D01*
X90258386Y-54044820D01*
X90563335Y-54350302D01*
X90961973Y-54515831D01*
X91393613Y-54516208D01*
X91792540Y-54351374D01*
X92098022Y-54046425D01*
X92263551Y-53647787D01*
X92263928Y-53216147D01*
X92099094Y-52817220D01*
X92064905Y-52782971D01*
X95362901Y-52782971D01*
X95520138Y-53163515D01*
X95811034Y-53454919D01*
X96191303Y-53612820D01*
X96603051Y-53613179D01*
X96849094Y-53511517D01*
X96866342Y-53528795D01*
X96866009Y-53910335D01*
X97023246Y-54290879D01*
X97314142Y-54582283D01*
X97694411Y-54740184D01*
X98106159Y-54740543D01*
X98486703Y-54583306D01*
X98778107Y-54292410D01*
X98936008Y-53912141D01*
X98936186Y-53707531D01*
X101834821Y-53707531D01*
X101992058Y-54088075D01*
X102282954Y-54379479D01*
X102663223Y-54537380D01*
X103074971Y-54537739D01*
X103100759Y-54527084D01*
X103100484Y-54841931D01*
X103257721Y-55222475D01*
X103548617Y-55513879D01*
X103928886Y-55671780D01*
X104340634Y-55672139D01*
X104565065Y-55579406D01*
X104647694Y-55662179D01*
X105027963Y-55820080D01*
X105439711Y-55820439D01*
X105759690Y-55688227D01*
X105908738Y-56048953D01*
X106199634Y-56340357D01*
X106579903Y-56498258D01*
X106991651Y-56498617D01*
X107107941Y-56450567D01*
X109335172Y-56450567D01*
X109982000Y-57097395D01*
X110628828Y-56450567D01*
X110585492Y-56230299D01*
X110138999Y-56079028D01*
X109668604Y-56110137D01*
X109378508Y-56230299D01*
X109335172Y-56450567D01*
X107107941Y-56450567D01*
X107372195Y-56341380D01*
X107663599Y-56050484D01*
X107821500Y-55670215D01*
X107821859Y-55258467D01*
X107664622Y-54877923D01*
X107373726Y-54586519D01*
X106993457Y-54428618D01*
X106581709Y-54428259D01*
X106261730Y-54560471D01*
X106112682Y-54199745D01*
X105821786Y-53908341D01*
X105441517Y-53750440D01*
X105155540Y-53750191D01*
X105232819Y-53673046D01*
X105390720Y-53292777D01*
X105391079Y-52881029D01*
X105233842Y-52500485D01*
X104942946Y-52209081D01*
X104562677Y-52051180D01*
X104150929Y-52050821D01*
X103770385Y-52208058D01*
X103478981Y-52498954D01*
X103430887Y-52614779D01*
X103076777Y-52467740D01*
X102665029Y-52467381D01*
X102284485Y-52624618D01*
X101993081Y-52915514D01*
X101835180Y-53295783D01*
X101834821Y-53707531D01*
X98936186Y-53707531D01*
X98936367Y-53500393D01*
X98779130Y-53119849D01*
X98599760Y-52940166D01*
X98600093Y-52558626D01*
X98442856Y-52178082D01*
X98151960Y-51886678D01*
X97771691Y-51728777D01*
X97359943Y-51728418D01*
X97113900Y-51830080D01*
X96985126Y-51701081D01*
X96604857Y-51543180D01*
X96193109Y-51542821D01*
X95812565Y-51700058D01*
X95521161Y-51990954D01*
X95363260Y-52371223D01*
X95362901Y-52782971D01*
X92064905Y-52782971D01*
X91794145Y-52511738D01*
X91395507Y-52346209D01*
X90963867Y-52345832D01*
X90564940Y-52510666D01*
X90259458Y-52815615D01*
X90093929Y-53214253D01*
X90093552Y-53645893D01*
X88340000Y-53645893D01*
X88340000Y-50242971D01*
X93706821Y-50242971D01*
X93864058Y-50623515D01*
X94154954Y-50914919D01*
X94535223Y-51072820D01*
X94946971Y-51073179D01*
X95327515Y-50915942D01*
X95618919Y-50625046D01*
X95776820Y-50244777D01*
X95777179Y-49833029D01*
X95619942Y-49452485D01*
X95329046Y-49161081D01*
X95162014Y-49091724D01*
X95454971Y-49091979D01*
X95835515Y-48934742D01*
X96126919Y-48643846D01*
X96264475Y-48312571D01*
X102520621Y-48312571D01*
X102677858Y-48693115D01*
X102968754Y-48984519D01*
X103349023Y-49142420D01*
X103760771Y-49142779D01*
X104141315Y-48985542D01*
X104432719Y-48694646D01*
X104509131Y-48510626D01*
X104532058Y-48566115D01*
X104822954Y-48857519D01*
X105203223Y-49015420D01*
X105614971Y-49015779D01*
X105995515Y-48858542D01*
X106286919Y-48567646D01*
X106444820Y-48187377D01*
X106445179Y-47775629D01*
X106287942Y-47395085D01*
X105997046Y-47103681D01*
X105616777Y-46945780D01*
X105205029Y-46945421D01*
X104824485Y-47102658D01*
X104533081Y-47393554D01*
X104456669Y-47577574D01*
X104433742Y-47522085D01*
X104142846Y-47230681D01*
X103762577Y-47072780D01*
X103350829Y-47072421D01*
X102970285Y-47229658D01*
X102678881Y-47520554D01*
X102520980Y-47900823D01*
X102520621Y-48312571D01*
X96264475Y-48312571D01*
X96284820Y-48263577D01*
X96285179Y-47851829D01*
X96127942Y-47471285D01*
X95837046Y-47179881D01*
X95456777Y-47021980D01*
X95045029Y-47021621D01*
X94664485Y-47178858D01*
X94373081Y-47469754D01*
X94215180Y-47850023D01*
X94214821Y-48261771D01*
X94372058Y-48642315D01*
X94662954Y-48933719D01*
X94829986Y-49003076D01*
X94537029Y-49002821D01*
X94156485Y-49160058D01*
X93865081Y-49450954D01*
X93707180Y-49831223D01*
X93706821Y-50242971D01*
X88340000Y-50242971D01*
X88340000Y-46845893D01*
X90093552Y-46845893D01*
X90258386Y-47244820D01*
X90563335Y-47550302D01*
X90961973Y-47715831D01*
X91393613Y-47716208D01*
X91792540Y-47551374D01*
X92098022Y-47246425D01*
X92263551Y-46847787D01*
X92263928Y-46416147D01*
X92099094Y-46017220D01*
X91880228Y-45797971D01*
X92690821Y-45797971D01*
X92848058Y-46178515D01*
X93138954Y-46469919D01*
X93519223Y-46627820D01*
X93930971Y-46628179D01*
X94311515Y-46470942D01*
X94602919Y-46180046D01*
X94760820Y-45799777D01*
X94761175Y-45391571D01*
X96043621Y-45391571D01*
X96200858Y-45772115D01*
X96491754Y-46063519D01*
X96872023Y-46221420D01*
X97283771Y-46221779D01*
X97664315Y-46064542D01*
X97955719Y-45773646D01*
X97998353Y-45670971D01*
X104679621Y-45670971D01*
X104836858Y-46051515D01*
X105127754Y-46342919D01*
X105508023Y-46500820D01*
X105919771Y-46501179D01*
X106300315Y-46343942D01*
X106591719Y-46053046D01*
X106749620Y-45672777D01*
X106749979Y-45261029D01*
X106592742Y-44880485D01*
X106301846Y-44589081D01*
X105921577Y-44431180D01*
X105509829Y-44430821D01*
X105129285Y-44588058D01*
X104837881Y-44878954D01*
X104679980Y-45259223D01*
X104679621Y-45670971D01*
X97998353Y-45670971D01*
X98113620Y-45393377D01*
X98113979Y-44981629D01*
X97956742Y-44601085D01*
X97665846Y-44309681D01*
X97285577Y-44151780D01*
X96873829Y-44151421D01*
X96493285Y-44308658D01*
X96201881Y-44599554D01*
X96043980Y-44979823D01*
X96043621Y-45391571D01*
X94761175Y-45391571D01*
X94761179Y-45388029D01*
X94603942Y-45007485D01*
X94313046Y-44716081D01*
X93932777Y-44558180D01*
X93521029Y-44557821D01*
X93140485Y-44715058D01*
X92849081Y-45005954D01*
X92691180Y-45386223D01*
X92690821Y-45797971D01*
X91880228Y-45797971D01*
X91794145Y-45711738D01*
X91395507Y-45546209D01*
X90963867Y-45545832D01*
X90564940Y-45710666D01*
X90259458Y-46015615D01*
X90093929Y-46414253D01*
X90093552Y-46845893D01*
X88340000Y-46845893D01*
X88340000Y-44434917D01*
X88449897Y-44545006D01*
X88986314Y-44767746D01*
X89567138Y-44768253D01*
X90103943Y-44546449D01*
X90515006Y-44136103D01*
X90737746Y-43599686D01*
X90738253Y-43018862D01*
X90575707Y-42625470D01*
X90687782Y-42625470D01*
X90879201Y-43088740D01*
X91233335Y-43443493D01*
X91696271Y-43635721D01*
X92197530Y-43636158D01*
X92660800Y-43444739D01*
X92720872Y-43384772D01*
X92757954Y-43421919D01*
X93138223Y-43579820D01*
X93549971Y-43580179D01*
X93930515Y-43422942D01*
X94146662Y-43207171D01*
X100818821Y-43207171D01*
X100976058Y-43587715D01*
X101266954Y-43879119D01*
X101647223Y-44037020D01*
X102058971Y-44037379D01*
X102439515Y-43880142D01*
X102730919Y-43589246D01*
X102888820Y-43208977D01*
X102889179Y-42797229D01*
X102731942Y-42416685D01*
X102441046Y-42125281D01*
X102060777Y-41967380D01*
X101649029Y-41967021D01*
X101268485Y-42124258D01*
X100977081Y-42415154D01*
X100819180Y-42795423D01*
X100818821Y-43207171D01*
X94146662Y-43207171D01*
X94221919Y-43132046D01*
X94379820Y-42751777D01*
X94380179Y-42340029D01*
X94278046Y-42092847D01*
X94405220Y-41786577D01*
X94405487Y-41479971D01*
X95484821Y-41479971D01*
X95642058Y-41860515D01*
X95932954Y-42151919D01*
X96313223Y-42309820D01*
X96724971Y-42310179D01*
X97105515Y-42152942D01*
X97396919Y-41862046D01*
X97554820Y-41481777D01*
X97555179Y-41070029D01*
X97397942Y-40689485D01*
X97107046Y-40398081D01*
X96898707Y-40311571D01*
X101403021Y-40311571D01*
X101560258Y-40692115D01*
X101851154Y-40983519D01*
X102231423Y-41141420D01*
X102643171Y-41141779D01*
X102688844Y-41122907D01*
X107001000Y-41122907D01*
X107001000Y-41681093D01*
X107095009Y-42153707D01*
X107362723Y-42554370D01*
X107763386Y-42822084D01*
X108236000Y-42916093D01*
X108708614Y-42822084D01*
X109085116Y-42570514D01*
X109178191Y-42709809D01*
X109388235Y-42850157D01*
X109636000Y-42899440D01*
X110836000Y-42899440D01*
X111083765Y-42850157D01*
X111293809Y-42709809D01*
X111434157Y-42499765D01*
X111483440Y-42252000D01*
X111483440Y-40552000D01*
X111434157Y-40304235D01*
X111293809Y-40094191D01*
X111083765Y-39953843D01*
X110836000Y-39904560D01*
X109636000Y-39904560D01*
X109388235Y-39953843D01*
X109178191Y-40094191D01*
X109085116Y-40233486D01*
X108708614Y-39981916D01*
X108236000Y-39887907D01*
X107763386Y-39981916D01*
X107362723Y-40249630D01*
X107095009Y-40650293D01*
X107001000Y-41122907D01*
X102688844Y-41122907D01*
X103023715Y-40984542D01*
X103315119Y-40693646D01*
X103473020Y-40313377D01*
X103473379Y-39901629D01*
X103316142Y-39521085D01*
X103025246Y-39229681D01*
X102644977Y-39071780D01*
X102233229Y-39071421D01*
X101852685Y-39228658D01*
X101561281Y-39519554D01*
X101403380Y-39899823D01*
X101403021Y-40311571D01*
X96898707Y-40311571D01*
X96726777Y-40240180D01*
X96315029Y-40239821D01*
X95934485Y-40397058D01*
X95643081Y-40687954D01*
X95485180Y-41068223D01*
X95484821Y-41479971D01*
X94405487Y-41479971D01*
X94405579Y-41374829D01*
X94257067Y-41015401D01*
X94379820Y-40719777D01*
X94380179Y-40308029D01*
X94222942Y-39927485D01*
X93932046Y-39636081D01*
X93551777Y-39478180D01*
X93140029Y-39477821D01*
X92759485Y-39635058D01*
X92468081Y-39925954D01*
X92310180Y-40306223D01*
X92309821Y-40717971D01*
X92458333Y-41077399D01*
X92406574Y-41202049D01*
X92199729Y-41116159D01*
X91698470Y-41115722D01*
X91235200Y-41307141D01*
X90880447Y-41661275D01*
X90688219Y-42124211D01*
X90687782Y-42625470D01*
X90575707Y-42625470D01*
X90516449Y-42482057D01*
X90106103Y-42070994D01*
X89569686Y-41848254D01*
X88988862Y-41847747D01*
X88452057Y-42069551D01*
X88340000Y-42181413D01*
X88340000Y-39016171D01*
X104146221Y-39016171D01*
X104303458Y-39396715D01*
X104594354Y-39688119D01*
X104974623Y-39846020D01*
X105386371Y-39846379D01*
X105766915Y-39689142D01*
X106058319Y-39398246D01*
X106216220Y-39017977D01*
X106216579Y-38606229D01*
X106059342Y-38225685D01*
X105768446Y-37934281D01*
X105388177Y-37776380D01*
X104976429Y-37776021D01*
X104595885Y-37933258D01*
X104304481Y-38224154D01*
X104146580Y-38604423D01*
X104146221Y-39016171D01*
X88340000Y-39016171D01*
X88340000Y-37574917D01*
X88449897Y-37685006D01*
X88986314Y-37907746D01*
X89567138Y-37908253D01*
X90103943Y-37686449D01*
X90165028Y-37625470D01*
X90687782Y-37625470D01*
X90879201Y-38088740D01*
X91233335Y-38443493D01*
X91696271Y-38635721D01*
X92197530Y-38636158D01*
X92660800Y-38444739D01*
X93015553Y-38090605D01*
X93207781Y-37627669D01*
X93208218Y-37126410D01*
X93170437Y-37034971D01*
X100588821Y-37034971D01*
X100746058Y-37415515D01*
X101036954Y-37706919D01*
X101417223Y-37864820D01*
X101828971Y-37865179D01*
X102209515Y-37707942D01*
X102500919Y-37417046D01*
X102658820Y-37036777D01*
X102659179Y-36625029D01*
X102501942Y-36244485D01*
X102211046Y-35953081D01*
X101830777Y-35795180D01*
X101419029Y-35794821D01*
X101038485Y-35952058D01*
X100747081Y-36242954D01*
X100589180Y-36623223D01*
X100588821Y-37034971D01*
X93170437Y-37034971D01*
X93016799Y-36663140D01*
X92662665Y-36308387D01*
X92199729Y-36116159D01*
X91698470Y-36115722D01*
X91235200Y-36307141D01*
X90880447Y-36661275D01*
X90688219Y-37124211D01*
X90687782Y-37625470D01*
X90165028Y-37625470D01*
X90515006Y-37276103D01*
X90737746Y-36739686D01*
X90738253Y-36158862D01*
X90516449Y-35622057D01*
X90106103Y-35210994D01*
X89597973Y-35000000D01*
X92741956Y-35000000D01*
X92741621Y-35383971D01*
M02*
