M48
INCH,TZ
T1C0.016
T2C0.026
T3C0.028
T4C0.033
T5C0.040
T6C0.045
%
G90
G05
T1
X35060Y-29280
X35260Y-23630
X35720Y-26660
X35912Y-24985
X36030Y-27560
X36120Y-22508
X36140Y-25320
X36256Y-23396
X36320Y-27220
X36440Y-26567
X36482Y-25514
X36747Y-26877
X36750Y-15950
X36750Y-16750
X36760Y-16370
X36900Y-17950
X36920Y-13850
X37183Y-24348
X37300Y-19700
X37430Y-20720
X37500Y-18920
X37540Y-24970
X37663Y-21783
X37680Y-13840
X37808Y-31718
X37820Y-29100
X37935Y-25159
X37950Y-23738
X37952Y-20700
X38000Y-16250
X38125Y-25504
X38213Y-23405
X38220Y-17790
X38320Y-30050
X38411Y-20773
X38544Y-21144
X38545Y-32925
X38608Y-32284
X38700Y-23738
X38700Y-26100
X38850Y-25290
X38970Y-28070
X39212Y-24017
X39312Y-22880
X39500Y-19250
X39500Y-20150
X39575Y-24169
X39633Y-23109
X39800Y-26600
X39820Y-26050
X39943Y-24029
X40009Y-14500
X40059Y-19591
X40100Y-16930
X40252Y-32950
X40300Y-28050
X40330Y-15790
X40380Y-32250
X40423Y-23505
X40485Y-24727
X40500Y-21064
X40532Y-24082
X40700Y-27950
X40758Y-24441
X40770Y-18940
X40836Y-27267
X40890Y-25460
X40998Y-21511
X41085Y-20900
X41305Y-23986
X41350Y-25050
X41410Y-15280
X41431Y-21569
X41500Y-18890
X41500Y-20150
X41620Y-17900
X41650Y-24200
X41660Y-17250
X41801Y-32348
X41950Y-26100
X42042Y-21836
X42310Y-22190
X42450Y-25700
X42450Y-28950
X42750Y-31200
X43050Y-25500
T2
X43300Y-22550
X43300Y-23062
X43300Y-24088
X43300Y-24600
X43300Y-28388
X43300Y-28900
X43300Y-29938
X43300Y-30450
X44000Y-22553
X44000Y-23065
X44000Y-23576
X44000Y-24088
X44000Y-24600
X44000Y-28403
X44000Y-28915
X44000Y-29426
X44000Y-29938
X44000Y-30450
T3
X42613Y-16300
X43400Y-16300
T4
X36200Y-14715
X36200Y-16683
T5
X36000Y-29750
X36000Y-30750
X36000Y-31750
X36000Y-32750
X42750Y-18000
X42750Y-19000
X42750Y-20000
X43750Y-18000
X43750Y-19000
X43750Y-20000
X43750Y-31750
X43750Y-32750
T6
X35149Y-14350
X35149Y-17050
T0
M30
