G04 #@! TF.GenerationSoftware,KiCad,Pcbnew,(2017-01-24 revision 0b6147e)-makepkg*
G04 #@! TF.CreationDate,2017-01-30T11:51:45-08:00*
G04 #@! TF.ProjectId,derbyFX,646572627946582E6B696361645F7063,rev?*
G04 #@! TF.FileFunction,Legend,Top*
G04 #@! TF.FilePolarity,Positive*
%FSLAX46Y46*%
G04 Gerber Fmt 4.6, Leading zero omitted, Abs format (unit mm)*
G04 Created by KiCad (PCBNEW (2017-01-24 revision 0b6147e)-makepkg) date 01/30/17 11:51:45*
%MOMM*%
%LPD*%
G01*
G04 APERTURE LIST*
%ADD10C,0.100000*%
%ADD11C,0.200000*%
%ADD12C,0.300000*%
%ADD13C,0.050000*%
%ADD14C,0.150000*%
%ADD15C,0.127000*%
%ADD16C,0.007620*%
%ADD17C,0.066040*%
%ADD18R,1.250000X0.650000*%
%ADD19R,0.650000X1.250000*%
%ADD20R,2.432000X2.432000*%
%ADD21O,2.432000X2.432000*%
%ADD22C,2.127200*%
%ADD23O,2.127200X2.127200*%
%ADD24R,1.400000X1.650000*%
%ADD25R,1.303020X0.901700*%
%ADD26R,1.150000X1.200000*%
%ADD27R,1.650000X1.400000*%
%ADD28R,2.000000X1.400000*%
%ADD29R,1.200000X1.150000*%
%ADD30R,1.100000X1.700000*%
%ADD31R,0.800000X1.100000*%
%ADD32R,1.197560X1.197560*%
%ADD33R,1.600000X2.100000*%
%ADD34O,1.600000X2.100000*%
%ADD35R,0.900000X1.300000*%
%ADD36R,1.300000X0.900000*%
%ADD37R,2.150000X1.100000*%
%ADD38R,1.900000X1.700000*%
%ADD39R,1.900000X1.200000*%
%ADD40R,1.800000X1.200000*%
%ADD41R,1.950000X1.400000*%
%ADD42R,1.400000X1.800000*%
%ADD43R,1.460000X1.050000*%
%ADD44R,4.057600X2.432000*%
%ADD45R,1.416000X2.432000*%
%ADD46R,1.850000X0.850000*%
%ADD47R,1.600000X1.600000*%
%ADD48R,2.000000X1.900000*%
%ADD49R,1.602740X0.652780*%
%ADD50R,2.299920X2.299920*%
%ADD51C,1.650006*%
%ADD52C,1.504000*%
%ADD53O,2.432000X2.127200*%
%ADD54C,1.500000*%
%ADD55R,1.800000X1.600000*%
%ADD56C,1.300000*%
G04 APERTURE END LIST*
D10*
X108783428Y-62864952D02*
X108783428Y-62103047D01*
X108783428Y-59054952D02*
X108783428Y-58293047D01*
X108783428Y-57657952D02*
X108783428Y-56896047D01*
X109164380Y-57277000D02*
X108402476Y-57277000D01*
X108783428Y-61594952D02*
X108783428Y-60833047D01*
X109164380Y-61214000D02*
X108402476Y-61214000D01*
X108783428Y-73786952D02*
X108783428Y-73025047D01*
X108783428Y-77723952D02*
X108783428Y-76962047D01*
X108783428Y-72516952D02*
X108783428Y-71755047D01*
X109164380Y-72136000D02*
X108402476Y-72136000D01*
X108783428Y-76453952D02*
X108783428Y-75692047D01*
X109164380Y-76073000D02*
X108402476Y-76073000D01*
X112078333Y-71272333D02*
X112045000Y-71239000D01*
X112011666Y-71172333D01*
X112011666Y-71005666D01*
X112045000Y-70939000D01*
X112078333Y-70905666D01*
X112145000Y-70872333D01*
X112211666Y-70872333D01*
X112311666Y-70905666D01*
X112711666Y-71305666D01*
X112711666Y-70872333D01*
X112011666Y-70439000D02*
X112011666Y-70372333D01*
X112045000Y-70305666D01*
X112078333Y-70272333D01*
X112145000Y-70239000D01*
X112278333Y-70205666D01*
X112445000Y-70205666D01*
X112578333Y-70239000D01*
X112645000Y-70272333D01*
X112678333Y-70305666D01*
X112711666Y-70372333D01*
X112711666Y-70439000D01*
X112678333Y-70505666D01*
X112645000Y-70539000D01*
X112578333Y-70572333D01*
X112445000Y-70605666D01*
X112278333Y-70605666D01*
X112145000Y-70572333D01*
X112078333Y-70539000D01*
X112045000Y-70505666D01*
X112011666Y-70439000D01*
D11*
X111100464Y-68875285D02*
X110700464Y-68875285D01*
X110621892Y-69503857D02*
X110771892Y-68303857D01*
X111343321Y-68303857D01*
X111686178Y-68303857D02*
X112336178Y-69503857D01*
X112486178Y-68303857D02*
X111536178Y-69503857D01*
D12*
X103577666Y-68169523D02*
X103577666Y-66269523D01*
X104030047Y-66269523D01*
X104301476Y-66360000D01*
X104482428Y-66540952D01*
X104572904Y-66721904D01*
X104663380Y-67083809D01*
X104663380Y-67355238D01*
X104572904Y-67717142D01*
X104482428Y-67898095D01*
X104301476Y-68079047D01*
X104030047Y-68169523D01*
X103577666Y-68169523D01*
X106201476Y-68079047D02*
X106020523Y-68169523D01*
X105658619Y-68169523D01*
X105477666Y-68079047D01*
X105387190Y-67898095D01*
X105387190Y-67174285D01*
X105477666Y-66993333D01*
X105658619Y-66902857D01*
X106020523Y-66902857D01*
X106201476Y-66993333D01*
X106291952Y-67174285D01*
X106291952Y-67355238D01*
X105387190Y-67536190D01*
X107106238Y-68169523D02*
X107106238Y-66902857D01*
X107106238Y-67264761D02*
X107196714Y-67083809D01*
X107287190Y-66993333D01*
X107468142Y-66902857D01*
X107649095Y-66902857D01*
X108282428Y-68169523D02*
X108282428Y-66269523D01*
X108282428Y-66993333D02*
X108463380Y-66902857D01*
X108825285Y-66902857D01*
X109006238Y-66993333D01*
X109096714Y-67083809D01*
X109187190Y-67264761D01*
X109187190Y-67807619D01*
X109096714Y-67988571D01*
X109006238Y-68079047D01*
X108825285Y-68169523D01*
X108463380Y-68169523D01*
X108282428Y-68079047D01*
X109820523Y-66902857D02*
X110272904Y-68169523D01*
X110725285Y-66902857D02*
X110272904Y-68169523D01*
X110091952Y-68621904D01*
X110001476Y-68712380D01*
X109820523Y-68802857D01*
D10*
X108762000Y-83832666D02*
X108762000Y-83299333D01*
X109028666Y-83566000D02*
X108495333Y-83566000D01*
D11*
X108077000Y-82550000D02*
X108585000Y-82550000D01*
X108077000Y-81153000D02*
X108077000Y-82550000D01*
X108585000Y-81153000D02*
X108077000Y-81153000D01*
X108585000Y-81153000D02*
X109220000Y-80518000D01*
X108585000Y-82423000D02*
X108585000Y-81153000D01*
X109220000Y-83058000D02*
X108585000Y-82423000D01*
X109220000Y-80645000D02*
X109220000Y-83058000D01*
D10*
X95377000Y-58784333D02*
X95377000Y-59117666D01*
X95143666Y-58417666D02*
X95377000Y-58784333D01*
X95610333Y-58417666D01*
X97175666Y-56004666D02*
X97642333Y-56704666D01*
X97642333Y-56004666D02*
X97175666Y-56704666D01*
D11*
X96139000Y-59055000D02*
X96139000Y-58801000D01*
X96266000Y-59309000D02*
X95885000Y-58928000D01*
X96266000Y-58547000D02*
X96266000Y-59309000D01*
X95885000Y-58928000D02*
X96266000Y-58547000D01*
X97409000Y-58928000D02*
X95885000Y-58928000D01*
X97409000Y-58547000D02*
X97409000Y-57404000D01*
X97409000Y-57404000D02*
X97028000Y-57404000D01*
X97028000Y-57404000D02*
X97409000Y-57023000D01*
X97409000Y-57023000D02*
X97790000Y-57404000D01*
X97790000Y-57404000D02*
X97409000Y-57404000D01*
X97409000Y-57404000D02*
X97409000Y-57277000D01*
X97282000Y-57277000D02*
X97409000Y-57150000D01*
X97409000Y-57150000D02*
X97536000Y-57277000D01*
X97409000Y-57150000D02*
X97536000Y-57277000D01*
X97282000Y-57277000D02*
X97409000Y-57150000D01*
X97409000Y-57404000D02*
X97409000Y-57277000D01*
X97790000Y-57404000D02*
X97409000Y-57404000D01*
X97409000Y-57023000D02*
X97790000Y-57404000D01*
X97028000Y-57404000D02*
X97409000Y-57023000D01*
X97409000Y-57404000D02*
X97028000Y-57404000D01*
X97409000Y-58547000D02*
X97409000Y-57404000D01*
D10*
X107005428Y-48513952D02*
X107005428Y-47752047D01*
X107386380Y-48133000D02*
X106624476Y-48133000D01*
X107005428Y-46100952D02*
X107005428Y-45339047D01*
X110418666Y-44098333D02*
X110518666Y-44131666D01*
X110685333Y-44131666D01*
X110752000Y-44098333D01*
X110785333Y-44065000D01*
X110818666Y-43998333D01*
X110818666Y-43931666D01*
X110785333Y-43865000D01*
X110752000Y-43831666D01*
X110685333Y-43798333D01*
X110552000Y-43765000D01*
X110485333Y-43731666D01*
X110452000Y-43698333D01*
X110418666Y-43631666D01*
X110418666Y-43565000D01*
X110452000Y-43498333D01*
X110485333Y-43465000D01*
X110552000Y-43431666D01*
X110718666Y-43431666D01*
X110818666Y-43465000D01*
X111018666Y-43431666D02*
X111252000Y-44131666D01*
X111485333Y-43431666D01*
X111685333Y-43498333D02*
X111718666Y-43465000D01*
X111785333Y-43431666D01*
X111952000Y-43431666D01*
X112018666Y-43465000D01*
X112052000Y-43498333D01*
X112085333Y-43565000D01*
X112085333Y-43631666D01*
X112052000Y-43731666D01*
X111652000Y-44131666D01*
X112085333Y-44131666D01*
X107751666Y-44098333D02*
X107851666Y-44131666D01*
X108018333Y-44131666D01*
X108085000Y-44098333D01*
X108118333Y-44065000D01*
X108151666Y-43998333D01*
X108151666Y-43931666D01*
X108118333Y-43865000D01*
X108085000Y-43831666D01*
X108018333Y-43798333D01*
X107885000Y-43765000D01*
X107818333Y-43731666D01*
X107785000Y-43698333D01*
X107751666Y-43631666D01*
X107751666Y-43565000D01*
X107785000Y-43498333D01*
X107818333Y-43465000D01*
X107885000Y-43431666D01*
X108051666Y-43431666D01*
X108151666Y-43465000D01*
X108351666Y-43431666D02*
X108585000Y-44131666D01*
X108818333Y-43431666D01*
X109418333Y-44131666D02*
X109018333Y-44131666D01*
X109218333Y-44131666D02*
X109218333Y-43431666D01*
X109151666Y-43531666D01*
X109085000Y-43598333D01*
X109018333Y-43631666D01*
X112711666Y-56140333D02*
X112711666Y-56540333D01*
X112711666Y-56340333D02*
X112011666Y-56340333D01*
X112111666Y-56407000D01*
X112178333Y-56473666D01*
X112211666Y-56540333D01*
X112011666Y-55507000D02*
X112011666Y-55840333D01*
X112345000Y-55873666D01*
X112311666Y-55840333D01*
X112278333Y-55773666D01*
X112278333Y-55607000D01*
X112311666Y-55540333D01*
X112345000Y-55507000D01*
X112411666Y-55473666D01*
X112578333Y-55473666D01*
X112645000Y-55507000D01*
X112678333Y-55540333D01*
X112711666Y-55607000D01*
X112711666Y-55773666D01*
X112678333Y-55840333D01*
X112645000Y-55873666D01*
X112711666Y-63887333D02*
X112711666Y-64287333D01*
X112711666Y-64087333D02*
X112011666Y-64087333D01*
X112111666Y-64154000D01*
X112178333Y-64220666D01*
X112211666Y-64287333D01*
X112711666Y-63554000D02*
X112711666Y-63420666D01*
X112678333Y-63354000D01*
X112645000Y-63320666D01*
X112545000Y-63254000D01*
X112411666Y-63220666D01*
X112145000Y-63220666D01*
X112078333Y-63254000D01*
X112045000Y-63287333D01*
X112011666Y-63354000D01*
X112011666Y-63487333D01*
X112045000Y-63554000D01*
X112078333Y-63587333D01*
X112145000Y-63620666D01*
X112311666Y-63620666D01*
X112378333Y-63587333D01*
X112411666Y-63554000D01*
X112445000Y-63487333D01*
X112445000Y-63354000D01*
X112411666Y-63287333D01*
X112378333Y-63254000D01*
X112311666Y-63220666D01*
X112078333Y-79019333D02*
X112045000Y-78986000D01*
X112011666Y-78919333D01*
X112011666Y-78752666D01*
X112045000Y-78686000D01*
X112078333Y-78652666D01*
X112145000Y-78619333D01*
X112211666Y-78619333D01*
X112311666Y-78652666D01*
X112711666Y-79052666D01*
X112711666Y-78619333D01*
X112245000Y-78019333D02*
X112711666Y-78019333D01*
X111978333Y-78186000D02*
X112478333Y-78352666D01*
X112478333Y-77919333D01*
X93155333Y-76406733D02*
X93855333Y-76406733D01*
X93855333Y-76673400D01*
X93822000Y-76740066D01*
X93788666Y-76773400D01*
X93722000Y-76806733D01*
X93622000Y-76806733D01*
X93555333Y-76773400D01*
X93522000Y-76740066D01*
X93488666Y-76673400D01*
X93488666Y-76406733D01*
X93155333Y-77506733D02*
X93488666Y-77273400D01*
X93155333Y-77106733D02*
X93855333Y-77106733D01*
X93855333Y-77373400D01*
X93822000Y-77440066D01*
X93788666Y-77473400D01*
X93722000Y-77506733D01*
X93622000Y-77506733D01*
X93555333Y-77473400D01*
X93522000Y-77440066D01*
X93488666Y-77373400D01*
X93488666Y-77106733D01*
X93855333Y-77940066D02*
X93855333Y-78073400D01*
X93822000Y-78140066D01*
X93755333Y-78206733D01*
X93622000Y-78240066D01*
X93388666Y-78240066D01*
X93255333Y-78206733D01*
X93188666Y-78140066D01*
X93155333Y-78073400D01*
X93155333Y-77940066D01*
X93188666Y-77873400D01*
X93255333Y-77806733D01*
X93388666Y-77773400D01*
X93622000Y-77773400D01*
X93755333Y-77806733D01*
X93822000Y-77873400D01*
X93855333Y-77940066D01*
X93155333Y-78540066D02*
X93855333Y-78540066D01*
X93855333Y-78806733D01*
X93822000Y-78873400D01*
X93788666Y-78906733D01*
X93722000Y-78940066D01*
X93622000Y-78940066D01*
X93555333Y-78906733D01*
X93522000Y-78873400D01*
X93488666Y-78806733D01*
X93488666Y-78540066D01*
X93155333Y-79773400D02*
X93855333Y-79773400D01*
X93855333Y-80040066D01*
X93822000Y-80106733D01*
X93788666Y-80140066D01*
X93722000Y-80173400D01*
X93622000Y-80173400D01*
X93555333Y-80140066D01*
X93522000Y-80106733D01*
X93488666Y-80040066D01*
X93488666Y-79773400D01*
X93155333Y-80806733D02*
X93155333Y-80473400D01*
X93855333Y-80473400D01*
X93855333Y-81040066D02*
X93288666Y-81040066D01*
X93222000Y-81073400D01*
X93188666Y-81106733D01*
X93155333Y-81173400D01*
X93155333Y-81306733D01*
X93188666Y-81373400D01*
X93222000Y-81406733D01*
X93288666Y-81440066D01*
X93855333Y-81440066D01*
X93822000Y-82140066D02*
X93855333Y-82073400D01*
X93855333Y-81973400D01*
X93822000Y-81873400D01*
X93755333Y-81806733D01*
X93688666Y-81773400D01*
X93555333Y-81740066D01*
X93455333Y-81740066D01*
X93322000Y-81773400D01*
X93255333Y-81806733D01*
X93188666Y-81873400D01*
X93155333Y-81973400D01*
X93155333Y-82040066D01*
X93188666Y-82140066D01*
X93222000Y-82173400D01*
X93455333Y-82173400D01*
X93455333Y-82040066D01*
X105534666Y-76388666D02*
X106234666Y-76155333D01*
X105534666Y-75922000D01*
X105534666Y-75555333D02*
X105534666Y-75422000D01*
X105568000Y-75355333D01*
X105634666Y-75288666D01*
X105768000Y-75255333D01*
X106001333Y-75255333D01*
X106134666Y-75288666D01*
X106201333Y-75355333D01*
X106234666Y-75422000D01*
X106234666Y-75555333D01*
X106201333Y-75622000D01*
X106134666Y-75688666D01*
X106001333Y-75722000D01*
X105768000Y-75722000D01*
X105634666Y-75688666D01*
X105568000Y-75622000D01*
X105534666Y-75555333D01*
X106234666Y-74622000D02*
X106234666Y-74955333D01*
X105534666Y-74955333D01*
X105534666Y-74388666D02*
X106101333Y-74388666D01*
X106168000Y-74355333D01*
X106201333Y-74322000D01*
X106234666Y-74255333D01*
X106234666Y-74122000D01*
X106201333Y-74055333D01*
X106168000Y-74022000D01*
X106101333Y-73988666D01*
X105534666Y-73988666D01*
X106234666Y-73655333D02*
X105534666Y-73655333D01*
X106034666Y-73422000D01*
X105534666Y-73188666D01*
X106234666Y-73188666D01*
X105868000Y-72855333D02*
X105868000Y-72622000D01*
X106234666Y-72522000D02*
X106234666Y-72855333D01*
X105534666Y-72855333D01*
X105534666Y-72522000D01*
X93866533Y-56082533D02*
X94199866Y-55849200D01*
X93866533Y-55682533D02*
X94566533Y-55682533D01*
X94566533Y-55949200D01*
X94533200Y-56015866D01*
X94499866Y-56049200D01*
X94433200Y-56082533D01*
X94333200Y-56082533D01*
X94266533Y-56049200D01*
X94233200Y-56015866D01*
X94199866Y-55949200D01*
X94199866Y-55682533D01*
X94233200Y-56382533D02*
X94233200Y-56615866D01*
X93866533Y-56715866D02*
X93866533Y-56382533D01*
X94566533Y-56382533D01*
X94566533Y-56715866D01*
X93899866Y-56982533D02*
X93866533Y-57082533D01*
X93866533Y-57249200D01*
X93899866Y-57315866D01*
X93933200Y-57349200D01*
X93999866Y-57382533D01*
X94066533Y-57382533D01*
X94133200Y-57349200D01*
X94166533Y-57315866D01*
X94199866Y-57249200D01*
X94233200Y-57115866D01*
X94266533Y-57049200D01*
X94299866Y-57015866D01*
X94366533Y-56982533D01*
X94433200Y-56982533D01*
X94499866Y-57015866D01*
X94533200Y-57049200D01*
X94566533Y-57115866D01*
X94566533Y-57282533D01*
X94533200Y-57382533D01*
X94233200Y-57682533D02*
X94233200Y-57915866D01*
X93866533Y-58015866D02*
X93866533Y-57682533D01*
X94566533Y-57682533D01*
X94566533Y-58015866D01*
X94566533Y-58215866D02*
X94566533Y-58615866D01*
X93866533Y-58415866D02*
X94566533Y-58415866D01*
X93982333Y-46657000D02*
X93982333Y-46790333D01*
X93949000Y-46857000D01*
X93882333Y-46923666D01*
X93749000Y-46957000D01*
X93515666Y-46957000D01*
X93382333Y-46923666D01*
X93315666Y-46857000D01*
X93282333Y-46790333D01*
X93282333Y-46657000D01*
X93315666Y-46590333D01*
X93382333Y-46523666D01*
X93515666Y-46490333D01*
X93749000Y-46490333D01*
X93882333Y-46523666D01*
X93949000Y-46590333D01*
X93982333Y-46657000D01*
X93649000Y-47490333D02*
X93649000Y-47257000D01*
X93282333Y-47257000D02*
X93982333Y-47257000D01*
X93982333Y-47590333D01*
X93649000Y-48090333D02*
X93649000Y-47857000D01*
X93282333Y-47857000D02*
X93982333Y-47857000D01*
X93982333Y-48190333D01*
X93982333Y-51790333D02*
X93982333Y-51923666D01*
X93949000Y-51990333D01*
X93882333Y-52057000D01*
X93749000Y-52090333D01*
X93515666Y-52090333D01*
X93382333Y-52057000D01*
X93315666Y-51990333D01*
X93282333Y-51923666D01*
X93282333Y-51790333D01*
X93315666Y-51723666D01*
X93382333Y-51657000D01*
X93515666Y-51623666D01*
X93749000Y-51623666D01*
X93882333Y-51657000D01*
X93949000Y-51723666D01*
X93982333Y-51790333D01*
X93282333Y-52390333D02*
X93982333Y-52390333D01*
X93282333Y-52790333D01*
X93982333Y-52790333D01*
X102856466Y-43018666D02*
X102156466Y-43018666D01*
X102156466Y-42752000D01*
X102189800Y-42685333D01*
X102223133Y-42652000D01*
X102289800Y-42618666D01*
X102389800Y-42618666D01*
X102456466Y-42652000D01*
X102489800Y-42685333D01*
X102523133Y-42752000D01*
X102523133Y-43018666D01*
X102156466Y-42185333D02*
X102156466Y-42052000D01*
X102189800Y-41985333D01*
X102256466Y-41918666D01*
X102389800Y-41885333D01*
X102623133Y-41885333D01*
X102756466Y-41918666D01*
X102823133Y-41985333D01*
X102856466Y-42052000D01*
X102856466Y-42185333D01*
X102823133Y-42252000D01*
X102756466Y-42318666D01*
X102623133Y-42352000D01*
X102389800Y-42352000D01*
X102256466Y-42318666D01*
X102189800Y-42252000D01*
X102156466Y-42185333D01*
X102156466Y-41652000D02*
X102856466Y-41485333D01*
X102356466Y-41352000D01*
X102856466Y-41218666D01*
X102156466Y-41052000D01*
X102489800Y-40785333D02*
X102489800Y-40552000D01*
X102856466Y-40452000D02*
X102856466Y-40785333D01*
X102156466Y-40785333D01*
X102156466Y-40452000D01*
X102856466Y-39752000D02*
X102523133Y-39985333D01*
X102856466Y-40152000D02*
X102156466Y-40152000D01*
X102156466Y-39885333D01*
X102189800Y-39818666D01*
X102223133Y-39785333D01*
X102289800Y-39752000D01*
X102389800Y-39752000D01*
X102456466Y-39785333D01*
X102489800Y-39818666D01*
X102523133Y-39885333D01*
X102523133Y-40152000D01*
X96016000Y-35389000D02*
X95982666Y-35355666D01*
X95949333Y-35255666D01*
X95949333Y-35189000D01*
X95982666Y-35089000D01*
X96049333Y-35022333D01*
X96116000Y-34989000D01*
X96249333Y-34955666D01*
X96349333Y-34955666D01*
X96482666Y-34989000D01*
X96549333Y-35022333D01*
X96616000Y-35089000D01*
X96649333Y-35189000D01*
X96649333Y-35255666D01*
X96616000Y-35355666D01*
X96582666Y-35389000D01*
X95949333Y-35689000D02*
X96649333Y-35689000D01*
X96316000Y-35689000D02*
X96316000Y-36089000D01*
X95949333Y-36089000D02*
X96649333Y-36089000D01*
X96149333Y-36389000D02*
X96149333Y-36722333D01*
X95949333Y-36322333D02*
X96649333Y-36555666D01*
X95949333Y-36789000D01*
X95949333Y-37422333D02*
X96282666Y-37189000D01*
X95949333Y-37022333D02*
X96649333Y-37022333D01*
X96649333Y-37289000D01*
X96616000Y-37355666D01*
X96582666Y-37389000D01*
X96516000Y-37422333D01*
X96416000Y-37422333D01*
X96349333Y-37389000D01*
X96316000Y-37355666D01*
X96282666Y-37289000D01*
X96282666Y-37022333D01*
X96616000Y-38089000D02*
X96649333Y-38022333D01*
X96649333Y-37922333D01*
X96616000Y-37822333D01*
X96549333Y-37755666D01*
X96482666Y-37722333D01*
X96349333Y-37689000D01*
X96249333Y-37689000D01*
X96116000Y-37722333D01*
X96049333Y-37755666D01*
X95982666Y-37822333D01*
X95949333Y-37922333D01*
X95949333Y-37989000D01*
X95982666Y-38089000D01*
X96016000Y-38122333D01*
X96249333Y-38122333D01*
X96249333Y-37989000D01*
X96316000Y-38422333D02*
X96316000Y-38655666D01*
X95949333Y-38755666D02*
X95949333Y-38422333D01*
X96649333Y-38422333D01*
X96649333Y-38755666D01*
X95982666Y-39555666D02*
X95949333Y-39655666D01*
X95949333Y-39822333D01*
X95982666Y-39889000D01*
X96016000Y-39922333D01*
X96082666Y-39955666D01*
X96149333Y-39955666D01*
X96216000Y-39922333D01*
X96249333Y-39889000D01*
X96282666Y-39822333D01*
X96316000Y-39689000D01*
X96349333Y-39622333D01*
X96382666Y-39589000D01*
X96449333Y-39555666D01*
X96516000Y-39555666D01*
X96582666Y-39589000D01*
X96616000Y-39622333D01*
X96649333Y-39689000D01*
X96649333Y-39855666D01*
X96616000Y-39955666D01*
X96649333Y-40155666D02*
X96649333Y-40555666D01*
X95949333Y-40355666D02*
X96649333Y-40355666D01*
X96149333Y-40755666D02*
X96149333Y-41089000D01*
X95949333Y-40689000D02*
X96649333Y-40922333D01*
X95949333Y-41155666D01*
X96649333Y-41289000D02*
X96649333Y-41689000D01*
X95949333Y-41489000D02*
X96649333Y-41489000D01*
X96649333Y-41922333D02*
X96082666Y-41922333D01*
X96016000Y-41955666D01*
X95982666Y-41989000D01*
X95949333Y-42055666D01*
X95949333Y-42189000D01*
X95982666Y-42255666D01*
X96016000Y-42289000D01*
X96082666Y-42322333D01*
X96649333Y-42322333D01*
X95982666Y-42622333D02*
X95949333Y-42722333D01*
X95949333Y-42889000D01*
X95982666Y-42955666D01*
X96016000Y-42989000D01*
X96082666Y-43022333D01*
X96149333Y-43022333D01*
X96216000Y-42989000D01*
X96249333Y-42955666D01*
X96282666Y-42889000D01*
X96316000Y-42755666D01*
X96349333Y-42689000D01*
X96382666Y-42655666D01*
X96449333Y-42622333D01*
X96516000Y-42622333D01*
X96582666Y-42655666D01*
X96616000Y-42689000D01*
X96649333Y-42755666D01*
X96649333Y-42922333D01*
X96616000Y-43022333D01*
D13*
X98830000Y-56920000D02*
X101830000Y-56920000D01*
X98830000Y-59920000D02*
X98830000Y-56920000D01*
X101830000Y-59920000D02*
X98830000Y-59920000D01*
X101830000Y-56920000D02*
X101830000Y-59920000D01*
X101371421Y-57620000D02*
G75*
G03X101371421Y-57620000I-141421J0D01*
G01*
D14*
X104275000Y-58635000D02*
X105275000Y-58635000D01*
X105275000Y-56935000D02*
X104275000Y-56935000D01*
D15*
X93604080Y-58747660D02*
X88005920Y-58747660D01*
X88005920Y-58747660D02*
X88005920Y-55552340D01*
X88005920Y-55552340D02*
X93604080Y-55552340D01*
X93604080Y-55552340D02*
X93604080Y-58747660D01*
X92003880Y-58348880D02*
X90805000Y-58348880D01*
X90805000Y-58348880D02*
X89606120Y-58348880D01*
X92003880Y-55951120D02*
X90805000Y-55951120D01*
X90805000Y-55951120D02*
X89606120Y-55951120D01*
X90805000Y-55951120D02*
X90805000Y-56550560D01*
X90805000Y-58348880D02*
X90805000Y-57749440D01*
X90805000Y-56550560D02*
X91203780Y-57548780D01*
D14*
X102835000Y-65055000D02*
X102835000Y-65755000D01*
X101635000Y-65755000D02*
X101635000Y-65055000D01*
X93892000Y-36584000D02*
X93892000Y-37584000D01*
X95592000Y-37584000D02*
X95592000Y-36584000D01*
X102607000Y-36338000D02*
X102607000Y-38338000D01*
X104657000Y-38338000D02*
X104657000Y-36338000D01*
X101442000Y-44796000D02*
X100742000Y-44796000D01*
X100742000Y-43596000D02*
X101442000Y-43596000D01*
X98140000Y-44796000D02*
X97440000Y-44796000D01*
X97440000Y-43596000D02*
X98140000Y-43596000D01*
X104385000Y-47260000D02*
X104385000Y-49260000D01*
X106435000Y-49260000D02*
X106435000Y-47260000D01*
X104044000Y-59090000D02*
X104744000Y-59090000D01*
X104744000Y-60290000D02*
X104044000Y-60290000D01*
X95535000Y-74711000D02*
X96235000Y-74711000D01*
X96235000Y-75911000D02*
X95535000Y-75911000D01*
X99410000Y-75911000D02*
X98710000Y-75911000D01*
X98710000Y-74711000D02*
X99410000Y-74711000D01*
X102073000Y-82200000D02*
X102073000Y-82900000D01*
X100873000Y-82900000D02*
X100873000Y-82200000D01*
X107915000Y-79660000D02*
X107915000Y-80360000D01*
X106715000Y-80360000D02*
X106715000Y-79660000D01*
X106715000Y-83535000D02*
X106715000Y-82835000D01*
X107915000Y-82835000D02*
X107915000Y-83535000D01*
X103540000Y-82310000D02*
X104740000Y-82310000D01*
X104740000Y-84060000D02*
X103540000Y-84060000D01*
X103540000Y-79770000D02*
X104740000Y-79770000D01*
X104740000Y-81520000D02*
X103540000Y-81520000D01*
X93912600Y-40352800D02*
X93912600Y-42252800D01*
X95317400Y-40327400D02*
X95317400Y-42227400D01*
X94665800Y-41449600D02*
X94665800Y-40999600D01*
X94890400Y-41448800D02*
X94390400Y-41448800D01*
X94640400Y-41448800D02*
X94890400Y-41198800D01*
X94890400Y-41198800D02*
X94390400Y-41198800D01*
X94390400Y-41198800D02*
X94640400Y-41448800D01*
X94390400Y-41198800D02*
X94640400Y-41448800D01*
X94890400Y-41198800D02*
X94390400Y-41198800D01*
X94640400Y-41448800D02*
X94890400Y-41198800D01*
X94890400Y-41448800D02*
X94390400Y-41448800D01*
X94615000Y-41449600D02*
X94615000Y-40999600D01*
X103590000Y-40556000D02*
X103590000Y-42456000D01*
X104690000Y-40556000D02*
X104690000Y-42456000D01*
X104140000Y-41456000D02*
X104140000Y-41906000D01*
X104390000Y-41406000D02*
X103890000Y-41406000D01*
X104140000Y-41406000D02*
X104390000Y-41656000D01*
X104390000Y-41656000D02*
X103890000Y-41656000D01*
X103890000Y-41656000D02*
X104140000Y-41406000D01*
X109736000Y-35152000D02*
X109736000Y-39402000D01*
X109736000Y-39402000D02*
X108736000Y-39402000D01*
X108736000Y-39402000D02*
X108736000Y-35152000D01*
X111136000Y-41152000D02*
X111486000Y-41152000D01*
X111486000Y-41152000D02*
X111486000Y-42752000D01*
X111486000Y-42752000D02*
X112186000Y-42752000D01*
X112186000Y-42752000D02*
X112186000Y-35152000D01*
X112186000Y-35152000D02*
X106286000Y-35152000D01*
X106286000Y-35152000D02*
X106286000Y-42752000D01*
X106286000Y-42752000D02*
X106986000Y-42752000D01*
X106986000Y-42752000D02*
X106986000Y-41152000D01*
X106986000Y-41152000D02*
X107336000Y-41152000D01*
X110236000Y-42602000D02*
X110636000Y-43002000D01*
X110636000Y-43002000D02*
X109836000Y-43002000D01*
X109836000Y-43002000D02*
X110236000Y-42602000D01*
X112186000Y-41152000D02*
X111486000Y-41152000D01*
X106286000Y-41152000D02*
X106986000Y-41152000D01*
X111536000Y-38902000D02*
X111536000Y-37302000D01*
X111536000Y-37302000D02*
X110536000Y-37302000D01*
X110536000Y-37302000D02*
X110536000Y-38902000D01*
X110536000Y-38902000D02*
X111536000Y-38902000D01*
X106936000Y-38902000D02*
X106936000Y-37302000D01*
X106936000Y-37302000D02*
X107936000Y-37302000D01*
X107936000Y-37302000D02*
X107936000Y-38902000D01*
X107936000Y-38902000D02*
X106936000Y-38902000D01*
X110536000Y-37302000D02*
X110536000Y-35152000D01*
X111036000Y-37302000D02*
X111036000Y-35152000D01*
X109336000Y-41152000D02*
X109136000Y-41152000D01*
X95115000Y-54650000D02*
X94115000Y-54650000D01*
X94115000Y-53300000D02*
X95115000Y-53300000D01*
X99528000Y-40759000D02*
X99528000Y-39759000D01*
X100878000Y-39759000D02*
X100878000Y-40759000D01*
X94242000Y-43521000D02*
X95242000Y-43521000D01*
X95242000Y-44871000D02*
X94242000Y-44871000D01*
X98592000Y-39747000D02*
X98592000Y-40747000D01*
X97242000Y-40747000D02*
X97242000Y-39747000D01*
X103640000Y-43521000D02*
X104640000Y-43521000D01*
X104640000Y-44871000D02*
X103640000Y-44871000D01*
X95750000Y-80050000D02*
X94750000Y-80050000D01*
X94750000Y-78700000D02*
X95750000Y-78700000D01*
X107910000Y-54475000D02*
X107910000Y-53475000D01*
X109260000Y-53475000D02*
X109260000Y-54475000D01*
X95385000Y-76668000D02*
X96385000Y-76668000D01*
X96385000Y-78018000D02*
X95385000Y-78018000D01*
X99560000Y-78018000D02*
X98560000Y-78018000D01*
X98560000Y-76668000D02*
X99560000Y-76668000D01*
X110450000Y-54475000D02*
X110450000Y-53475000D01*
X111800000Y-53475000D02*
X111800000Y-54475000D01*
X100330000Y-61214000D02*
X99060000Y-61214000D01*
X100330000Y-71882000D02*
X100330000Y-61214000D01*
X96012000Y-61214000D02*
X90170000Y-61214000D01*
X99060000Y-73152000D02*
X98298000Y-73152000D01*
X96774000Y-73152000D02*
X90170000Y-73152000D01*
X88900000Y-72136000D02*
X88900000Y-70866000D01*
X99460000Y-38530000D02*
G75*
G03X99460000Y-38530000I-100000J0D01*
G01*
X98810000Y-38280000D02*
X99310000Y-38280000D01*
X98810000Y-35380000D02*
X98810000Y-38280000D01*
X99310000Y-35380000D02*
X98810000Y-35380000D01*
X99310000Y-38280000D02*
X99310000Y-35380000D01*
X103886000Y-48641000D02*
X103886000Y-45593000D01*
X103886000Y-45593000D02*
X96774000Y-45593000D01*
X96774000Y-45593000D02*
X96774000Y-48641000D01*
X103886000Y-51689000D02*
X103886000Y-52451000D01*
X103886000Y-52451000D02*
X102362000Y-54737000D01*
X102362000Y-54737000D02*
X98298000Y-54737000D01*
X98298000Y-54737000D02*
X96774000Y-52451000D01*
X96774000Y-52451000D02*
X96774000Y-51689000D01*
X95480000Y-80875000D02*
X95480000Y-81125000D01*
X98830000Y-80875000D02*
X98830000Y-81125000D01*
X98830000Y-84225000D02*
X98830000Y-83975000D01*
X95480000Y-84225000D02*
X95480000Y-83975000D01*
X95480000Y-80875000D02*
X98830000Y-80875000D01*
X95480000Y-84225000D02*
X98830000Y-84225000D01*
X95480000Y-81125000D02*
X94230000Y-81125000D01*
D15*
X87823040Y-34798000D02*
X87823040Y-44958000D01*
X87823040Y-34798000D02*
X91975940Y-34798000D01*
X91975940Y-34798000D02*
X92976700Y-35798760D01*
X92976700Y-35798760D02*
X92976700Y-43957240D01*
X92976700Y-43957240D02*
X91975940Y-44958000D01*
X91975940Y-44958000D02*
X87823040Y-44958000D01*
D16*
X89628980Y-36329620D02*
X88930480Y-36329620D01*
D14*
X92964000Y-84963000D02*
X89916000Y-84963000D01*
X89916000Y-73787000D02*
X89916000Y-84963000D01*
X92964000Y-73787000D02*
X89916000Y-73787000D01*
X92964000Y-84963000D02*
X92964000Y-73787000D01*
X89408000Y-45720000D02*
X89408000Y-46736000D01*
X89408000Y-48260000D02*
X89408000Y-51816000D01*
X92964000Y-54356000D02*
X92964000Y-50673000D01*
X89408000Y-54356000D02*
X92964000Y-54356000D01*
X89408000Y-53213000D02*
X89408000Y-54356000D01*
X92964000Y-45720000D02*
X89408000Y-45720000D01*
X92964000Y-49403000D02*
X92964000Y-45720000D01*
D17*
X100866907Y-58648358D02*
X101109538Y-58648358D01*
X101138082Y-58634085D01*
X101152355Y-58619813D01*
X101166627Y-58591268D01*
X101166627Y-58534179D01*
X101152355Y-58505634D01*
X101138082Y-58491361D01*
X101109538Y-58477089D01*
X100866907Y-58477089D01*
X100866907Y-58191641D02*
X100866907Y-58334365D01*
X101009631Y-58348638D01*
X100995359Y-58334365D01*
X100981086Y-58305820D01*
X100981086Y-58234459D01*
X100995359Y-58205914D01*
X101009631Y-58191641D01*
X101038176Y-58177369D01*
X101109538Y-58177369D01*
X101138082Y-58191641D01*
X101152355Y-58205914D01*
X101166627Y-58234459D01*
X101166627Y-58305820D01*
X101152355Y-58334365D01*
X101138082Y-58348638D01*
X100165867Y-58990895D02*
X100165867Y-59133619D01*
X99866147Y-59133619D01*
X100165867Y-58890988D02*
X99866147Y-58890988D01*
X100151595Y-58762537D02*
X100165867Y-58719720D01*
X100165867Y-58648358D01*
X100151595Y-58619813D01*
X100137322Y-58605540D01*
X100108778Y-58591268D01*
X100080233Y-58591268D01*
X100051688Y-58605540D01*
X100037416Y-58619813D01*
X100023143Y-58648358D01*
X100008871Y-58705447D01*
X99994599Y-58733992D01*
X99980326Y-58748264D01*
X99951781Y-58762537D01*
X99923237Y-58762537D01*
X99894692Y-58748264D01*
X99880420Y-58733992D01*
X99866147Y-58705447D01*
X99866147Y-58634085D01*
X99880420Y-58591268D01*
X99866147Y-58491361D02*
X99866147Y-58305820D01*
X99980326Y-58405727D01*
X99980326Y-58362910D01*
X99994599Y-58334365D01*
X100008871Y-58320093D01*
X100037416Y-58305820D01*
X100108778Y-58305820D01*
X100137322Y-58320093D01*
X100151595Y-58334365D01*
X100165867Y-58362910D01*
X100165867Y-58448544D01*
X100151595Y-58477089D01*
X100137322Y-58491361D01*
X100165867Y-58177369D02*
X99866147Y-58177369D01*
X99866147Y-58106007D01*
X99880420Y-58063190D01*
X99908964Y-58034645D01*
X99937509Y-58020373D01*
X99994599Y-58006100D01*
X100037416Y-58006100D01*
X100094505Y-58020373D01*
X100123050Y-58034645D01*
X100151595Y-58063190D01*
X100165867Y-58106007D01*
X100165867Y-58177369D01*
X100165867Y-57877649D02*
X99866147Y-57877649D01*
X100008871Y-57877649D02*
X100008871Y-57706380D01*
X100165867Y-57706380D02*
X99866147Y-57706380D01*
%LPC*%
D18*
X101805000Y-57920000D03*
X101805000Y-58420000D03*
X101805000Y-58920000D03*
D19*
X101330000Y-59895000D03*
X100830000Y-59895000D03*
X100330000Y-59895000D03*
X99830000Y-59895000D03*
X99330000Y-59895000D03*
D18*
X98855000Y-58920000D03*
X98855000Y-58420000D03*
X98855000Y-57920000D03*
D19*
X99330000Y-56945000D03*
X99830000Y-56945000D03*
X100330000Y-56945000D03*
X100830000Y-56945000D03*
X101330000Y-56945000D03*
D20*
X111125000Y-83185000D03*
D21*
X111125000Y-80645000D03*
D22*
X108585000Y-50800000D03*
D23*
X111125000Y-50800000D03*
X108585000Y-48260000D03*
X111125000Y-48260000D03*
X108585000Y-45720000D03*
X111125000Y-45720000D03*
D24*
X105775000Y-57785000D03*
X103775000Y-57785000D03*
D25*
X92877640Y-58224420D03*
X88732360Y-58224420D03*
X92877640Y-56075580D03*
X88732360Y-56075580D03*
D26*
X102235000Y-64655000D03*
X102235000Y-66155000D03*
D27*
X94742000Y-38084000D03*
X94742000Y-36084000D03*
D28*
X103632000Y-38838000D03*
X103632000Y-35838000D03*
D29*
X101842000Y-44196000D03*
X100342000Y-44196000D03*
X98540000Y-44196000D03*
X97040000Y-44196000D03*
D28*
X105410000Y-49760000D03*
X105410000Y-46760000D03*
D29*
X103644000Y-59690000D03*
X105144000Y-59690000D03*
X95135000Y-75311000D03*
X96635000Y-75311000D03*
X99810000Y-75311000D03*
X98310000Y-75311000D03*
D26*
X101473000Y-81800000D03*
X101473000Y-83300000D03*
X107315000Y-79260000D03*
X107315000Y-80760000D03*
X107315000Y-83935000D03*
X107315000Y-82435000D03*
D30*
X105090000Y-83185000D03*
X103190000Y-83185000D03*
X105090000Y-80645000D03*
X103190000Y-80645000D03*
D31*
X94270600Y-40614600D03*
X94970600Y-40614600D03*
X94970600Y-41914600D03*
X94270600Y-41914600D03*
D32*
X104140000Y-42405300D03*
X104140000Y-40906700D03*
D33*
X110236000Y-41402000D03*
D34*
X108236000Y-41402000D03*
D35*
X93865000Y-53975000D03*
X95365000Y-53975000D03*
D36*
X100203000Y-39509000D03*
X100203000Y-41009000D03*
D35*
X95492000Y-44196000D03*
X93992000Y-44196000D03*
D36*
X97917000Y-40997000D03*
X97917000Y-39497000D03*
D35*
X104890000Y-44196000D03*
X103390000Y-44196000D03*
X94500000Y-79375000D03*
X96000000Y-79375000D03*
D36*
X108585000Y-53225000D03*
X108585000Y-54725000D03*
D35*
X96635000Y-77343000D03*
X95135000Y-77343000D03*
X98310000Y-77343000D03*
X99810000Y-77343000D03*
D36*
X111125000Y-53225000D03*
X111125000Y-54725000D03*
D37*
X89161620Y-62745620D03*
X89161620Y-63845620D03*
X89161620Y-64945620D03*
X89161620Y-66045620D03*
X89161620Y-67145620D03*
X89161620Y-68245620D03*
X89161620Y-69345620D03*
X89161620Y-70445620D03*
D38*
X89286620Y-72795620D03*
X89286620Y-61545620D03*
D39*
X96886620Y-61295620D03*
D40*
X97536620Y-73045620D03*
D41*
X99961620Y-72695620D03*
D42*
X98386620Y-61595620D03*
D43*
X100160000Y-37780000D03*
X100160000Y-36830000D03*
X100160000Y-35880000D03*
X97960000Y-35880000D03*
X97960000Y-37780000D03*
D44*
X100330000Y-53467000D03*
D45*
X100330000Y-46863000D03*
X98044000Y-46863000D03*
X102616000Y-46863000D03*
D46*
X94955000Y-81575000D03*
X94955000Y-82225000D03*
X94955000Y-82875000D03*
X94955000Y-83525000D03*
X99355000Y-83525000D03*
X99355000Y-82875000D03*
X99355000Y-82225000D03*
X99355000Y-81575000D03*
D47*
X104493060Y-72722740D03*
X102493060Y-72722740D03*
D48*
X103493060Y-75962740D03*
D49*
X91948000Y-38580060D03*
X91948000Y-39230300D03*
X91948000Y-39878000D03*
X91948000Y-40525700D03*
X91948000Y-41175940D03*
D50*
X89273380Y-38679120D03*
X89273380Y-41076880D03*
D51*
X89278000Y-36448000D03*
X89278000Y-43308000D03*
D52*
X91948000Y-42375940D03*
X91948000Y-37375940D03*
D53*
X91440000Y-83185000D03*
X91440000Y-80645000D03*
X91440000Y-78105000D03*
X91440000Y-75565000D03*
D54*
X111760000Y-57284000D03*
X111760000Y-58584000D03*
X111760000Y-59884000D03*
X111760000Y-61184000D03*
X111760000Y-62484000D03*
X111760000Y-77343000D03*
X111760000Y-76043000D03*
X111760000Y-74743000D03*
X111760000Y-73443000D03*
X111760000Y-72143000D03*
X109982000Y-72106000D03*
X109982000Y-73406000D03*
X109982000Y-57277000D03*
X109982000Y-58577000D03*
X109982000Y-76043000D03*
X109982000Y-77343000D03*
X109982000Y-62484000D03*
X109982000Y-61184000D03*
D55*
X88978740Y-47531020D03*
X88978740Y-52531020D03*
X93378740Y-50031020D03*
D56*
X91178740Y-46631020D03*
X91178740Y-53431020D03*
M02*
